<?xml version="1.0" encoding="UTF-8" standalone="yes"?>
<!DOCTYPE svg PUBLIC "-//W3C//DTD SVG 1.0//EN" "http://www.w3.org/TR/2001/REC-SVG-20010904/DTD/svg10.dtd">
<svg height="552.5" width="747.5" xmlns="http://www.w3.org/2000/svg" xmlns:svg="http://www.w3.org/2000/svg" xmlns:xlink="http://www.w3.org/1999/xlink">
	<polygon points="498.333333333333,503.75 498.333333333333,520 717.166666666667,520 717.166666666667,503.75 " style="fill: none; fill-opacity: 1; stroke: black; stroke-opacity: 1; stroke-width: 1.25" />
	<text font-family="Arial" font-size="16.25" text-anchor="middle" x="498" y="536.25">0.0</text>
	<text font-family="Arial" font-size="16.25" text-anchor="middle" x="715" y="536.25">1.0</text>
	<polygon points="65,95 65,121 665,121 665,95 " style="fill: #a6cee3; fill-opacity: 1; stroke: black; stroke-opacity: 1; stroke-width: 0" />
	<text font-family="Arial" font-size="10" text-anchor="middle" x="365" y="85">NC_000014.9 Region:75.26 (Mb)</text>
	<text font-family="Arial" font-size="10" text-anchor="middle" x="665" y="85">End:99.679 (Mb)</text>
	<text font-family="Arial" font-size="10" text-anchor="middle" x="65" y="85">Start:24.415 </text>
	<text font-family="Arial" font-size="16.25" text-anchor="middle" x="606" y="487.5">D&apos; Color Key</text>
	<polygon points="498.333333333333,503.75 498.333333333333,520 500.5,520 500.5,503.75 " style="fill: rgb(255,255,255); fill-opacity: 1; stroke: black; stroke-opacity: 1; stroke-width: 0" />
	<polygon points="500.5,503.75 500.5,520 502.666666666667,520 502.666666666667,503.75 " style="fill: rgb(254,254,251); fill-opacity: 1; stroke: black; stroke-opacity: 1; stroke-width: 0" />
	<polygon points="502.666666666667,503.75 502.666666666667,520 504.833333333333,520 504.833333333333,503.75 " style="fill: rgb(254,254,247); fill-opacity: 1; stroke: black; stroke-opacity: 1; stroke-width: 0" />
	<polygon points="504.833333333333,503.75 504.833333333333,520 507,520 507,503.75 " style="fill: rgb(254,253,244); fill-opacity: 1; stroke: black; stroke-opacity: 1; stroke-width: 0" />
	<polygon points="507,503.75 507,520 509.166666666667,520 509.166666666667,503.75 " style="fill: rgb(253,253,240); fill-opacity: 1; stroke: black; stroke-opacity: 1; stroke-width: 0" />
	<polygon points="509.166666666667,503.75 509.166666666667,520 511.333333333333,520 511.333333333333,503.75 " style="fill: rgb(253,253,237); fill-opacity: 1; stroke: black; stroke-opacity: 1; stroke-width: 0" />
	<polygon points="511.333333333333,503.75 511.333333333333,520 513.5,520 513.5,503.75 " style="fill: rgb(253,252,233); fill-opacity: 1; stroke: black; stroke-opacity: 1; stroke-width: 0" />
	<polygon points="513.5,503.75 513.5,520 515.666666666667,520 515.666666666667,503.75 " style="fill: rgb(252,252,229); fill-opacity: 1; stroke: black; stroke-opacity: 1; stroke-width: 0" />
	<polygon points="515.666666666667,503.75 515.666666666667,520 517.833333333333,520 517.833333333333,503.75 " style="fill: rgb(252,251,226); fill-opacity: 1; stroke: black; stroke-opacity: 1; stroke-width: 0" />
	<polygon points="517.833333333333,503.75 517.833333333333,520 520,520 520,503.75 " style="fill: rgb(252,251,222); fill-opacity: 1; stroke: black; stroke-opacity: 1; stroke-width: 0" />
	<polygon points="520,503.75 520,520 522.166666666667,520 522.166666666667,503.75 " style="fill: rgb(252,251,219); fill-opacity: 1; stroke: black; stroke-opacity: 1; stroke-width: 0" />
	<polygon points="522.166666666667,503.75 522.166666666667,520 524.333333333333,520 524.333333333333,503.75 " style="fill: rgb(251,250,215); fill-opacity: 1; stroke: black; stroke-opacity: 1; stroke-width: 0" />
	<polygon points="524.333333333333,503.75 524.333333333333,520 526.5,520 526.5,503.75 " style="fill: rgb(251,250,211); fill-opacity: 1; stroke: black; stroke-opacity: 1; stroke-width: 0" />
	<polygon points="526.5,503.75 526.5,520 528.666666666667,520 528.666666666667,503.75 " style="fill: rgb(251,249,208); fill-opacity: 1; stroke: black; stroke-opacity: 1; stroke-width: 0" />
	<polygon points="528.666666666667,503.75 528.666666666667,520 530.833333333333,520 530.833333333333,503.75 " style="fill: rgb(250,249,204); fill-opacity: 1; stroke: black; stroke-opacity: 1; stroke-width: 0" />
	<polygon points="530.833333333333,503.75 530.833333333333,520 533,520 533,503.75 " style="fill: rgb(250,249,201); fill-opacity: 1; stroke: black; stroke-opacity: 1; stroke-width: 0" />
	<polygon points="533,503.75 533,520 535.166666666667,520 535.166666666667,503.75 " style="fill: rgb(250,248,197); fill-opacity: 1; stroke: black; stroke-opacity: 1; stroke-width: 0" />
	<polygon points="535.166666666667,503.75 535.166666666667,520 537.333333333333,520 537.333333333333,503.75 " style="fill: rgb(249,248,193); fill-opacity: 1; stroke: black; stroke-opacity: 1; stroke-width: 0" />
	<polygon points="537.333333333333,503.75 537.333333333333,520 539.5,520 539.5,503.75 " style="fill: rgb(249,247,190); fill-opacity: 1; stroke: black; stroke-opacity: 1; stroke-width: 0" />
	<polygon points="539.5,503.75 539.5,520 541.666666666667,520 541.666666666667,503.75 " style="fill: rgb(249,247,186); fill-opacity: 1; stroke: black; stroke-opacity: 1; stroke-width: 0" />
	<polygon points="541.666666666667,503.75 541.666666666667,520 543.833333333333,520 543.833333333333,503.75 " style="fill: rgb(249,247,183); fill-opacity: 1; stroke: black; stroke-opacity: 1; stroke-width: 0" />
	<polygon points="543.833333333333,503.75 543.833333333333,520 546,520 546,503.75 " style="fill: rgb(248,246,179); fill-opacity: 1; stroke: black; stroke-opacity: 1; stroke-width: 0" />
	<polygon points="546,503.75 546,520 548.166666666667,520 548.166666666667,503.75 " style="fill: rgb(248,246,175); fill-opacity: 1; stroke: black; stroke-opacity: 1; stroke-width: 0" />
	<polygon points="548.166666666667,503.75 548.166666666667,520 550.333333333333,520 550.333333333333,503.75 " style="fill: rgb(248,245,172); fill-opacity: 1; stroke: black; stroke-opacity: 1; stroke-width: 0" />
	<polygon points="550.333333333333,503.75 550.333333333333,520 552.5,520 552.5,503.75 " style="fill: rgb(247,245,168); fill-opacity: 1; stroke: black; stroke-opacity: 1; stroke-width: 0" />
	<polygon points="552.5,503.75 552.5,520 554.666666666667,520 554.666666666667,503.75 " style="fill: rgb(247,245,165); fill-opacity: 1; stroke: black; stroke-opacity: 1; stroke-width: 0" />
	<polygon points="554.666666666667,503.75 554.666666666667,520 556.833333333333,520 556.833333333333,503.75 " style="fill: rgb(247,244,161); fill-opacity: 1; stroke: black; stroke-opacity: 1; stroke-width: 0" />
	<polygon points="556.833333333333,503.75 556.833333333333,520 559,520 559,503.75 " style="fill: rgb(246,244,157); fill-opacity: 1; stroke: black; stroke-opacity: 1; stroke-width: 0" />
	<polygon points="559,503.75 559,520 561.166666666667,520 561.166666666667,503.75 " style="fill: rgb(246,243,154); fill-opacity: 1; stroke: black; stroke-opacity: 1; stroke-width: 0" />
	<polygon points="561.166666666667,503.75 561.166666666667,520 563.333333333333,520 563.333333333333,503.75 " style="fill: rgb(246,243,150); fill-opacity: 1; stroke: black; stroke-opacity: 1; stroke-width: 0" />
	<polygon points="563.333333333333,503.75 563.333333333333,520 565.5,520 565.5,503.75 " style="fill: rgb(246,243,147); fill-opacity: 1; stroke: black; stroke-opacity: 1; stroke-width: 0" />
	<polygon points="565.5,503.75 565.5,520 567.666666666667,520 567.666666666667,503.75 " style="fill: rgb(245,242,143); fill-opacity: 1; stroke: black; stroke-opacity: 1; stroke-width: 0" />
	<polygon points="567.666666666667,503.75 567.666666666667,520 569.833333333333,520 569.833333333333,503.75 " style="fill: rgb(245,242,139); fill-opacity: 1; stroke: black; stroke-opacity: 1; stroke-width: 0" />
	<polygon points="569.833333333333,503.75 569.833333333333,520 572,520 572,503.75 " style="fill: rgb(245,241,136); fill-opacity: 1; stroke: black; stroke-opacity: 1; stroke-width: 0" />
	<polygon points="572,503.75 572,520 574.166666666667,520 574.166666666667,503.75 " style="fill: rgb(244,241,132); fill-opacity: 1; stroke: black; stroke-opacity: 1; stroke-width: 0" />
	<polygon points="574.166666666667,503.75 574.166666666667,520 576.333333333333,520 576.333333333333,503.75 " style="fill: rgb(244,241,129); fill-opacity: 1; stroke: black; stroke-opacity: 1; stroke-width: 0" />
	<polygon points="576.333333333333,503.75 576.333333333333,520 578.5,520 578.5,503.75 " style="fill: rgb(244,240,125); fill-opacity: 1; stroke: black; stroke-opacity: 1; stroke-width: 0" />
	<polygon points="578.5,503.75 578.5,520 580.666666666667,520 580.666666666667,503.75 " style="fill: rgb(243,240,121); fill-opacity: 1; stroke: black; stroke-opacity: 1; stroke-width: 0" />
	<polygon points="580.666666666667,503.75 580.666666666667,520 582.833333333333,520 582.833333333333,503.75 " style="fill: rgb(243,239,118); fill-opacity: 1; stroke: black; stroke-opacity: 1; stroke-width: 0" />
	<polygon points="582.833333333333,503.75 582.833333333333,520 585,520 585,503.75 " style="fill: rgb(243,239,114); fill-opacity: 1; stroke: black; stroke-opacity: 1; stroke-width: 0" />
	<polygon points="585,503.75 585,520 587.166666666667,520 587.166666666667,503.75 " style="fill: rgb(243,239,111); fill-opacity: 1; stroke: black; stroke-opacity: 1; stroke-width: 0" />
	<polygon points="587.166666666667,503.75 587.166666666667,520 589.333333333333,520 589.333333333333,503.75 " style="fill: rgb(242,238,107); fill-opacity: 1; stroke: black; stroke-opacity: 1; stroke-width: 0" />
	<polygon points="589.333333333333,503.75 589.333333333333,520 591.5,520 591.5,503.75 " style="fill: rgb(242,238,103); fill-opacity: 1; stroke: black; stroke-opacity: 1; stroke-width: 0" />
	<polygon points="591.5,503.75 591.5,520 593.666666666667,520 593.666666666667,503.75 " style="fill: rgb(242,237,100); fill-opacity: 1; stroke: black; stroke-opacity: 1; stroke-width: 0" />
	<polygon points="593.666666666667,503.75 593.666666666667,520 595.833333333333,520 595.833333333333,503.75 " style="fill: rgb(241,237,96); fill-opacity: 1; stroke: black; stroke-opacity: 1; stroke-width: 0" />
	<polygon points="595.833333333333,503.75 595.833333333333,520 598,520 598,503.75 " style="fill: rgb(241,237,93); fill-opacity: 1; stroke: black; stroke-opacity: 1; stroke-width: 0" />
	<polygon points="598,503.75 598,520 600.166666666667,520 600.166666666667,503.75 " style="fill: rgb(241,236,89); fill-opacity: 1; stroke: black; stroke-opacity: 1; stroke-width: 0" />
	<polygon points="600.166666666667,503.75 600.166666666667,520 602.333333333333,520 602.333333333333,503.75 " style="fill: rgb(240,236,85); fill-opacity: 1; stroke: black; stroke-opacity: 1; stroke-width: 0" />
	<polygon points="602.333333333333,503.75 602.333333333333,520 604.5,520 604.5,503.75 " style="fill: rgb(240,235,82); fill-opacity: 1; stroke: black; stroke-opacity: 1; stroke-width: 0" />
	<polygon points="604.5,503.75 604.5,520 606.666666666667,520 606.666666666667,503.75 " style="fill: rgb(240,235,78); fill-opacity: 1; stroke: black; stroke-opacity: 1; stroke-width: 0" />
	<polygon points="606.666666666667,503.75 606.666666666667,520 608.833333333333,520 608.833333333333,503.75 " style="fill: rgb(240,235,75); fill-opacity: 1; stroke: black; stroke-opacity: 1; stroke-width: 0" />
	<polygon points="608.833333333333,503.75 608.833333333333,520 611,520 611,503.75 " style="fill: rgb(240,230,73); fill-opacity: 1; stroke: black; stroke-opacity: 1; stroke-width: 0" />
	<polygon points="611,503.75 611,520 613.166666666667,520 613.166666666667,503.75 " style="fill: rgb(240,225,72); fill-opacity: 1; stroke: black; stroke-opacity: 1; stroke-width: 0" />
	<polygon points="613.166666666667,503.75 613.166666666667,520 615.333333333333,520 615.333333333333,503.75 " style="fill: rgb(240,220,70); fill-opacity: 1; stroke: black; stroke-opacity: 1; stroke-width: 0" />
	<polygon points="615.333333333333,503.75 615.333333333333,520 617.5,520 617.5,503.75 " style="fill: rgb(241,216,69); fill-opacity: 1; stroke: black; stroke-opacity: 1; stroke-width: 0" />
	<polygon points="617.5,503.75 617.5,520 619.666666666667,520 619.666666666667,503.75 " style="fill: rgb(241,211,67); fill-opacity: 1; stroke: black; stroke-opacity: 1; stroke-width: 0" />
	<polygon points="619.666666666667,503.75 619.666666666667,520 621.833333333333,520 621.833333333333,503.75 " style="fill: rgb(241,206,66); fill-opacity: 1; stroke: black; stroke-opacity: 1; stroke-width: 0" />
	<polygon points="621.833333333333,503.75 621.833333333333,520 624,520 624,503.75 " style="fill: rgb(242,202,64); fill-opacity: 1; stroke: black; stroke-opacity: 1; stroke-width: 0" />
	<polygon points="624,503.75 624,520 626.166666666667,520 626.166666666667,503.75 " style="fill: rgb(242,197,63); fill-opacity: 1; stroke: black; stroke-opacity: 1; stroke-width: 0" />
	<polygon points="626.166666666667,503.75 626.166666666667,520 628.333333333333,520 628.333333333333,503.75 " style="fill: rgb(242,192,61); fill-opacity: 1; stroke: black; stroke-opacity: 1; stroke-width: 0" />
	<polygon points="628.333333333333,503.75 628.333333333333,520 630.5,520 630.5,503.75 " style="fill: rgb(243,188,60); fill-opacity: 1; stroke: black; stroke-opacity: 1; stroke-width: 0" />
	<polygon points="630.5,503.75 630.5,520 632.666666666667,520 632.666666666667,503.75 " style="fill: rgb(243,183,58); fill-opacity: 1; stroke: black; stroke-opacity: 1; stroke-width: 0" />
	<polygon points="632.666666666667,503.75 632.666666666667,520 634.833333333333,520 634.833333333333,503.75 " style="fill: rgb(243,178,57); fill-opacity: 1; stroke: black; stroke-opacity: 1; stroke-width: 0" />
	<polygon points="634.833333333333,503.75 634.833333333333,520 637,520 637,503.75 " style="fill: rgb(243,173,55); fill-opacity: 1; stroke: black; stroke-opacity: 1; stroke-width: 0" />
	<polygon points="637,503.75 637,520 639.166666666667,520 639.166666666667,503.75 " style="fill: rgb(244,169,54); fill-opacity: 1; stroke: black; stroke-opacity: 1; stroke-width: 0" />
	<polygon points="639.166666666667,503.75 639.166666666667,520 641.333333333333,520 641.333333333333,503.75 " style="fill: rgb(244,164,52); fill-opacity: 1; stroke: black; stroke-opacity: 1; stroke-width: 0" />
	<polygon points="641.333333333333,503.75 641.333333333333,520 643.5,520 643.5,503.75 " style="fill: rgb(244,159,51); fill-opacity: 1; stroke: black; stroke-opacity: 1; stroke-width: 0" />
	<polygon points="643.5,503.75 643.5,520 645.666666666667,520 645.666666666667,503.75 " style="fill: rgb(245,155,49); fill-opacity: 1; stroke: black; stroke-opacity: 1; stroke-width: 0" />
	<polygon points="645.666666666667,503.75 645.666666666667,520 647.833333333333,520 647.833333333333,503.75 " style="fill: rgb(245,150,48); fill-opacity: 1; stroke: black; stroke-opacity: 1; stroke-width: 0" />
	<polygon points="647.833333333333,503.75 647.833333333333,520 650,520 650,503.75 " style="fill: rgb(245,145,46); fill-opacity: 1; stroke: black; stroke-opacity: 1; stroke-width: 0" />
	<polygon points="650,503.75 650,520 652.166666666667,520 652.166666666667,503.75 " style="fill: rgb(246,141,45); fill-opacity: 1; stroke: black; stroke-opacity: 1; stroke-width: 0" />
	<polygon points="652.166666666667,503.75 652.166666666667,520 654.333333333333,520 654.333333333333,503.75 " style="fill: rgb(246,136,43); fill-opacity: 1; stroke: black; stroke-opacity: 1; stroke-width: 0" />
	<polygon points="654.333333333333,503.75 654.333333333333,520 656.5,520 656.5,503.75 " style="fill: rgb(246,131,42); fill-opacity: 1; stroke: black; stroke-opacity: 1; stroke-width: 0" />
	<polygon points="656.5,503.75 656.5,520 658.666666666667,520 658.666666666667,503.75 " style="fill: rgb(246,126,40); fill-opacity: 1; stroke: black; stroke-opacity: 1; stroke-width: 0" />
	<polygon points="658.666666666667,503.75 658.666666666667,520 660.833333333333,520 660.833333333333,503.75 " style="fill: rgb(247,122,39); fill-opacity: 1; stroke: black; stroke-opacity: 1; stroke-width: 0" />
	<polygon points="660.833333333333,503.75 660.833333333333,520 663,520 663,503.75 " style="fill: rgb(247,117,37); fill-opacity: 1; stroke: black; stroke-opacity: 1; stroke-width: 0" />
	<polygon points="663,503.75 663,520 665.166666666667,520 665.166666666667,503.75 " style="fill: rgb(247,112,36); fill-opacity: 1; stroke: black; stroke-opacity: 1; stroke-width: 0" />
	<polygon points="665.166666666667,503.75 665.166666666667,520 667.333333333333,520 667.333333333333,503.75 " style="fill: rgb(248,108,34); fill-opacity: 1; stroke: black; stroke-opacity: 1; stroke-width: 0" />
	<polygon points="667.333333333333,503.75 667.333333333333,520 669.5,520 669.5,503.75 " style="fill: rgb(248,103,33); fill-opacity: 1; stroke: black; stroke-opacity: 1; stroke-width: 0" />
	<polygon points="669.5,503.75 669.5,520 671.666666666667,520 671.666666666667,503.75 " style="fill: rgb(248,98,31); fill-opacity: 1; stroke: black; stroke-opacity: 1; stroke-width: 0" />
	<polygon points="671.666666666667,503.75 671.666666666667,520 673.833333333333,520 673.833333333333,503.75 " style="fill: rgb(249,94,30); fill-opacity: 1; stroke: black; stroke-opacity: 1; stroke-width: 0" />
	<polygon points="673.833333333333,503.75 673.833333333333,520 676,520 676,503.75 " style="fill: rgb(249,89,28); fill-opacity: 1; stroke: black; stroke-opacity: 1; stroke-width: 0" />
	<polygon points="676,503.75 676,520 678.166666666667,520 678.166666666667,503.75 " style="fill: rgb(249,84,27); fill-opacity: 1; stroke: black; stroke-opacity: 1; stroke-width: 0" />
	<polygon points="678.166666666667,503.75 678.166666666667,520 680.333333333333,520 680.333333333333,503.75 " style="fill: rgb(249,79,25); fill-opacity: 1; stroke: black; stroke-opacity: 1; stroke-width: 0" />
	<polygon points="680.333333333333,503.75 680.333333333333,520 682.5,520 682.5,503.75 " style="fill: rgb(250,75,24); fill-opacity: 1; stroke: black; stroke-opacity: 1; stroke-width: 0" />
	<polygon points="682.5,503.75 682.5,520 684.666666666667,520 684.666666666667,503.75 " style="fill: rgb(250,70,22); fill-opacity: 1; stroke: black; stroke-opacity: 1; stroke-width: 0" />
	<polygon points="684.666666666667,503.75 684.666666666667,520 686.833333333333,520 686.833333333333,503.75 " style="fill: rgb(250,65,21); fill-opacity: 1; stroke: black; stroke-opacity: 1; stroke-width: 0" />
	<polygon points="686.833333333333,503.75 686.833333333333,520 689,520 689,503.75 " style="fill: rgb(251,61,19); fill-opacity: 1; stroke: black; stroke-opacity: 1; stroke-width: 0" />
	<polygon points="689,503.75 689,520 691.166666666667,520 691.166666666667,503.75 " style="fill: rgb(251,56,18); fill-opacity: 1; stroke: black; stroke-opacity: 1; stroke-width: 0" />
	<polygon points="691.166666666667,503.75 691.166666666667,520 693.333333333333,520 693.333333333333,503.75 " style="fill: rgb(251,51,16); fill-opacity: 1; stroke: black; stroke-opacity: 1; stroke-width: 0" />
	<polygon points="693.333333333333,503.75 693.333333333333,520 695.5,520 695.5,503.75 " style="fill: rgb(252,47,15); fill-opacity: 1; stroke: black; stroke-opacity: 1; stroke-width: 0" />
	<polygon points="695.5,503.75 695.5,520 697.666666666667,520 697.666666666667,503.75 " style="fill: rgb(252,42,13); fill-opacity: 1; stroke: black; stroke-opacity: 1; stroke-width: 0" />
	<polygon points="697.666666666667,503.75 697.666666666667,520 699.833333333333,520 699.833333333333,503.75 " style="fill: rgb(252,37,12); fill-opacity: 1; stroke: black; stroke-opacity: 1; stroke-width: 0" />
	<polygon points="699.833333333333,503.75 699.833333333333,520 702,520 702,503.75 " style="fill: rgb(252,32,10); fill-opacity: 1; stroke: black; stroke-opacity: 1; stroke-width: 0" />
	<polygon points="702,503.75 702,520 704.166666666667,520 704.166666666667,503.75 " style="fill: rgb(253,28,9); fill-opacity: 1; stroke: black; stroke-opacity: 1; stroke-width: 0" />
	<polygon points="704.166666666667,503.75 704.166666666667,520 706.333333333333,520 706.333333333333,503.75 " style="fill: rgb(253,23,7); fill-opacity: 1; stroke: black; stroke-opacity: 1; stroke-width: 0" />
	<polygon points="706.333333333333,503.75 706.333333333333,520 708.5,520 708.5,503.75 " style="fill: rgb(253,18,6); fill-opacity: 1; stroke: black; stroke-opacity: 1; stroke-width: 0" />
	<polygon points="708.5,503.75 708.5,520 710.666666666667,520 710.666666666667,503.75 " style="fill: rgb(254,14,4); fill-opacity: 1; stroke: black; stroke-opacity: 1; stroke-width: 0" />
	<polygon points="710.666666666667,503.75 710.666666666667,520 712.833333333333,520 712.833333333333,503.75 " style="fill: rgb(254,9,3); fill-opacity: 1; stroke: black; stroke-opacity: 1; stroke-width: 0" />
	<polygon points="712.833333333333,503.75 712.833333333333,520 715,520 715,503.75 " style="fill: rgb(254,4,1); fill-opacity: 1; stroke: black; stroke-opacity: 1; stroke-width: 0" />
	<polygon points="715,503.75 715,520 717.166666666667,520 717.166666666667,503.75 " style="fill: rgb(255,0,0); fill-opacity: 1; stroke: black; stroke-opacity: 1; stroke-width: 0" />
	<line stroke="green" stroke-width="1" x1="65" x2="65" y1="121" y2="145" />
	<line stroke="grey" stroke-width="1" x1="65" x2="65" y1="95" y2="121" />
	<polygon points="90,170 65,195 90,220 115,195 " style="fill: rgb(254,254,251); fill-opacity: 1; stroke: white; stroke-opacity: 1; stroke-width: 1" />
	<polygon points="115,195 90,220 115,245 140,220 " style="fill: rgb(251,249,208); fill-opacity: 1; stroke: white; stroke-opacity: 1; stroke-width: 1" />
	<polygon points="140,220 115,245 140,270 165,245 " style="fill: rgb(252,251,222); fill-opacity: 1; stroke: white; stroke-opacity: 1; stroke-width: 1" />
	<polygon points="165,245 140,270 165,295 190,270 " style="fill: rgb(252,251,226); fill-opacity: 1; stroke: white; stroke-opacity: 1; stroke-width: 1" />
	<polygon points="190,270 165,295 190,320 215,295 " style="fill: rgb(251,249,208); fill-opacity: 1; stroke: white; stroke-opacity: 1; stroke-width: 1" />
	<polygon points="215,295 190,320 215,345 240,320 " style="fill: rgb(241,211,67); fill-opacity: 1; stroke: white; stroke-opacity: 1; stroke-width: 1" />
	<polygon points="240,320 215,345 240,370 265,345 " style="fill: rgb(251,250,211); fill-opacity: 1; stroke: white; stroke-opacity: 1; stroke-width: 1" />
	<polygon points="265,345 240,370 265,395 290,370 " style="fill: rgb(251,250,215); fill-opacity: 1; stroke: white; stroke-opacity: 1; stroke-width: 1" />
	<polygon points="290,370 265,395 290,420 315,395 " style="fill: rgb(249,248,193); fill-opacity: 1; stroke: white; stroke-opacity: 1; stroke-width: 1" />
	<polygon points="315,395 290,420 315,445 340,420 " style="fill: rgb(249,248,193); fill-opacity: 1; stroke: white; stroke-opacity: 1; stroke-width: 1" />
	<polygon points="340,420 315,445 340,470 365,445 " style="fill: rgb(253,253,237); fill-opacity: 1; stroke: white; stroke-opacity: 1; stroke-width: 1" />
	<polygon points="365,445 340,470 365,495 390,470 " style="fill: rgb(248,245,172); fill-opacity: 1; stroke: white; stroke-opacity: 1; stroke-width: 1" />
	<line stroke="green" stroke-width="1" x1="393.76008314762" x2="115" y1="121" y2="145" />
	<line stroke="grey" stroke-width="1" x1="393.76008314762" x2="393.76008314762" y1="95" y2="121" />
	<polygon points="140,170 115,195 140,220 165,195 " style="fill: rgb(245,242,143); fill-opacity: 1; stroke: white; stroke-opacity: 1; stroke-width: 1" />
	<polygon points="165,195 140,220 165,245 190,220 " style="fill: rgb(253,253,240); fill-opacity: 1; stroke: white; stroke-opacity: 1; stroke-width: 1" />
	<polygon points="190,220 165,245 190,270 215,245 " style="fill: rgb(249,247,186); fill-opacity: 1; stroke: white; stroke-opacity: 1; stroke-width: 1" />
	<polygon points="215,245 190,270 215,295 240,270 " style="fill: rgb(254,253,244); fill-opacity: 1; stroke: white; stroke-opacity: 1; stroke-width: 1" />
	<polygon points="240,270 215,295 240,320 265,295 " style="fill: rgb(252,252,229); fill-opacity: 1; stroke: white; stroke-opacity: 1; stroke-width: 1" />
	<polygon points="265,295 240,320 265,345 290,320 " style="fill: rgb(248,245,172); fill-opacity: 1; stroke: white; stroke-opacity: 1; stroke-width: 1" />
	<polygon points="290,320 265,345 290,370 315,345 " style="fill: rgb(242,238,103); fill-opacity: 1; stroke: white; stroke-opacity: 1; stroke-width: 1" />
	<polygon points="315,345 290,370 315,395 340,370 " style="fill: rgb(246,243,154); fill-opacity: 1; stroke: white; stroke-opacity: 1; stroke-width: 1" />
	<polygon points="340,370 315,395 340,420 365,395 " style="fill: rgb(246,243,154); fill-opacity: 1; stroke: white; stroke-opacity: 1; stroke-width: 1" />
	<polygon points="365,395 340,420 365,445 390,420 " style="fill: rgb(244,241,132); fill-opacity: 1; stroke: white; stroke-opacity: 1; stroke-width: 1" />
	<polygon points="390,420 365,445 390,470 415,445 " style="fill: rgb(250,249,201); fill-opacity: 1; stroke: white; stroke-opacity: 1; stroke-width: 1" />
	<line stroke="green" stroke-width="1" x1="393.760960052823" x2="165" y1="121" y2="145" />
	<line stroke="grey" stroke-width="1" x1="393.760960052823" x2="393.760960052823" y1="95" y2="121" />
	<polygon points="190,170 165,195 190,220 215,195 " style="fill: rgb(250,249,201); fill-opacity: 1; stroke: white; stroke-opacity: 1; stroke-width: 1" />
	<polygon points="215,195 190,220 215,245 240,220 " style="fill: rgb(247,245,168); fill-opacity: 1; stroke: white; stroke-opacity: 1; stroke-width: 1" />
	<polygon points="240,220 215,245 240,270 265,245 " style="fill: rgb(252,252,229); fill-opacity: 1; stroke: white; stroke-opacity: 1; stroke-width: 1" />
	<polygon points="265,245 240,270 265,295 290,270 " style="fill: rgb(250,249,204); fill-opacity: 1; stroke: white; stroke-opacity: 1; stroke-width: 1" />
	<polygon points="290,270 265,295 290,320 315,295 " style="fill: rgb(252,252,229); fill-opacity: 1; stroke: white; stroke-opacity: 1; stroke-width: 1" />
	<polygon points="315,295 290,320 315,345 340,320 " style="fill: rgb(254,253,244); fill-opacity: 1; stroke: white; stroke-opacity: 1; stroke-width: 1" />
	<polygon points="340,320 315,345 340,370 365,345 " style="fill: rgb(252,252,229); fill-opacity: 1; stroke: white; stroke-opacity: 1; stroke-width: 1" />
	<polygon points="365,345 340,370 365,395 390,370 " style="fill: rgb(252,252,229); fill-opacity: 1; stroke: white; stroke-opacity: 1; stroke-width: 1" />
	<polygon points="390,370 365,395 390,420 415,395 " style="fill: rgb(254,253,244); fill-opacity: 1; stroke: white; stroke-opacity: 1; stroke-width: 1" />
	<polygon points="415,395 390,420 415,445 440,420 " style="fill: rgb(252,251,226); fill-opacity: 1; stroke: white; stroke-opacity: 1; stroke-width: 1" />
	<line stroke="green" stroke-width="1" x1="457.953370486124" x2="215" y1="121" y2="145" />
	<line stroke="grey" stroke-width="1" x1="457.953370486124" x2="457.953370486124" y1="95" y2="121" />
	<polygon points="240,170 215,195 240,220 265,195 " style="fill: rgb(250,249,204); fill-opacity: 1; stroke: white; stroke-opacity: 1; stroke-width: 1" />
	<polygon points="265,195 240,220 265,245 290,220 " style="fill: rgb(250,249,204); fill-opacity: 1; stroke: white; stroke-opacity: 1; stroke-width: 1" />
	<polygon points="290,220 265,245 290,270 315,245 " style="fill: rgb(248,245,172); fill-opacity: 1; stroke: white; stroke-opacity: 1; stroke-width: 1" />
	<polygon points="315,245 290,270 315,295 340,270 " style="fill: rgb(248,246,179); fill-opacity: 1; stroke: white; stroke-opacity: 1; stroke-width: 1" />
	<polygon points="340,270 315,295 340,320 365,295 " style="fill: rgb(254,253,244); fill-opacity: 1; stroke: white; stroke-opacity: 1; stroke-width: 1" />
	<polygon points="365,295 340,320 365,345 390,320 " style="fill: rgb(250,249,204); fill-opacity: 1; stroke: white; stroke-opacity: 1; stroke-width: 1" />
	<polygon points="390,320 365,345 390,370 415,345 " style="fill: rgb(250,249,204); fill-opacity: 1; stroke: white; stroke-opacity: 1; stroke-width: 1" />
	<polygon points="415,345 390,370 415,395 440,370 " style="fill: rgb(251,250,211); fill-opacity: 1; stroke: white; stroke-opacity: 1; stroke-width: 1" />
	<polygon points="440,370 415,395 440,420 465,395 " style="fill: rgb(251,249,208); fill-opacity: 1; stroke: white; stroke-opacity: 1; stroke-width: 1" />
	<line stroke="green" stroke-width="1" x1="473.899588667685" x2="265" y1="121" y2="145" />
	<line stroke="grey" stroke-width="1" x1="473.899588667685" x2="473.899588667685" y1="95" y2="121" />
	<polygon points="315,195 290,220 315,245 340,220 " style="fill: rgb(242,237,100); fill-opacity: 1; stroke: white; stroke-opacity: 1; stroke-width: 1" />
	<polygon points="340,220 315,245 340,270 365,245 " style="fill: rgb(251,250,211); fill-opacity: 1; stroke: white; stroke-opacity: 1; stroke-width: 1" />
	<polygon points="365,245 340,270 365,295 390,270 " style="fill: rgb(249,248,193); fill-opacity: 1; stroke: white; stroke-opacity: 1; stroke-width: 1" />
	<polygon points="390,270 365,295 390,320 415,295 " style="fill: rgb(249,247,186); fill-opacity: 1; stroke: white; stroke-opacity: 1; stroke-width: 1" />
	<polygon points="415,295 390,320 415,345 440,320 " style="fill: rgb(249,247,186); fill-opacity: 1; stroke: white; stroke-opacity: 1; stroke-width: 1" />
	<polygon points="440,320 415,345 440,370 465,345 " style="fill: rgb(252,251,222); fill-opacity: 1; stroke: white; stroke-opacity: 1; stroke-width: 1" />
	<polygon points="465,345 440,370 465,395 490,370 " style="fill: rgb(251,250,211); fill-opacity: 1; stroke: white; stroke-opacity: 1; stroke-width: 1" />
	<line stroke="green" stroke-width="1" x1="485.283085726306" x2="315" y1="121" y2="145" />
	<line stroke="grey" stroke-width="1" x1="485.283085726306" x2="485.283085726306" y1="95" y2="121" />
	<polygon points="340,170 315,195 340,220 365,195 " style="fill: rgb(246,243,147); fill-opacity: 1; stroke: white; stroke-opacity: 1; stroke-width: 1" />
	<polygon points="365,195 340,220 365,245 390,220 " style="fill: rgb(249,248,193); fill-opacity: 1; stroke: white; stroke-opacity: 1; stroke-width: 1" />
	<polygon points="390,220 365,245 390,270 415,245 " style="fill: rgb(249,248,193); fill-opacity: 1; stroke: white; stroke-opacity: 1; stroke-width: 1" />
	<polygon points="415,245 390,270 415,295 440,270 " style="fill: rgb(250,248,197); fill-opacity: 1; stroke: white; stroke-opacity: 1; stroke-width: 1" />
	<polygon points="440,270 415,295 440,320 465,295 " style="fill: rgb(250,248,197); fill-opacity: 1; stroke: white; stroke-opacity: 1; stroke-width: 1" />
	<polygon points="465,295 440,320 465,345 490,320 " style="fill: rgb(246,243,154); fill-opacity: 1; stroke: white; stroke-opacity: 1; stroke-width: 1" />
	<polygon points="490,320 465,345 490,370 515,345 " style="fill: rgb(249,247,190); fill-opacity: 1; stroke: white; stroke-opacity: 1; stroke-width: 1" />
	<line stroke="green" stroke-width="1" x1="485.283093698171" x2="365" y1="121" y2="145" />
	<line stroke="grey" stroke-width="1" x1="485.283093698171" x2="485.283093698171" y1="95" y2="121" />
	<polygon points="390,170 365,195 390,220 415,195 " style="fill: rgb(242,238,103); fill-opacity: 1; stroke: white; stroke-opacity: 1; stroke-width: 1" />
	<polygon points="415,195 390,220 415,245 440,220 " style="fill: rgb(247,244,161); fill-opacity: 1; stroke: white; stroke-opacity: 1; stroke-width: 1" />
	<polygon points="440,220 415,245 440,270 465,245 " style="fill: rgb(245,241,136); fill-opacity: 1; stroke: white; stroke-opacity: 1; stroke-width: 1" />
	<polygon points="465,245 440,270 465,295 490,270 " style="fill: rgb(245,241,136); fill-opacity: 1; stroke: white; stroke-opacity: 1; stroke-width: 1" />
	<polygon points="490,270 465,295 490,320 515,295 " style="fill: rgb(251,250,215); fill-opacity: 1; stroke: white; stroke-opacity: 1; stroke-width: 1" />
	<polygon points="515,295 490,320 515,345 540,320 " style="fill: rgb(251,250,215); fill-opacity: 1; stroke: white; stroke-opacity: 1; stroke-width: 1" />
	<line stroke="green" stroke-width="1" x1="652.579195833287" x2="415" y1="121" y2="145" />
	<line stroke="grey" stroke-width="1" x1="652.579195833287" x2="652.579195833287" y1="95" y2="121" />
	<polygon points="440,170 415,195 440,220 465,195 " style="fill: rgb(253,23,7); fill-opacity: 1; stroke: white; stroke-opacity: 1; stroke-width: 1" />
	<polygon points="465,195 440,220 465,245 490,220 " style="fill: rgb(252,37,12); fill-opacity: 1; stroke: white; stroke-opacity: 1; stroke-width: 1" />
	<polygon points="490,220 465,245 490,270 515,245 " style="fill: rgb(252,37,12); fill-opacity: 1; stroke: white; stroke-opacity: 1; stroke-width: 1" />
	<polygon points="515,245 490,270 515,295 540,270 " style="fill: rgb(245,241,136); fill-opacity: 1; stroke: white; stroke-opacity: 1; stroke-width: 1" />
	<polygon points="540,270 515,295 540,320 565,295 " style="fill: rgb(246,243,147); fill-opacity: 1; stroke: white; stroke-opacity: 1; stroke-width: 1" />
	<line stroke="green" stroke-width="1" x1="652.579235692614" x2="465" y1="121" y2="145" />
	<line stroke="grey" stroke-width="1" x1="652.579235692614" x2="652.579235692614" y1="95" y2="121" />
	<polygon points="490,170 465,195 490,220 515,195 " style="fill: rgb(250,65,21); fill-opacity: 1; stroke: white; stroke-opacity: 1; stroke-width: 1" />
	<polygon points="515,195 490,220 515,245 540,220 " style="fill: rgb(250,65,21); fill-opacity: 1; stroke: white; stroke-opacity: 1; stroke-width: 1" />
	<polygon points="540,220 515,245 540,270 565,245 " style="fill: rgb(252,252,229); fill-opacity: 1; stroke: white; stroke-opacity: 1; stroke-width: 1" />
	<polygon points="565,245 540,270 565,295 590,270 " style="fill: rgb(242,238,107); fill-opacity: 1; stroke: white; stroke-opacity: 1; stroke-width: 1" />
	<line stroke="green" stroke-width="1" x1="652.57950673604" x2="515" y1="121" y2="145" />
	<line stroke="grey" stroke-width="1" x1="652.57950673604" x2="652.57950673604" y1="95" y2="121" />
	<polygon points="540,170 515,195 540,220 565,195 " style="fill: rgb(255,0,0); fill-opacity: 1; stroke: white; stroke-opacity: 1; stroke-width: 1" />
	<polygon points="565,195 540,220 565,245 590,220 " style="fill: rgb(244,241,132); fill-opacity: 1; stroke: white; stroke-opacity: 1; stroke-width: 1" />
	<polygon points="590,220 565,245 590,270 615,245 " style="fill: rgb(246,243,147); fill-opacity: 1; stroke: white; stroke-opacity: 1; stroke-width: 1" />
	<line stroke="green" stroke-width="1" x1="652.579514707906" x2="565" y1="121" y2="145" />
	<line stroke="grey" stroke-width="1" x1="652.579514707906" x2="652.579514707906" y1="95" y2="121" />
	<polygon points="590,170 565,195 590,220 615,195 " style="fill: rgb(244,241,132); fill-opacity: 1; stroke: white; stroke-opacity: 1; stroke-width: 1" />
	<polygon points="615,195 590,220 615,245 640,220 " style="fill: rgb(246,243,147); fill-opacity: 1; stroke: white; stroke-opacity: 1; stroke-width: 1" />
	<line stroke="green" stroke-width="1" x1="659.496271903963" x2="615" y1="121" y2="145" />
	<line stroke="grey" stroke-width="1" x1="659.496271903963" x2="659.496271903963" y1="95" y2="121" />
	<polygon points="640,170 615,195 640,220 665,195 " style="fill: rgb(246,244,157); fill-opacity: 1; stroke: white; stroke-opacity: 1; stroke-width: 1" />
	<line stroke="green" stroke-width="1" x1="665" x2="665" y1="121" y2="145" />
	<line stroke="grey" stroke-width="1" x1="665" x2="665" y1="95" y2="121" />
	<polygon points="315,195 315,195 315,195 " style="fill: none; fill-opacity: 1; stroke: black; stroke-opacity: 1; stroke-width: 1" />
	<line stroke="rgb(231,138,195)" stroke-width="1" x1="485.283069782575" x2="485.283069782575" y1="95" y2="121" />
	<line stroke="rgb(231,138,195)" stroke-width="1" x1="485.283085726306" x2="485.283085726306" y1="95" y2="121" />
	<polygon points="515,195 540,220 565,195 " style="fill: none; fill-opacity: 1; stroke: black; stroke-opacity: 1; stroke-width: 1" />
	<line stroke="rgb(231,138,195)" stroke-width="1" x1="652.57950673604" x2="652.57950673604" y1="95" y2="121" />
	<line stroke="rgb(231,138,195)" stroke-width="1" x1="652.579514707906" x2="652.579514707906" y1="95" y2="121" />
	<!-- 
	Generated using the Perl SVG Module V2.78
	by Ronan Oger
	Info: http://www.roitsystems.com/
 -->
</svg>