<?xml version="1.0" encoding="UTF-8" standalone="yes"?>
<!DOCTYPE svg PUBLIC "-//W3C//DTD SVG 1.0//EN" "http://www.w3.org/TR/2001/REC-SVG-20010904/DTD/svg10.dtd">
<svg height="467.5" width="632.5" xmlns="http://www.w3.org/2000/svg" xmlns:svg="http://www.w3.org/2000/svg" xmlns:xlink="http://www.w3.org/1999/xlink">
	<polygon points="421.666666666667,426.25 421.666666666667,440 606.833333333333,440 606.833333333333,426.25 " style="fill: none; fill-opacity: 1; stroke: black; stroke-opacity: 1; stroke-width: 1.25" />
	<text font-family="Arial" font-size="13.75" text-anchor="middle" x="421" y="453.75">0.0</text>
	<text font-family="Arial" font-size="13.75" text-anchor="middle" x="605" y="453.75">1.0</text>
	<polygon points="55,65 55,87 555,87 555,65 " style="fill: #a6cee3; fill-opacity: 1; stroke: black; stroke-opacity: 1; stroke-width: 0" />
	<text font-family="Arial" font-size="10" text-anchor="middle" x="305" y="55">NC_000022.11 Region:21.66 (Mb)</text>
	<text font-family="Arial" font-size="10" text-anchor="middle" x="555" y="55">End:41.643 (Mb)</text>
	<text font-family="Arial" font-size="10" text-anchor="middle" x="55" y="55">Start:19.980 </text>
	<text font-family="Arial" font-size="13.75" text-anchor="middle" x="513" y="412.5">R^2 Color Key</text>
	<polygon points="421.666666666667,426.25 421.666666666667,440 423.5,440 423.5,426.25 " style="fill: rgb(255,255,255); fill-opacity: 1; stroke: black; stroke-opacity: 1; stroke-width: 0" />
	<polygon points="423.5,426.25 423.5,440 425.333333333333,440 425.333333333333,426.25 " style="fill: rgb(254,254,251); fill-opacity: 1; stroke: black; stroke-opacity: 1; stroke-width: 0" />
	<polygon points="425.333333333333,426.25 425.333333333333,440 427.166666666667,440 427.166666666667,426.25 " style="fill: rgb(254,254,247); fill-opacity: 1; stroke: black; stroke-opacity: 1; stroke-width: 0" />
	<polygon points="427.166666666667,426.25 427.166666666667,440 429,440 429,426.25 " style="fill: rgb(254,253,244); fill-opacity: 1; stroke: black; stroke-opacity: 1; stroke-width: 0" />
	<polygon points="429,426.25 429,440 430.833333333333,440 430.833333333333,426.25 " style="fill: rgb(253,253,240); fill-opacity: 1; stroke: black; stroke-opacity: 1; stroke-width: 0" />
	<polygon points="430.833333333333,426.25 430.833333333333,440 432.666666666667,440 432.666666666667,426.25 " style="fill: rgb(253,253,237); fill-opacity: 1; stroke: black; stroke-opacity: 1; stroke-width: 0" />
	<polygon points="432.666666666667,426.25 432.666666666667,440 434.5,440 434.5,426.25 " style="fill: rgb(253,252,233); fill-opacity: 1; stroke: black; stroke-opacity: 1; stroke-width: 0" />
	<polygon points="434.5,426.25 434.5,440 436.333333333333,440 436.333333333333,426.25 " style="fill: rgb(252,252,229); fill-opacity: 1; stroke: black; stroke-opacity: 1; stroke-width: 0" />
	<polygon points="436.333333333333,426.25 436.333333333333,440 438.166666666667,440 438.166666666667,426.25 " style="fill: rgb(252,251,226); fill-opacity: 1; stroke: black; stroke-opacity: 1; stroke-width: 0" />
	<polygon points="438.166666666667,426.25 438.166666666667,440 440,440 440,426.25 " style="fill: rgb(252,251,222); fill-opacity: 1; stroke: black; stroke-opacity: 1; stroke-width: 0" />
	<polygon points="440,426.25 440,440 441.833333333333,440 441.833333333333,426.25 " style="fill: rgb(252,251,219); fill-opacity: 1; stroke: black; stroke-opacity: 1; stroke-width: 0" />
	<polygon points="441.833333333333,426.25 441.833333333333,440 443.666666666667,440 443.666666666667,426.25 " style="fill: rgb(251,250,215); fill-opacity: 1; stroke: black; stroke-opacity: 1; stroke-width: 0" />
	<polygon points="443.666666666667,426.25 443.666666666667,440 445.5,440 445.5,426.25 " style="fill: rgb(251,250,211); fill-opacity: 1; stroke: black; stroke-opacity: 1; stroke-width: 0" />
	<polygon points="445.5,426.25 445.5,440 447.333333333333,440 447.333333333333,426.25 " style="fill: rgb(251,249,208); fill-opacity: 1; stroke: black; stroke-opacity: 1; stroke-width: 0" />
	<polygon points="447.333333333333,426.25 447.333333333333,440 449.166666666667,440 449.166666666667,426.25 " style="fill: rgb(250,249,204); fill-opacity: 1; stroke: black; stroke-opacity: 1; stroke-width: 0" />
	<polygon points="449.166666666667,426.25 449.166666666667,440 451,440 451,426.25 " style="fill: rgb(250,249,201); fill-opacity: 1; stroke: black; stroke-opacity: 1; stroke-width: 0" />
	<polygon points="451,426.25 451,440 452.833333333333,440 452.833333333333,426.25 " style="fill: rgb(250,248,197); fill-opacity: 1; stroke: black; stroke-opacity: 1; stroke-width: 0" />
	<polygon points="452.833333333333,426.25 452.833333333333,440 454.666666666667,440 454.666666666667,426.25 " style="fill: rgb(249,248,193); fill-opacity: 1; stroke: black; stroke-opacity: 1; stroke-width: 0" />
	<polygon points="454.666666666667,426.25 454.666666666667,440 456.5,440 456.5,426.25 " style="fill: rgb(249,247,190); fill-opacity: 1; stroke: black; stroke-opacity: 1; stroke-width: 0" />
	<polygon points="456.5,426.25 456.5,440 458.333333333333,440 458.333333333333,426.25 " style="fill: rgb(249,247,186); fill-opacity: 1; stroke: black; stroke-opacity: 1; stroke-width: 0" />
	<polygon points="458.333333333333,426.25 458.333333333333,440 460.166666666667,440 460.166666666667,426.25 " style="fill: rgb(249,247,183); fill-opacity: 1; stroke: black; stroke-opacity: 1; stroke-width: 0" />
	<polygon points="460.166666666667,426.25 460.166666666667,440 462,440 462,426.25 " style="fill: rgb(248,246,179); fill-opacity: 1; stroke: black; stroke-opacity: 1; stroke-width: 0" />
	<polygon points="462,426.25 462,440 463.833333333333,440 463.833333333333,426.25 " style="fill: rgb(248,246,175); fill-opacity: 1; stroke: black; stroke-opacity: 1; stroke-width: 0" />
	<polygon points="463.833333333333,426.25 463.833333333333,440 465.666666666667,440 465.666666666667,426.25 " style="fill: rgb(248,245,172); fill-opacity: 1; stroke: black; stroke-opacity: 1; stroke-width: 0" />
	<polygon points="465.666666666667,426.25 465.666666666667,440 467.5,440 467.5,426.25 " style="fill: rgb(247,245,168); fill-opacity: 1; stroke: black; stroke-opacity: 1; stroke-width: 0" />
	<polygon points="467.5,426.25 467.5,440 469.333333333333,440 469.333333333333,426.25 " style="fill: rgb(247,245,165); fill-opacity: 1; stroke: black; stroke-opacity: 1; stroke-width: 0" />
	<polygon points="469.333333333333,426.25 469.333333333333,440 471.166666666667,440 471.166666666667,426.25 " style="fill: rgb(247,244,161); fill-opacity: 1; stroke: black; stroke-opacity: 1; stroke-width: 0" />
	<polygon points="471.166666666667,426.25 471.166666666667,440 473,440 473,426.25 " style="fill: rgb(246,244,157); fill-opacity: 1; stroke: black; stroke-opacity: 1; stroke-width: 0" />
	<polygon points="473,426.25 473,440 474.833333333333,440 474.833333333333,426.25 " style="fill: rgb(246,243,154); fill-opacity: 1; stroke: black; stroke-opacity: 1; stroke-width: 0" />
	<polygon points="474.833333333333,426.25 474.833333333333,440 476.666666666667,440 476.666666666667,426.25 " style="fill: rgb(246,243,150); fill-opacity: 1; stroke: black; stroke-opacity: 1; stroke-width: 0" />
	<polygon points="476.666666666667,426.25 476.666666666667,440 478.5,440 478.5,426.25 " style="fill: rgb(246,243,147); fill-opacity: 1; stroke: black; stroke-opacity: 1; stroke-width: 0" />
	<polygon points="478.5,426.25 478.5,440 480.333333333333,440 480.333333333333,426.25 " style="fill: rgb(245,242,143); fill-opacity: 1; stroke: black; stroke-opacity: 1; stroke-width: 0" />
	<polygon points="480.333333333333,426.25 480.333333333333,440 482.166666666667,440 482.166666666667,426.25 " style="fill: rgb(245,242,139); fill-opacity: 1; stroke: black; stroke-opacity: 1; stroke-width: 0" />
	<polygon points="482.166666666667,426.25 482.166666666667,440 484,440 484,426.25 " style="fill: rgb(245,241,136); fill-opacity: 1; stroke: black; stroke-opacity: 1; stroke-width: 0" />
	<polygon points="484,426.25 484,440 485.833333333333,440 485.833333333333,426.25 " style="fill: rgb(244,241,132); fill-opacity: 1; stroke: black; stroke-opacity: 1; stroke-width: 0" />
	<polygon points="485.833333333333,426.25 485.833333333333,440 487.666666666667,440 487.666666666667,426.25 " style="fill: rgb(244,241,129); fill-opacity: 1; stroke: black; stroke-opacity: 1; stroke-width: 0" />
	<polygon points="487.666666666667,426.25 487.666666666667,440 489.5,440 489.5,426.25 " style="fill: rgb(244,240,125); fill-opacity: 1; stroke: black; stroke-opacity: 1; stroke-width: 0" />
	<polygon points="489.5,426.25 489.5,440 491.333333333333,440 491.333333333333,426.25 " style="fill: rgb(243,240,121); fill-opacity: 1; stroke: black; stroke-opacity: 1; stroke-width: 0" />
	<polygon points="491.333333333333,426.25 491.333333333333,440 493.166666666667,440 493.166666666667,426.25 " style="fill: rgb(243,239,118); fill-opacity: 1; stroke: black; stroke-opacity: 1; stroke-width: 0" />
	<polygon points="493.166666666667,426.25 493.166666666667,440 495,440 495,426.25 " style="fill: rgb(243,239,114); fill-opacity: 1; stroke: black; stroke-opacity: 1; stroke-width: 0" />
	<polygon points="495,426.25 495,440 496.833333333333,440 496.833333333333,426.25 " style="fill: rgb(243,239,111); fill-opacity: 1; stroke: black; stroke-opacity: 1; stroke-width: 0" />
	<polygon points="496.833333333333,426.25 496.833333333333,440 498.666666666667,440 498.666666666667,426.25 " style="fill: rgb(242,238,107); fill-opacity: 1; stroke: black; stroke-opacity: 1; stroke-width: 0" />
	<polygon points="498.666666666667,426.25 498.666666666667,440 500.5,440 500.5,426.25 " style="fill: rgb(242,238,103); fill-opacity: 1; stroke: black; stroke-opacity: 1; stroke-width: 0" />
	<polygon points="500.5,426.25 500.5,440 502.333333333333,440 502.333333333333,426.25 " style="fill: rgb(242,237,100); fill-opacity: 1; stroke: black; stroke-opacity: 1; stroke-width: 0" />
	<polygon points="502.333333333333,426.25 502.333333333333,440 504.166666666667,440 504.166666666667,426.25 " style="fill: rgb(241,237,96); fill-opacity: 1; stroke: black; stroke-opacity: 1; stroke-width: 0" />
	<polygon points="504.166666666667,426.25 504.166666666667,440 506,440 506,426.25 " style="fill: rgb(241,237,93); fill-opacity: 1; stroke: black; stroke-opacity: 1; stroke-width: 0" />
	<polygon points="506,426.25 506,440 507.833333333333,440 507.833333333333,426.25 " style="fill: rgb(241,236,89); fill-opacity: 1; stroke: black; stroke-opacity: 1; stroke-width: 0" />
	<polygon points="507.833333333333,426.25 507.833333333333,440 509.666666666667,440 509.666666666667,426.25 " style="fill: rgb(240,236,85); fill-opacity: 1; stroke: black; stroke-opacity: 1; stroke-width: 0" />
	<polygon points="509.666666666667,426.25 509.666666666667,440 511.5,440 511.5,426.25 " style="fill: rgb(240,235,82); fill-opacity: 1; stroke: black; stroke-opacity: 1; stroke-width: 0" />
	<polygon points="511.5,426.25 511.5,440 513.333333333333,440 513.333333333333,426.25 " style="fill: rgb(240,235,78); fill-opacity: 1; stroke: black; stroke-opacity: 1; stroke-width: 0" />
	<polygon points="513.333333333333,426.25 513.333333333333,440 515.166666666667,440 515.166666666667,426.25 " style="fill: rgb(240,235,75); fill-opacity: 1; stroke: black; stroke-opacity: 1; stroke-width: 0" />
	<polygon points="515.166666666667,426.25 515.166666666667,440 517,440 517,426.25 " style="fill: rgb(240,230,73); fill-opacity: 1; stroke: black; stroke-opacity: 1; stroke-width: 0" />
	<polygon points="517,426.25 517,440 518.833333333333,440 518.833333333333,426.25 " style="fill: rgb(240,225,72); fill-opacity: 1; stroke: black; stroke-opacity: 1; stroke-width: 0" />
	<polygon points="518.833333333333,426.25 518.833333333333,440 520.666666666667,440 520.666666666667,426.25 " style="fill: rgb(240,220,70); fill-opacity: 1; stroke: black; stroke-opacity: 1; stroke-width: 0" />
	<polygon points="520.666666666667,426.25 520.666666666667,440 522.5,440 522.5,426.25 " style="fill: rgb(241,216,69); fill-opacity: 1; stroke: black; stroke-opacity: 1; stroke-width: 0" />
	<polygon points="522.5,426.25 522.5,440 524.333333333333,440 524.333333333333,426.25 " style="fill: rgb(241,211,67); fill-opacity: 1; stroke: black; stroke-opacity: 1; stroke-width: 0" />
	<polygon points="524.333333333333,426.25 524.333333333333,440 526.166666666667,440 526.166666666667,426.25 " style="fill: rgb(241,206,66); fill-opacity: 1; stroke: black; stroke-opacity: 1; stroke-width: 0" />
	<polygon points="526.166666666667,426.25 526.166666666667,440 528,440 528,426.25 " style="fill: rgb(242,202,64); fill-opacity: 1; stroke: black; stroke-opacity: 1; stroke-width: 0" />
	<polygon points="528,426.25 528,440 529.833333333333,440 529.833333333333,426.25 " style="fill: rgb(242,197,63); fill-opacity: 1; stroke: black; stroke-opacity: 1; stroke-width: 0" />
	<polygon points="529.833333333333,426.25 529.833333333333,440 531.666666666667,440 531.666666666667,426.25 " style="fill: rgb(242,192,61); fill-opacity: 1; stroke: black; stroke-opacity: 1; stroke-width: 0" />
	<polygon points="531.666666666667,426.25 531.666666666667,440 533.5,440 533.5,426.25 " style="fill: rgb(243,188,60); fill-opacity: 1; stroke: black; stroke-opacity: 1; stroke-width: 0" />
	<polygon points="533.5,426.25 533.5,440 535.333333333333,440 535.333333333333,426.25 " style="fill: rgb(243,183,58); fill-opacity: 1; stroke: black; stroke-opacity: 1; stroke-width: 0" />
	<polygon points="535.333333333333,426.25 535.333333333333,440 537.166666666667,440 537.166666666667,426.25 " style="fill: rgb(243,178,57); fill-opacity: 1; stroke: black; stroke-opacity: 1; stroke-width: 0" />
	<polygon points="537.166666666667,426.25 537.166666666667,440 539,440 539,426.25 " style="fill: rgb(243,173,55); fill-opacity: 1; stroke: black; stroke-opacity: 1; stroke-width: 0" />
	<polygon points="539,426.25 539,440 540.833333333333,440 540.833333333333,426.25 " style="fill: rgb(244,169,54); fill-opacity: 1; stroke: black; stroke-opacity: 1; stroke-width: 0" />
	<polygon points="540.833333333333,426.25 540.833333333333,440 542.666666666667,440 542.666666666667,426.25 " style="fill: rgb(244,164,52); fill-opacity: 1; stroke: black; stroke-opacity: 1; stroke-width: 0" />
	<polygon points="542.666666666667,426.25 542.666666666667,440 544.5,440 544.5,426.25 " style="fill: rgb(244,159,51); fill-opacity: 1; stroke: black; stroke-opacity: 1; stroke-width: 0" />
	<polygon points="544.5,426.25 544.5,440 546.333333333333,440 546.333333333333,426.25 " style="fill: rgb(245,155,49); fill-opacity: 1; stroke: black; stroke-opacity: 1; stroke-width: 0" />
	<polygon points="546.333333333333,426.25 546.333333333333,440 548.166666666667,440 548.166666666667,426.25 " style="fill: rgb(245,150,48); fill-opacity: 1; stroke: black; stroke-opacity: 1; stroke-width: 0" />
	<polygon points="548.166666666667,426.25 548.166666666667,440 550,440 550,426.25 " style="fill: rgb(245,145,46); fill-opacity: 1; stroke: black; stroke-opacity: 1; stroke-width: 0" />
	<polygon points="550,426.25 550,440 551.833333333333,440 551.833333333333,426.25 " style="fill: rgb(246,141,45); fill-opacity: 1; stroke: black; stroke-opacity: 1; stroke-width: 0" />
	<polygon points="551.833333333333,426.25 551.833333333333,440 553.666666666667,440 553.666666666667,426.25 " style="fill: rgb(246,136,43); fill-opacity: 1; stroke: black; stroke-opacity: 1; stroke-width: 0" />
	<polygon points="553.666666666667,426.25 553.666666666667,440 555.5,440 555.5,426.25 " style="fill: rgb(246,131,42); fill-opacity: 1; stroke: black; stroke-opacity: 1; stroke-width: 0" />
	<polygon points="555.5,426.25 555.5,440 557.333333333333,440 557.333333333333,426.25 " style="fill: rgb(246,126,40); fill-opacity: 1; stroke: black; stroke-opacity: 1; stroke-width: 0" />
	<polygon points="557.333333333333,426.25 557.333333333333,440 559.166666666667,440 559.166666666667,426.25 " style="fill: rgb(247,122,39); fill-opacity: 1; stroke: black; stroke-opacity: 1; stroke-width: 0" />
	<polygon points="559.166666666667,426.25 559.166666666667,440 561,440 561,426.25 " style="fill: rgb(247,117,37); fill-opacity: 1; stroke: black; stroke-opacity: 1; stroke-width: 0" />
	<polygon points="561,426.25 561,440 562.833333333333,440 562.833333333333,426.25 " style="fill: rgb(247,112,36); fill-opacity: 1; stroke: black; stroke-opacity: 1; stroke-width: 0" />
	<polygon points="562.833333333333,426.25 562.833333333333,440 564.666666666667,440 564.666666666667,426.25 " style="fill: rgb(248,108,34); fill-opacity: 1; stroke: black; stroke-opacity: 1; stroke-width: 0" />
	<polygon points="564.666666666667,426.25 564.666666666667,440 566.5,440 566.5,426.25 " style="fill: rgb(248,103,33); fill-opacity: 1; stroke: black; stroke-opacity: 1; stroke-width: 0" />
	<polygon points="566.5,426.25 566.5,440 568.333333333333,440 568.333333333333,426.25 " style="fill: rgb(248,98,31); fill-opacity: 1; stroke: black; stroke-opacity: 1; stroke-width: 0" />
	<polygon points="568.333333333333,426.25 568.333333333333,440 570.166666666667,440 570.166666666667,426.25 " style="fill: rgb(249,94,30); fill-opacity: 1; stroke: black; stroke-opacity: 1; stroke-width: 0" />
	<polygon points="570.166666666667,426.25 570.166666666667,440 572,440 572,426.25 " style="fill: rgb(249,89,28); fill-opacity: 1; stroke: black; stroke-opacity: 1; stroke-width: 0" />
	<polygon points="572,426.25 572,440 573.833333333333,440 573.833333333333,426.25 " style="fill: rgb(249,84,27); fill-opacity: 1; stroke: black; stroke-opacity: 1; stroke-width: 0" />
	<polygon points="573.833333333333,426.25 573.833333333333,440 575.666666666667,440 575.666666666667,426.25 " style="fill: rgb(249,79,25); fill-opacity: 1; stroke: black; stroke-opacity: 1; stroke-width: 0" />
	<polygon points="575.666666666667,426.25 575.666666666667,440 577.5,440 577.5,426.25 " style="fill: rgb(250,75,24); fill-opacity: 1; stroke: black; stroke-opacity: 1; stroke-width: 0" />
	<polygon points="577.5,426.25 577.5,440 579.333333333333,440 579.333333333333,426.25 " style="fill: rgb(250,70,22); fill-opacity: 1; stroke: black; stroke-opacity: 1; stroke-width: 0" />
	<polygon points="579.333333333333,426.25 579.333333333333,440 581.166666666667,440 581.166666666667,426.25 " style="fill: rgb(250,65,21); fill-opacity: 1; stroke: black; stroke-opacity: 1; stroke-width: 0" />
	<polygon points="581.166666666667,426.25 581.166666666667,440 583,440 583,426.25 " style="fill: rgb(251,61,19); fill-opacity: 1; stroke: black; stroke-opacity: 1; stroke-width: 0" />
	<polygon points="583,426.25 583,440 584.833333333333,440 584.833333333333,426.25 " style="fill: rgb(251,56,18); fill-opacity: 1; stroke: black; stroke-opacity: 1; stroke-width: 0" />
	<polygon points="584.833333333333,426.25 584.833333333333,440 586.666666666667,440 586.666666666667,426.25 " style="fill: rgb(251,51,16); fill-opacity: 1; stroke: black; stroke-opacity: 1; stroke-width: 0" />
	<polygon points="586.666666666667,426.25 586.666666666667,440 588.5,440 588.5,426.25 " style="fill: rgb(252,47,15); fill-opacity: 1; stroke: black; stroke-opacity: 1; stroke-width: 0" />
	<polygon points="588.5,426.25 588.5,440 590.333333333333,440 590.333333333333,426.25 " style="fill: rgb(252,42,13); fill-opacity: 1; stroke: black; stroke-opacity: 1; stroke-width: 0" />
	<polygon points="590.333333333333,426.25 590.333333333333,440 592.166666666667,440 592.166666666667,426.25 " style="fill: rgb(252,37,12); fill-opacity: 1; stroke: black; stroke-opacity: 1; stroke-width: 0" />
	<polygon points="592.166666666667,426.25 592.166666666667,440 594,440 594,426.25 " style="fill: rgb(252,32,10); fill-opacity: 1; stroke: black; stroke-opacity: 1; stroke-width: 0" />
	<polygon points="594,426.25 594,440 595.833333333333,440 595.833333333333,426.25 " style="fill: rgb(253,28,9); fill-opacity: 1; stroke: black; stroke-opacity: 1; stroke-width: 0" />
	<polygon points="595.833333333333,426.25 595.833333333333,440 597.666666666667,440 597.666666666667,426.25 " style="fill: rgb(253,23,7); fill-opacity: 1; stroke: black; stroke-opacity: 1; stroke-width: 0" />
	<polygon points="597.666666666667,426.25 597.666666666667,440 599.5,440 599.5,426.25 " style="fill: rgb(253,18,6); fill-opacity: 1; stroke: black; stroke-opacity: 1; stroke-width: 0" />
	<polygon points="599.5,426.25 599.5,440 601.333333333333,440 601.333333333333,426.25 " style="fill: rgb(254,14,4); fill-opacity: 1; stroke: black; stroke-opacity: 1; stroke-width: 0" />
	<polygon points="601.333333333333,426.25 601.333333333333,440 603.166666666667,440 603.166666666667,426.25 " style="fill: rgb(254,9,3); fill-opacity: 1; stroke: black; stroke-opacity: 1; stroke-width: 0" />
	<polygon points="603.166666666667,426.25 603.166666666667,440 605,440 605,426.25 " style="fill: rgb(254,4,1); fill-opacity: 1; stroke: black; stroke-opacity: 1; stroke-width: 0" />
	<polygon points="605,426.25 605,440 606.833333333333,440 606.833333333333,426.25 " style="fill: rgb(255,0,0); fill-opacity: 1; stroke: black; stroke-opacity: 1; stroke-width: 0" />
	<line stroke="green" stroke-width="1" x1="55" x2="55" y1="87" y2="115" />
	<line stroke="grey" stroke-width="1" x1="55" x2="55" y1="65" y2="87" />
	<polygon points="80,140 55,165 80,190 105,165 " style="fill: rgb(254,254,247); fill-opacity: 1; stroke: white; stroke-opacity: 1; stroke-width: 1" />
	<polygon points="105,165 80,190 105,215 130,190 " style="fill: rgb(254,254,251); fill-opacity: 1; stroke: white; stroke-opacity: 1; stroke-width: 1" />
	<polygon points="130,190 105,215 130,240 155,215 " style="fill: rgb(254,253,244); fill-opacity: 1; stroke: white; stroke-opacity: 1; stroke-width: 1" />
	<polygon points="155,215 130,240 155,265 180,240 " style="fill: rgb(254,253,244); fill-opacity: 1; stroke: white; stroke-opacity: 1; stroke-width: 1" />
	<polygon points="180,240 155,265 180,290 205,265 " style="fill: rgb(254,253,244); fill-opacity: 1; stroke: white; stroke-opacity: 1; stroke-width: 1" />
	<polygon points="205,265 180,290 205,315 230,290 " style="fill: rgb(254,254,251); fill-opacity: 1; stroke: white; stroke-opacity: 1; stroke-width: 1" />
	<polygon points="230,290 205,315 230,340 255,315 " style="fill: rgb(254,254,251); fill-opacity: 1; stroke: white; stroke-opacity: 1; stroke-width: 1" />
	<polygon points="255,315 230,340 255,365 280,340 " style="fill: rgb(254,253,244); fill-opacity: 1; stroke: white; stroke-opacity: 1; stroke-width: 1" />
	<polygon points="280,340 255,365 280,390 305,365 " style="fill: rgb(254,253,244); fill-opacity: 1; stroke: white; stroke-opacity: 1; stroke-width: 1" />
	<line stroke="green" stroke-width="1" x1="91.8689133258478" x2="105" y1="87" y2="115" />
	<line stroke="grey" stroke-width="1" x1="91.8689133258478" x2="91.8689133258478" y1="65" y2="87" />
	<polygon points="130,140 105,165 130,190 155,165 " style="fill: rgb(244,169,54); fill-opacity: 1; stroke: white; stroke-opacity: 1; stroke-width: 1" />
	<polygon points="155,165 130,190 155,215 180,190 " style="fill: rgb(254,254,251); fill-opacity: 1; stroke: white; stroke-opacity: 1; stroke-width: 1" />
	<polygon points="255,265 230,290 255,315 280,290 " style="fill: rgb(254,254,247); fill-opacity: 1; stroke: white; stroke-opacity: 1; stroke-width: 1" />
	<polygon points="280,290 255,315 280,340 305,315 " style="fill: rgb(254,254,251); fill-opacity: 1; stroke: white; stroke-opacity: 1; stroke-width: 1" />
	<polygon points="305,315 280,340 305,365 330,340 " style="fill: rgb(254,254,251); fill-opacity: 1; stroke: white; stroke-opacity: 1; stroke-width: 1" />
	<polygon points="330,340 305,365 330,390 355,365 " style="fill: rgb(254,253,244); fill-opacity: 1; stroke: white; stroke-opacity: 1; stroke-width: 1" />
	<line stroke="green" stroke-width="1" x1="91.8734373397986" x2="155" y1="87" y2="115" />
	<line stroke="grey" stroke-width="1" x1="91.8734373397986" x2="91.8734373397986" y1="65" y2="87" />
	<polygon points="280,240 255,265 280,290 305,265 " style="fill: rgb(254,254,251); fill-opacity: 1; stroke: white; stroke-opacity: 1; stroke-width: 1" />
	<polygon points="305,265 280,290 305,315 330,290 " style="fill: rgb(254,253,244); fill-opacity: 1; stroke: white; stroke-opacity: 1; stroke-width: 1" />
	<polygon points="330,290 305,315 330,340 355,315 " style="fill: rgb(254,253,244); fill-opacity: 1; stroke: white; stroke-opacity: 1; stroke-width: 1" />
	<polygon points="355,315 330,340 355,365 380,340 " style="fill: rgb(253,253,240); fill-opacity: 1; stroke: white; stroke-opacity: 1; stroke-width: 1" />
	<line stroke="green" stroke-width="1" x1="344.122160794627" x2="205" y1="87" y2="115" />
	<line stroke="grey" stroke-width="1" x1="344.122160794627" x2="344.122160794627" y1="65" y2="87" />
	<polygon points="230,140 205,165 230,190 255,165 " style="fill: rgb(246,136,43); fill-opacity: 1; stroke: white; stroke-opacity: 1; stroke-width: 1" />
	<polygon points="255,165 230,190 255,215 280,190 " style="fill: rgb(246,136,43); fill-opacity: 1; stroke: white; stroke-opacity: 1; stroke-width: 1" />
	<polygon points="280,190 255,215 280,240 305,215 " style="fill: rgb(254,254,251); fill-opacity: 1; stroke: white; stroke-opacity: 1; stroke-width: 1" />
	<polygon points="305,215 280,240 305,265 330,240 " style="fill: rgb(254,254,247); fill-opacity: 1; stroke: white; stroke-opacity: 1; stroke-width: 1" />
	<polygon points="330,240 305,265 330,290 355,265 " style="fill: rgb(254,254,251); fill-opacity: 1; stroke: white; stroke-opacity: 1; stroke-width: 1" />
	<polygon points="355,265 330,290 355,315 380,290 " style="fill: rgb(254,254,251); fill-opacity: 1; stroke: white; stroke-opacity: 1; stroke-width: 1" />
	<polygon points="380,290 355,315 380,340 405,315 " style="fill: rgb(254,253,244); fill-opacity: 1; stroke: white; stroke-opacity: 1; stroke-width: 1" />
	<line stroke="green" stroke-width="1" x1="344.123545696857" x2="255" y1="87" y2="115" />
	<line stroke="grey" stroke-width="1" x1="344.123545696857" x2="344.123545696857" y1="65" y2="87" />
	<polygon points="280,140 255,165 280,190 305,165 " style="fill: rgb(255,0,0); fill-opacity: 1; stroke: white; stroke-opacity: 1; stroke-width: 1" />
	<polygon points="305,165 280,190 305,215 330,190 " style="fill: rgb(254,254,251); fill-opacity: 1; stroke: white; stroke-opacity: 1; stroke-width: 1" />
	<polygon points="330,190 305,215 330,240 355,215 " style="fill: rgb(254,254,251); fill-opacity: 1; stroke: white; stroke-opacity: 1; stroke-width: 1" />
	<polygon points="380,240 355,265 380,290 405,265 " style="fill: rgb(254,254,251); fill-opacity: 1; stroke: white; stroke-opacity: 1; stroke-width: 1" />
	<polygon points="405,265 380,290 405,315 430,290 " style="fill: rgb(254,254,251); fill-opacity: 1; stroke: white; stroke-opacity: 1; stroke-width: 1" />
	<line stroke="green" stroke-width="1" x1="344.123961167526" x2="305" y1="87" y2="115" />
	<line stroke="grey" stroke-width="1" x1="344.123961167526" x2="344.123961167526" y1="65" y2="87" />
	<polygon points="330,140 305,165 330,190 355,165 " style="fill: rgb(254,254,251); fill-opacity: 1; stroke: white; stroke-opacity: 1; stroke-width: 1" />
	<polygon points="355,165 330,190 355,215 380,190 " style="fill: rgb(254,254,251); fill-opacity: 1; stroke: white; stroke-opacity: 1; stroke-width: 1" />
	<polygon points="405,215 380,240 405,265 430,240 " style="fill: rgb(254,254,251); fill-opacity: 1; stroke: white; stroke-opacity: 1; stroke-width: 1" />
	<polygon points="430,240 405,265 430,290 455,265 " style="fill: rgb(254,254,247); fill-opacity: 1; stroke: white; stroke-opacity: 1; stroke-width: 1" />
	<line stroke="green" stroke-width="1" x1="474.381332782819" x2="355" y1="87" y2="115" />
	<line stroke="grey" stroke-width="1" x1="474.381332782819" x2="474.381332782819" y1="65" y2="87" />
	<polygon points="380,140 355,165 380,190 405,165 " style="fill: rgb(252,251,226); fill-opacity: 1; stroke: white; stroke-opacity: 1; stroke-width: 1" />
	<polygon points="455,215 430,240 455,265 480,240 " style="fill: rgb(254,254,251); fill-opacity: 1; stroke: white; stroke-opacity: 1; stroke-width: 1" />
	<line stroke="green" stroke-width="1" x1="474.382509949715" x2="405" y1="87" y2="115" />
	<line stroke="grey" stroke-width="1" x1="474.382509949715" x2="474.382509949715" y1="65" y2="87" />
	<polygon points="430,140 405,165 430,190 455,165 " style="fill: rgb(247,245,165); fill-opacity: 1; stroke: white; stroke-opacity: 1; stroke-width: 1" />
	<polygon points="455,165 430,190 455,215 480,190 " style="fill: rgb(241,237,96); fill-opacity: 1; stroke: white; stroke-opacity: 1; stroke-width: 1" />
	<polygon points="480,190 455,215 480,240 505,215 " style="fill: rgb(254,254,251); fill-opacity: 1; stroke: white; stroke-opacity: 1; stroke-width: 1" />
	<line stroke="green" stroke-width="1" x1="474.384610384763" x2="455" y1="87" y2="115" />
	<line stroke="grey" stroke-width="1" x1="474.384610384763" x2="474.384610384763" y1="65" y2="87" />
	<polygon points="480,140 455,165 480,190 505,165 " style="fill: rgb(241,211,67); fill-opacity: 1; stroke: white; stroke-opacity: 1; stroke-width: 1" />
	<polygon points="505,165 480,190 505,215 530,190 " style="fill: rgb(254,254,251); fill-opacity: 1; stroke: white; stroke-opacity: 1; stroke-width: 1" />
	<line stroke="green" stroke-width="1" x1="474.386572329589" x2="505" y1="87" y2="115" />
	<line stroke="grey" stroke-width="1" x1="474.386572329589" x2="474.386572329589" y1="65" y2="87" />
	<polygon points="530,140 505,165 530,190 555,165 " style="fill: rgb(254,254,251); fill-opacity: 1; stroke: white; stroke-opacity: 1; stroke-width: 1" />
	<line stroke="green" stroke-width="1" x1="555" x2="555" y1="87" y2="115" />
	<line stroke="grey" stroke-width="1" x1="555" x2="555" y1="65" y2="87" />
	<!-- 
	Generated using the Perl SVG Module V2.78
	by Ronan Oger
	Info: http://www.roitsystems.com/
 -->
</svg>