<?xml version="1.0" encoding="UTF-8" standalone="yes"?>
<!DOCTYPE svg PUBLIC "-//W3C//DTD SVG 1.0//EN" "http://www.w3.org/TR/2001/REC-SVG-20010904/DTD/svg10.dtd">
<svg height="765" width="1035" xmlns="http://www.w3.org/2000/svg" xmlns:svg="http://www.w3.org/2000/svg" xmlns:xlink="http://www.w3.org/1999/xlink">
	<polygon points="690,697.5 690,720 993,720 993,697.5 " style="fill: none; fill-opacity: 1; stroke: black; stroke-opacity: 1; stroke-width: 1.40625" />
	<text font-family="Arial" font-size="22.5" text-anchor="middle" x="690" y="742.5">0.0</text>
	<text font-family="Arial" font-size="22.5" text-anchor="middle" x="990" y="742.5">1.0</text>
	<polygon points="90,157.5 90,193.5 940,193.5 940,157.5 " style="fill: #a6cee3; fill-opacity: 1; stroke: black; stroke-opacity: 1; stroke-width: 0" />
	<text font-family="Arial" font-size="11.25" text-anchor="middle" x="515" y="146.25">NC_000016.10 Region:55.74 (Mb)</text>
	<text font-family="Arial" font-size="11.25" text-anchor="middle" x="940" y="146.25">End:86.652 (Mb)</text>
	<text font-family="Arial" font-size="11.25" text-anchor="middle" x="90" y="146.25">Start:30.907 </text>
	<text font-family="Arial" font-size="22.5" text-anchor="middle" x="840" y="675">R^2 Color Key</text>
	<polygon points="690,697.5 690,720 693,720 693,697.5 " style="fill: rgb(255,255,255); fill-opacity: 1; stroke: black; stroke-opacity: 1; stroke-width: 0" />
	<polygon points="693,697.5 693,720 696,720 696,697.5 " style="fill: rgb(254,254,251); fill-opacity: 1; stroke: black; stroke-opacity: 1; stroke-width: 0" />
	<polygon points="696,697.5 696,720 699,720 699,697.5 " style="fill: rgb(254,254,247); fill-opacity: 1; stroke: black; stroke-opacity: 1; stroke-width: 0" />
	<polygon points="699,697.5 699,720 702,720 702,697.5 " style="fill: rgb(254,253,244); fill-opacity: 1; stroke: black; stroke-opacity: 1; stroke-width: 0" />
	<polygon points="702,697.5 702,720 705,720 705,697.5 " style="fill: rgb(253,253,240); fill-opacity: 1; stroke: black; stroke-opacity: 1; stroke-width: 0" />
	<polygon points="705,697.5 705,720 708,720 708,697.5 " style="fill: rgb(253,253,237); fill-opacity: 1; stroke: black; stroke-opacity: 1; stroke-width: 0" />
	<polygon points="708,697.5 708,720 711,720 711,697.5 " style="fill: rgb(253,252,233); fill-opacity: 1; stroke: black; stroke-opacity: 1; stroke-width: 0" />
	<polygon points="711,697.5 711,720 714,720 714,697.5 " style="fill: rgb(252,252,229); fill-opacity: 1; stroke: black; stroke-opacity: 1; stroke-width: 0" />
	<polygon points="714,697.5 714,720 717,720 717,697.5 " style="fill: rgb(252,251,226); fill-opacity: 1; stroke: black; stroke-opacity: 1; stroke-width: 0" />
	<polygon points="717,697.5 717,720 720,720 720,697.5 " style="fill: rgb(252,251,222); fill-opacity: 1; stroke: black; stroke-opacity: 1; stroke-width: 0" />
	<polygon points="720,697.5 720,720 723,720 723,697.5 " style="fill: rgb(252,251,219); fill-opacity: 1; stroke: black; stroke-opacity: 1; stroke-width: 0" />
	<polygon points="723,697.5 723,720 726,720 726,697.5 " style="fill: rgb(251,250,215); fill-opacity: 1; stroke: black; stroke-opacity: 1; stroke-width: 0" />
	<polygon points="726,697.5 726,720 729,720 729,697.5 " style="fill: rgb(251,250,211); fill-opacity: 1; stroke: black; stroke-opacity: 1; stroke-width: 0" />
	<polygon points="729,697.5 729,720 732,720 732,697.5 " style="fill: rgb(251,249,208); fill-opacity: 1; stroke: black; stroke-opacity: 1; stroke-width: 0" />
	<polygon points="732,697.5 732,720 735,720 735,697.5 " style="fill: rgb(250,249,204); fill-opacity: 1; stroke: black; stroke-opacity: 1; stroke-width: 0" />
	<polygon points="735,697.5 735,720 738,720 738,697.5 " style="fill: rgb(250,249,201); fill-opacity: 1; stroke: black; stroke-opacity: 1; stroke-width: 0" />
	<polygon points="738,697.5 738,720 741,720 741,697.5 " style="fill: rgb(250,248,197); fill-opacity: 1; stroke: black; stroke-opacity: 1; stroke-width: 0" />
	<polygon points="741,697.5 741,720 744,720 744,697.5 " style="fill: rgb(249,248,193); fill-opacity: 1; stroke: black; stroke-opacity: 1; stroke-width: 0" />
	<polygon points="744,697.5 744,720 747,720 747,697.5 " style="fill: rgb(249,247,190); fill-opacity: 1; stroke: black; stroke-opacity: 1; stroke-width: 0" />
	<polygon points="747,697.5 747,720 750,720 750,697.5 " style="fill: rgb(249,247,186); fill-opacity: 1; stroke: black; stroke-opacity: 1; stroke-width: 0" />
	<polygon points="750,697.5 750,720 753,720 753,697.5 " style="fill: rgb(249,247,183); fill-opacity: 1; stroke: black; stroke-opacity: 1; stroke-width: 0" />
	<polygon points="753,697.5 753,720 756,720 756,697.5 " style="fill: rgb(248,246,179); fill-opacity: 1; stroke: black; stroke-opacity: 1; stroke-width: 0" />
	<polygon points="756,697.5 756,720 759,720 759,697.5 " style="fill: rgb(248,246,175); fill-opacity: 1; stroke: black; stroke-opacity: 1; stroke-width: 0" />
	<polygon points="759,697.5 759,720 762,720 762,697.5 " style="fill: rgb(248,245,172); fill-opacity: 1; stroke: black; stroke-opacity: 1; stroke-width: 0" />
	<polygon points="762,697.5 762,720 765,720 765,697.5 " style="fill: rgb(247,245,168); fill-opacity: 1; stroke: black; stroke-opacity: 1; stroke-width: 0" />
	<polygon points="765,697.5 765,720 768,720 768,697.5 " style="fill: rgb(247,245,165); fill-opacity: 1; stroke: black; stroke-opacity: 1; stroke-width: 0" />
	<polygon points="768,697.5 768,720 771,720 771,697.5 " style="fill: rgb(247,244,161); fill-opacity: 1; stroke: black; stroke-opacity: 1; stroke-width: 0" />
	<polygon points="771,697.5 771,720 774,720 774,697.5 " style="fill: rgb(246,244,157); fill-opacity: 1; stroke: black; stroke-opacity: 1; stroke-width: 0" />
	<polygon points="774,697.5 774,720 777,720 777,697.5 " style="fill: rgb(246,243,154); fill-opacity: 1; stroke: black; stroke-opacity: 1; stroke-width: 0" />
	<polygon points="777,697.5 777,720 780,720 780,697.5 " style="fill: rgb(246,243,150); fill-opacity: 1; stroke: black; stroke-opacity: 1; stroke-width: 0" />
	<polygon points="780,697.5 780,720 783,720 783,697.5 " style="fill: rgb(246,243,147); fill-opacity: 1; stroke: black; stroke-opacity: 1; stroke-width: 0" />
	<polygon points="783,697.5 783,720 786,720 786,697.5 " style="fill: rgb(245,242,143); fill-opacity: 1; stroke: black; stroke-opacity: 1; stroke-width: 0" />
	<polygon points="786,697.5 786,720 789,720 789,697.5 " style="fill: rgb(245,242,139); fill-opacity: 1; stroke: black; stroke-opacity: 1; stroke-width: 0" />
	<polygon points="789,697.5 789,720 792,720 792,697.5 " style="fill: rgb(245,241,136); fill-opacity: 1; stroke: black; stroke-opacity: 1; stroke-width: 0" />
	<polygon points="792,697.5 792,720 795,720 795,697.5 " style="fill: rgb(244,241,132); fill-opacity: 1; stroke: black; stroke-opacity: 1; stroke-width: 0" />
	<polygon points="795,697.5 795,720 798,720 798,697.5 " style="fill: rgb(244,241,129); fill-opacity: 1; stroke: black; stroke-opacity: 1; stroke-width: 0" />
	<polygon points="798,697.5 798,720 801,720 801,697.5 " style="fill: rgb(244,240,125); fill-opacity: 1; stroke: black; stroke-opacity: 1; stroke-width: 0" />
	<polygon points="801,697.5 801,720 804,720 804,697.5 " style="fill: rgb(243,240,121); fill-opacity: 1; stroke: black; stroke-opacity: 1; stroke-width: 0" />
	<polygon points="804,697.5 804,720 807,720 807,697.5 " style="fill: rgb(243,239,118); fill-opacity: 1; stroke: black; stroke-opacity: 1; stroke-width: 0" />
	<polygon points="807,697.5 807,720 810,720 810,697.5 " style="fill: rgb(243,239,114); fill-opacity: 1; stroke: black; stroke-opacity: 1; stroke-width: 0" />
	<polygon points="810,697.5 810,720 813,720 813,697.5 " style="fill: rgb(243,239,111); fill-opacity: 1; stroke: black; stroke-opacity: 1; stroke-width: 0" />
	<polygon points="813,697.5 813,720 816,720 816,697.5 " style="fill: rgb(242,238,107); fill-opacity: 1; stroke: black; stroke-opacity: 1; stroke-width: 0" />
	<polygon points="816,697.5 816,720 819,720 819,697.5 " style="fill: rgb(242,238,103); fill-opacity: 1; stroke: black; stroke-opacity: 1; stroke-width: 0" />
	<polygon points="819,697.5 819,720 822,720 822,697.5 " style="fill: rgb(242,237,100); fill-opacity: 1; stroke: black; stroke-opacity: 1; stroke-width: 0" />
	<polygon points="822,697.5 822,720 825,720 825,697.5 " style="fill: rgb(241,237,96); fill-opacity: 1; stroke: black; stroke-opacity: 1; stroke-width: 0" />
	<polygon points="825,697.5 825,720 828,720 828,697.5 " style="fill: rgb(241,237,93); fill-opacity: 1; stroke: black; stroke-opacity: 1; stroke-width: 0" />
	<polygon points="828,697.5 828,720 831,720 831,697.5 " style="fill: rgb(241,236,89); fill-opacity: 1; stroke: black; stroke-opacity: 1; stroke-width: 0" />
	<polygon points="831,697.5 831,720 834,720 834,697.5 " style="fill: rgb(240,236,85); fill-opacity: 1; stroke: black; stroke-opacity: 1; stroke-width: 0" />
	<polygon points="834,697.5 834,720 837,720 837,697.5 " style="fill: rgb(240,235,82); fill-opacity: 1; stroke: black; stroke-opacity: 1; stroke-width: 0" />
	<polygon points="837,697.5 837,720 840,720 840,697.5 " style="fill: rgb(240,235,78); fill-opacity: 1; stroke: black; stroke-opacity: 1; stroke-width: 0" />
	<polygon points="840,697.5 840,720 843,720 843,697.5 " style="fill: rgb(240,235,75); fill-opacity: 1; stroke: black; stroke-opacity: 1; stroke-width: 0" />
	<polygon points="843,697.5 843,720 846,720 846,697.5 " style="fill: rgb(240,230,73); fill-opacity: 1; stroke: black; stroke-opacity: 1; stroke-width: 0" />
	<polygon points="846,697.5 846,720 849,720 849,697.5 " style="fill: rgb(240,225,72); fill-opacity: 1; stroke: black; stroke-opacity: 1; stroke-width: 0" />
	<polygon points="849,697.5 849,720 852,720 852,697.5 " style="fill: rgb(240,220,70); fill-opacity: 1; stroke: black; stroke-opacity: 1; stroke-width: 0" />
	<polygon points="852,697.5 852,720 855,720 855,697.5 " style="fill: rgb(241,216,69); fill-opacity: 1; stroke: black; stroke-opacity: 1; stroke-width: 0" />
	<polygon points="855,697.5 855,720 858,720 858,697.5 " style="fill: rgb(241,211,67); fill-opacity: 1; stroke: black; stroke-opacity: 1; stroke-width: 0" />
	<polygon points="858,697.5 858,720 861,720 861,697.5 " style="fill: rgb(241,206,66); fill-opacity: 1; stroke: black; stroke-opacity: 1; stroke-width: 0" />
	<polygon points="861,697.5 861,720 864,720 864,697.5 " style="fill: rgb(242,202,64); fill-opacity: 1; stroke: black; stroke-opacity: 1; stroke-width: 0" />
	<polygon points="864,697.5 864,720 867,720 867,697.5 " style="fill: rgb(242,197,63); fill-opacity: 1; stroke: black; stroke-opacity: 1; stroke-width: 0" />
	<polygon points="867,697.5 867,720 870,720 870,697.5 " style="fill: rgb(242,192,61); fill-opacity: 1; stroke: black; stroke-opacity: 1; stroke-width: 0" />
	<polygon points="870,697.5 870,720 873,720 873,697.5 " style="fill: rgb(243,188,60); fill-opacity: 1; stroke: black; stroke-opacity: 1; stroke-width: 0" />
	<polygon points="873,697.5 873,720 876,720 876,697.5 " style="fill: rgb(243,183,58); fill-opacity: 1; stroke: black; stroke-opacity: 1; stroke-width: 0" />
	<polygon points="876,697.5 876,720 879,720 879,697.5 " style="fill: rgb(243,178,57); fill-opacity: 1; stroke: black; stroke-opacity: 1; stroke-width: 0" />
	<polygon points="879,697.5 879,720 882,720 882,697.5 " style="fill: rgb(243,173,55); fill-opacity: 1; stroke: black; stroke-opacity: 1; stroke-width: 0" />
	<polygon points="882,697.5 882,720 885,720 885,697.5 " style="fill: rgb(244,169,54); fill-opacity: 1; stroke: black; stroke-opacity: 1; stroke-width: 0" />
	<polygon points="885,697.5 885,720 888,720 888,697.5 " style="fill: rgb(244,164,52); fill-opacity: 1; stroke: black; stroke-opacity: 1; stroke-width: 0" />
	<polygon points="888,697.5 888,720 891,720 891,697.5 " style="fill: rgb(244,159,51); fill-opacity: 1; stroke: black; stroke-opacity: 1; stroke-width: 0" />
	<polygon points="891,697.5 891,720 894,720 894,697.5 " style="fill: rgb(245,155,49); fill-opacity: 1; stroke: black; stroke-opacity: 1; stroke-width: 0" />
	<polygon points="894,697.5 894,720 897,720 897,697.5 " style="fill: rgb(245,150,48); fill-opacity: 1; stroke: black; stroke-opacity: 1; stroke-width: 0" />
	<polygon points="897,697.5 897,720 900,720 900,697.5 " style="fill: rgb(245,145,46); fill-opacity: 1; stroke: black; stroke-opacity: 1; stroke-width: 0" />
	<polygon points="900,697.5 900,720 903,720 903,697.5 " style="fill: rgb(246,141,45); fill-opacity: 1; stroke: black; stroke-opacity: 1; stroke-width: 0" />
	<polygon points="903,697.5 903,720 906,720 906,697.5 " style="fill: rgb(246,136,43); fill-opacity: 1; stroke: black; stroke-opacity: 1; stroke-width: 0" />
	<polygon points="906,697.5 906,720 909,720 909,697.5 " style="fill: rgb(246,131,42); fill-opacity: 1; stroke: black; stroke-opacity: 1; stroke-width: 0" />
	<polygon points="909,697.5 909,720 912,720 912,697.5 " style="fill: rgb(246,126,40); fill-opacity: 1; stroke: black; stroke-opacity: 1; stroke-width: 0" />
	<polygon points="912,697.5 912,720 915,720 915,697.5 " style="fill: rgb(247,122,39); fill-opacity: 1; stroke: black; stroke-opacity: 1; stroke-width: 0" />
	<polygon points="915,697.5 915,720 918,720 918,697.5 " style="fill: rgb(247,117,37); fill-opacity: 1; stroke: black; stroke-opacity: 1; stroke-width: 0" />
	<polygon points="918,697.5 918,720 921,720 921,697.5 " style="fill: rgb(247,112,36); fill-opacity: 1; stroke: black; stroke-opacity: 1; stroke-width: 0" />
	<polygon points="921,697.5 921,720 924,720 924,697.5 " style="fill: rgb(248,108,34); fill-opacity: 1; stroke: black; stroke-opacity: 1; stroke-width: 0" />
	<polygon points="924,697.5 924,720 927,720 927,697.5 " style="fill: rgb(248,103,33); fill-opacity: 1; stroke: black; stroke-opacity: 1; stroke-width: 0" />
	<polygon points="927,697.5 927,720 930,720 930,697.5 " style="fill: rgb(248,98,31); fill-opacity: 1; stroke: black; stroke-opacity: 1; stroke-width: 0" />
	<polygon points="930,697.5 930,720 933,720 933,697.5 " style="fill: rgb(249,94,30); fill-opacity: 1; stroke: black; stroke-opacity: 1; stroke-width: 0" />
	<polygon points="933,697.5 933,720 936,720 936,697.5 " style="fill: rgb(249,89,28); fill-opacity: 1; stroke: black; stroke-opacity: 1; stroke-width: 0" />
	<polygon points="936,697.5 936,720 939,720 939,697.5 " style="fill: rgb(249,84,27); fill-opacity: 1; stroke: black; stroke-opacity: 1; stroke-width: 0" />
	<polygon points="939,697.5 939,720 942,720 942,697.5 " style="fill: rgb(249,79,25); fill-opacity: 1; stroke: black; stroke-opacity: 1; stroke-width: 0" />
	<polygon points="942,697.5 942,720 945,720 945,697.5 " style="fill: rgb(250,75,24); fill-opacity: 1; stroke: black; stroke-opacity: 1; stroke-width: 0" />
	<polygon points="945,697.5 945,720 948,720 948,697.5 " style="fill: rgb(250,70,22); fill-opacity: 1; stroke: black; stroke-opacity: 1; stroke-width: 0" />
	<polygon points="948,697.5 948,720 951,720 951,697.5 " style="fill: rgb(250,65,21); fill-opacity: 1; stroke: black; stroke-opacity: 1; stroke-width: 0" />
	<polygon points="951,697.5 951,720 954,720 954,697.5 " style="fill: rgb(251,61,19); fill-opacity: 1; stroke: black; stroke-opacity: 1; stroke-width: 0" />
	<polygon points="954,697.5 954,720 957,720 957,697.5 " style="fill: rgb(251,56,18); fill-opacity: 1; stroke: black; stroke-opacity: 1; stroke-width: 0" />
	<polygon points="957,697.5 957,720 960,720 960,697.5 " style="fill: rgb(251,51,16); fill-opacity: 1; stroke: black; stroke-opacity: 1; stroke-width: 0" />
	<polygon points="960,697.5 960,720 963,720 963,697.5 " style="fill: rgb(252,47,15); fill-opacity: 1; stroke: black; stroke-opacity: 1; stroke-width: 0" />
	<polygon points="963,697.5 963,720 966,720 966,697.5 " style="fill: rgb(252,42,13); fill-opacity: 1; stroke: black; stroke-opacity: 1; stroke-width: 0" />
	<polygon points="966,697.5 966,720 969,720 969,697.5 " style="fill: rgb(252,37,12); fill-opacity: 1; stroke: black; stroke-opacity: 1; stroke-width: 0" />
	<polygon points="969,697.5 969,720 972,720 972,697.5 " style="fill: rgb(252,32,10); fill-opacity: 1; stroke: black; stroke-opacity: 1; stroke-width: 0" />
	<polygon points="972,697.5 972,720 975,720 975,697.5 " style="fill: rgb(253,28,9); fill-opacity: 1; stroke: black; stroke-opacity: 1; stroke-width: 0" />
	<polygon points="975,697.5 975,720 978,720 978,697.5 " style="fill: rgb(253,23,7); fill-opacity: 1; stroke: black; stroke-opacity: 1; stroke-width: 0" />
	<polygon points="978,697.5 978,720 981,720 981,697.5 " style="fill: rgb(253,18,6); fill-opacity: 1; stroke: black; stroke-opacity: 1; stroke-width: 0" />
	<polygon points="981,697.5 981,720 984,720 984,697.5 " style="fill: rgb(254,14,4); fill-opacity: 1; stroke: black; stroke-opacity: 1; stroke-width: 0" />
	<polygon points="984,697.5 984,720 987,720 987,697.5 " style="fill: rgb(254,9,3); fill-opacity: 1; stroke: black; stroke-opacity: 1; stroke-width: 0" />
	<polygon points="987,697.5 987,720 990,720 990,697.5 " style="fill: rgb(254,4,1); fill-opacity: 1; stroke: black; stroke-opacity: 1; stroke-width: 0" />
	<polygon points="990,697.5 990,720 993,720 993,697.5 " style="fill: rgb(255,0,0); fill-opacity: 1; stroke: black; stroke-opacity: 1; stroke-width: 0" />
	<line stroke="green" stroke-width="1" x1="90" x2="90" y1="193.5" y2="220" />
	<line stroke="grey" stroke-width="1" x1="90" x2="90" y1="157.5" y2="193.5" />
	<polygon points="140,270 115,295 140,320 165,295 " style="fill: rgb(254,254,251); fill-opacity: 1; stroke: white; stroke-opacity: 1; stroke-width: 1" />
	<polygon points="240,370 215,395 240,420 265,395 " style="fill: rgb(254,254,247); fill-opacity: 1; stroke: white; stroke-opacity: 1; stroke-width: 1" />
	<polygon points="265,395 240,420 265,445 290,420 " style="fill: rgb(253,253,237); fill-opacity: 1; stroke: white; stroke-opacity: 1; stroke-width: 1" />
	<polygon points="290,420 265,445 290,470 315,445 " style="fill: rgb(254,253,244); fill-opacity: 1; stroke: white; stroke-opacity: 1; stroke-width: 1" />
	<polygon points="440,570 415,595 440,620 465,595 " style="fill: rgb(254,254,251); fill-opacity: 1; stroke: white; stroke-opacity: 1; stroke-width: 1" />
	<polygon points="465,595 440,620 465,645 490,620 " style="fill: rgb(254,254,251); fill-opacity: 1; stroke: white; stroke-opacity: 1; stroke-width: 1" />
	<polygon points="490,620 465,645 490,670 515,645 " style="fill: rgb(254,253,244); fill-opacity: 1; stroke: white; stroke-opacity: 1; stroke-width: 1" />
	<polygon points="515,645 490,670 515,695 540,670 " style="fill: rgb(254,254,247); fill-opacity: 1; stroke: white; stroke-opacity: 1; stroke-width: 1" />
	<line stroke="green" stroke-width="1" x1="438.569694952055" x2="140" y1="193.5" y2="220" />
	<line stroke="grey" stroke-width="1" x1="438.569694952055" x2="438.569694952055" y1="157.5" y2="193.5" />
	<polygon points="165,245 140,270 165,295 190,270 " style="fill: rgb(243,240,121); fill-opacity: 1; stroke: white; stroke-opacity: 1; stroke-width: 1" />
	<polygon points="190,270 165,295 190,320 215,295 " style="fill: rgb(248,245,172); fill-opacity: 1; stroke: white; stroke-opacity: 1; stroke-width: 1" />
	<polygon points="215,295 190,320 215,345 240,320 " style="fill: rgb(248,245,172); fill-opacity: 1; stroke: white; stroke-opacity: 1; stroke-width: 1" />
	<polygon points="240,320 215,345 240,370 265,345 " style="fill: rgb(245,242,139); fill-opacity: 1; stroke: white; stroke-opacity: 1; stroke-width: 1" />
	<polygon points="265,345 240,370 265,395 290,370 " style="fill: rgb(246,243,147); fill-opacity: 1; stroke: white; stroke-opacity: 1; stroke-width: 1" />
	<polygon points="290,370 265,395 290,420 315,395 " style="fill: rgb(249,248,193); fill-opacity: 1; stroke: white; stroke-opacity: 1; stroke-width: 1" />
	<polygon points="390,470 365,495 390,520 415,495 " style="fill: rgb(254,254,251); fill-opacity: 1; stroke: white; stroke-opacity: 1; stroke-width: 1" />
	<polygon points="540,620 515,645 540,670 565,645 " style="fill: rgb(254,254,247); fill-opacity: 1; stroke: white; stroke-opacity: 1; stroke-width: 1" />
	<line stroke="green" stroke-width="1" x1="438.803311105369" x2="190" y1="193.5" y2="220" />
	<line stroke="grey" stroke-width="1" x1="438.803311105369" x2="438.803311105369" y1="157.5" y2="193.5" />
	<polygon points="215,245 190,270 215,295 240,270 " style="fill: rgb(241,206,66); fill-opacity: 1; stroke: white; stroke-opacity: 1; stroke-width: 1" />
	<polygon points="240,270 215,295 240,320 265,295 " style="fill: rgb(243,183,58); fill-opacity: 1; stroke: white; stroke-opacity: 1; stroke-width: 1" />
	<polygon points="265,295 240,320 265,345 290,320 " style="fill: rgb(242,202,64); fill-opacity: 1; stroke: white; stroke-opacity: 1; stroke-width: 1" />
	<polygon points="290,320 265,345 290,370 315,345 " style="fill: rgb(243,173,55); fill-opacity: 1; stroke: white; stroke-opacity: 1; stroke-width: 1" />
	<polygon points="315,345 290,370 315,395 340,370 " style="fill: rgb(243,240,121); fill-opacity: 1; stroke: white; stroke-opacity: 1; stroke-width: 1" />
	<polygon points="340,370 315,395 340,420 365,395 " style="fill: rgb(254,253,244); fill-opacity: 1; stroke: white; stroke-opacity: 1; stroke-width: 1" />
	<polygon points="390,420 365,445 390,470 415,445 " style="fill: rgb(254,254,247); fill-opacity: 1; stroke: white; stroke-opacity: 1; stroke-width: 1" />
	<polygon points="490,520 465,545 490,570 515,545 " style="fill: rgb(254,254,251); fill-opacity: 1; stroke: white; stroke-opacity: 1; stroke-width: 1" />
	<polygon points="515,545 490,570 515,595 540,570 " style="fill: rgb(254,254,251); fill-opacity: 1; stroke: white; stroke-opacity: 1; stroke-width: 1" />
	<polygon points="565,595 540,620 565,645 590,620 " style="fill: rgb(254,253,244); fill-opacity: 1; stroke: white; stroke-opacity: 1; stroke-width: 1" />
	<line stroke="green" stroke-width="1" x1="438.847439109266" x2="240" y1="193.5" y2="220" />
	<line stroke="grey" stroke-width="1" x1="438.847439109266" x2="438.847439109266" y1="157.5" y2="193.5" />
	<polygon points="265,245 240,270 265,295 290,270 " style="fill: rgb(252,37,12); fill-opacity: 1; stroke: white; stroke-opacity: 1; stroke-width: 1" />
	<polygon points="290,270 265,295 290,320 315,295 " style="fill: rgb(240,220,70); fill-opacity: 1; stroke: white; stroke-opacity: 1; stroke-width: 1" />
	<polygon points="315,295 290,320 315,345 340,320 " style="fill: rgb(241,206,66); fill-opacity: 1; stroke: white; stroke-opacity: 1; stroke-width: 1" />
	<polygon points="340,320 315,345 340,370 365,345 " style="fill: rgb(245,242,143); fill-opacity: 1; stroke: white; stroke-opacity: 1; stroke-width: 1" />
	<polygon points="365,345 340,370 365,395 390,370 " style="fill: rgb(253,253,240); fill-opacity: 1; stroke: white; stroke-opacity: 1; stroke-width: 1" />
	<polygon points="415,395 390,420 415,445 440,420 " style="fill: rgb(254,254,251); fill-opacity: 1; stroke: white; stroke-opacity: 1; stroke-width: 1" />
	<polygon points="515,495 490,520 515,545 540,520 " style="fill: rgb(254,254,251); fill-opacity: 1; stroke: white; stroke-opacity: 1; stroke-width: 1" />
	<polygon points="540,520 515,545 540,570 565,545 " style="fill: rgb(254,254,251); fill-opacity: 1; stroke: white; stroke-opacity: 1; stroke-width: 1" />
	<polygon points="565,545 540,570 565,595 590,570 " style="fill: rgb(254,254,247); fill-opacity: 1; stroke: white; stroke-opacity: 1; stroke-width: 1" />
	<polygon points="590,570 565,595 590,620 615,595 " style="fill: rgb(254,254,251); fill-opacity: 1; stroke: white; stroke-opacity: 1; stroke-width: 1" />
	<line stroke="green" stroke-width="1" x1="438.847881304191" x2="290" y1="193.5" y2="220" />
	<line stroke="grey" stroke-width="1" x1="438.847881304191" x2="438.847881304191" y1="157.5" y2="193.5" />
	<polygon points="315,245 290,270 315,295 340,270 " style="fill: rgb(241,216,69); fill-opacity: 1; stroke: white; stroke-opacity: 1; stroke-width: 1" />
	<polygon points="340,270 315,295 340,320 365,295 " style="fill: rgb(242,202,64); fill-opacity: 1; stroke: white; stroke-opacity: 1; stroke-width: 1" />
	<polygon points="365,295 340,320 365,345 390,320 " style="fill: rgb(244,241,132); fill-opacity: 1; stroke: white; stroke-opacity: 1; stroke-width: 1" />
	<polygon points="390,320 365,345 390,370 415,345 " style="fill: rgb(254,253,244); fill-opacity: 1; stroke: white; stroke-opacity: 1; stroke-width: 1" />
	<polygon points="440,370 415,395 440,420 465,395 " style="fill: rgb(254,254,251); fill-opacity: 1; stroke: white; stroke-opacity: 1; stroke-width: 1" />
	<polygon points="540,470 515,495 540,520 565,495 " style="fill: rgb(254,254,247); fill-opacity: 1; stroke: white; stroke-opacity: 1; stroke-width: 1" />
	<polygon points="565,495 540,520 565,545 590,520 " style="fill: rgb(254,254,251); fill-opacity: 1; stroke: white; stroke-opacity: 1; stroke-width: 1" />
	<polygon points="590,520 565,545 590,570 615,545 " style="fill: rgb(254,253,244); fill-opacity: 1; stroke: white; stroke-opacity: 1; stroke-width: 1" />
	<polygon points="615,545 590,570 615,595 640,570 " style="fill: rgb(254,254,251); fill-opacity: 1; stroke: white; stroke-opacity: 1; stroke-width: 1" />
	<line stroke="green" stroke-width="1" x1="438.867780075816" x2="340" y1="193.5" y2="220" />
	<line stroke="grey" stroke-width="1" x1="438.867780075816" x2="438.867780075816" y1="157.5" y2="193.5" />
	<polygon points="365,245 340,270 365,295 390,270 " style="fill: rgb(249,79,25); fill-opacity: 1; stroke: white; stroke-opacity: 1; stroke-width: 1" />
	<polygon points="390,270 365,295 390,320 415,295 " style="fill: rgb(245,242,143); fill-opacity: 1; stroke: white; stroke-opacity: 1; stroke-width: 1" />
	<polygon points="415,295 390,320 415,345 440,320 " style="fill: rgb(253,253,240); fill-opacity: 1; stroke: white; stroke-opacity: 1; stroke-width: 1" />
	<polygon points="465,345 440,370 465,395 490,370 " style="fill: rgb(254,254,251); fill-opacity: 1; stroke: white; stroke-opacity: 1; stroke-width: 1" />
	<polygon points="615,495 590,520 615,545 640,520 " style="fill: rgb(254,254,251); fill-opacity: 1; stroke: white; stroke-opacity: 1; stroke-width: 1" />
	<polygon points="640,520 615,545 640,570 665,545 " style="fill: rgb(254,254,247); fill-opacity: 1; stroke: white; stroke-opacity: 1; stroke-width: 1" />
	<line stroke="green" stroke-width="1" x1="438.868146030237" x2="390" y1="193.5" y2="220" />
	<line stroke="grey" stroke-width="1" x1="438.868146030237" x2="438.868146030237" y1="157.5" y2="193.5" />
	<polygon points="415,245 390,270 415,295 440,270 " style="fill: rgb(244,240,125); fill-opacity: 1; stroke: white; stroke-opacity: 1; stroke-width: 1" />
	<polygon points="440,270 415,295 440,320 465,295 " style="fill: rgb(253,253,237); fill-opacity: 1; stroke: white; stroke-opacity: 1; stroke-width: 1" />
	<polygon points="490,320 465,345 490,370 515,345 " style="fill: rgb(254,254,251); fill-opacity: 1; stroke: white; stroke-opacity: 1; stroke-width: 1" />
	<polygon points="590,420 565,445 590,470 615,445 " style="fill: rgb(254,254,251); fill-opacity: 1; stroke: white; stroke-opacity: 1; stroke-width: 1" />
	<polygon points="615,445 590,470 615,495 640,470 " style="fill: rgb(254,254,251); fill-opacity: 1; stroke: white; stroke-opacity: 1; stroke-width: 1" />
	<polygon points="640,470 615,495 640,520 665,495 " style="fill: rgb(254,254,251); fill-opacity: 1; stroke: white; stroke-opacity: 1; stroke-width: 1" />
	<polygon points="665,495 640,520 665,545 690,520 " style="fill: rgb(254,254,247); fill-opacity: 1; stroke: white; stroke-opacity: 1; stroke-width: 1" />
	<line stroke="green" stroke-width="1" x1="439.248738627765" x2="440" y1="193.5" y2="220" />
	<line stroke="grey" stroke-width="1" x1="439.248738627765" x2="439.248738627765" y1="157.5" y2="193.5" />
	<polygon points="465,245 440,270 465,295 490,270 " style="fill: rgb(252,251,219); fill-opacity: 1; stroke: white; stroke-opacity: 1; stroke-width: 1" />
	<polygon points="515,295 490,320 515,345 540,320 " style="fill: rgb(254,254,251); fill-opacity: 1; stroke: white; stroke-opacity: 1; stroke-width: 1" />
	<polygon points="540,320 515,345 540,370 565,345 " style="fill: rgb(254,254,251); fill-opacity: 1; stroke: white; stroke-opacity: 1; stroke-width: 1" />
	<polygon points="640,420 615,445 640,470 665,445 " style="fill: rgb(254,254,251); fill-opacity: 1; stroke: white; stroke-opacity: 1; stroke-width: 1" />
	<polygon points="665,445 640,470 665,495 690,470 " style="fill: rgb(254,254,251); fill-opacity: 1; stroke: white; stroke-opacity: 1; stroke-width: 1" />
	<polygon points="690,470 665,495 690,520 715,495 " style="fill: rgb(253,253,240); fill-opacity: 1; stroke: white; stroke-opacity: 1; stroke-width: 1" />
	<line stroke="green" stroke-width="1" x1="487.247274702448" x2="490" y1="193.5" y2="220" />
	<line stroke="grey" stroke-width="1" x1="487.247274702448" x2="487.247274702448" y1="157.5" y2="193.5" />
	<polygon points="565,295 540,320 565,345 590,320 " style="fill: rgb(254,254,247); fill-opacity: 1; stroke: white; stroke-opacity: 1; stroke-width: 1" />
	<polygon points="640,370 615,395 640,420 665,395 " style="fill: rgb(254,253,244); fill-opacity: 1; stroke: white; stroke-opacity: 1; stroke-width: 1" />
	<polygon points="665,395 640,420 665,445 690,420 " style="fill: rgb(254,253,244); fill-opacity: 1; stroke: white; stroke-opacity: 1; stroke-width: 1" />
	<polygon points="690,420 665,445 690,470 715,445 " style="fill: rgb(254,253,244); fill-opacity: 1; stroke: white; stroke-opacity: 1; stroke-width: 1" />
	<polygon points="715,445 690,470 715,495 740,470 " style="fill: rgb(253,252,233); fill-opacity: 1; stroke: white; stroke-opacity: 1; stroke-width: 1" />
	<line stroke="green" stroke-width="1" x1="613.384962864685" x2="540" y1="193.5" y2="220" />
	<line stroke="grey" stroke-width="1" x1="613.384962864685" x2="613.384962864685" y1="157.5" y2="193.5" />
	<polygon points="565,245 540,270 565,295 590,270 " style="fill: rgb(252,252,229); fill-opacity: 1; stroke: white; stroke-opacity: 1; stroke-width: 1" />
	<polygon points="590,270 565,295 590,320 615,295 " style="fill: rgb(254,254,251); fill-opacity: 1; stroke: white; stroke-opacity: 1; stroke-width: 1" />
	<line stroke="green" stroke-width="1" x1="653.98109490226" x2="590" y1="193.5" y2="220" />
	<line stroke="grey" stroke-width="1" x1="653.98109490226" x2="653.98109490226" y1="157.5" y2="193.5" />
	<line stroke="green" stroke-width="1" x1="717.718995153023" x2="640" y1="193.5" y2="220" />
	<line stroke="grey" stroke-width="1" x1="717.718995153023" x2="717.718995153023" y1="157.5" y2="193.5" />
	<polygon points="690,270 665,295 690,320 715,295 " style="fill: rgb(254,254,251); fill-opacity: 1; stroke: white; stroke-opacity: 1; stroke-width: 1" />
	<polygon points="715,295 690,320 715,345 740,320 " style="fill: rgb(254,254,251); fill-opacity: 1; stroke: white; stroke-opacity: 1; stroke-width: 1" />
	<polygon points="790,370 765,395 790,420 815,395 " style="fill: rgb(254,254,247); fill-opacity: 1; stroke: white; stroke-opacity: 1; stroke-width: 1" />
	<line stroke="green" stroke-width="1" x1="731.763517670136" x2="690" y1="193.5" y2="220" />
	<line stroke="grey" stroke-width="1" x1="731.763517670136" x2="731.763517670136" y1="157.5" y2="193.5" />
	<polygon points="715,245 690,270 715,295 740,270 " style="fill: rgb(249,84,27); fill-opacity: 1; stroke: white; stroke-opacity: 1; stroke-width: 1" />
	<polygon points="740,270 715,295 740,320 765,295 " style="fill: rgb(248,246,175); fill-opacity: 1; stroke: white; stroke-opacity: 1; stroke-width: 1" />
	<polygon points="765,295 740,320 765,345 790,320 " style="fill: rgb(248,245,172); fill-opacity: 1; stroke: white; stroke-opacity: 1; stroke-width: 1" />
	<line stroke="green" stroke-width="1" x1="731.764051353666" x2="740" y1="193.5" y2="220" />
	<line stroke="grey" stroke-width="1" x1="731.764051353666" x2="731.764051353666" y1="157.5" y2="193.5" />
	<polygon points="765,245 740,270 765,295 790,270 " style="fill: rgb(245,242,143); fill-opacity: 1; stroke: white; stroke-opacity: 1; stroke-width: 1" />
	<polygon points="790,270 765,295 790,320 815,295 " style="fill: rgb(245,242,143); fill-opacity: 1; stroke: white; stroke-opacity: 1; stroke-width: 1" />
	<line stroke="green" stroke-width="1" x1="732.127367852917" x2="790" y1="193.5" y2="220" />
	<line stroke="grey" stroke-width="1" x1="732.127367852917" x2="732.127367852917" y1="157.5" y2="193.5" />
	<polygon points="815,245 790,270 815,295 840,270 " style="fill: rgb(243,188,60); fill-opacity: 1; stroke: white; stroke-opacity: 1; stroke-width: 1" />
	<polygon points="840,270 815,295 840,320 865,295 " style="fill: rgb(254,254,251); fill-opacity: 1; stroke: white; stroke-opacity: 1; stroke-width: 1" />
	<polygon points="865,295 840,320 865,345 890,320 " style="fill: rgb(254,254,247); fill-opacity: 1; stroke: white; stroke-opacity: 1; stroke-width: 1" />
	<line stroke="green" stroke-width="1" x1="732.36609212002" x2="840" y1="193.5" y2="220" />
	<line stroke="grey" stroke-width="1" x1="732.36609212002" x2="732.36609212002" y1="157.5" y2="193.5" />
	<polygon points="865,245 840,270 865,295 890,270 " style="fill: rgb(254,254,247); fill-opacity: 1; stroke: white; stroke-opacity: 1; stroke-width: 1" />
	<polygon points="890,270 865,295 890,320 915,295 " style="fill: rgb(254,253,244); fill-opacity: 1; stroke: white; stroke-opacity: 1; stroke-width: 1" />
	<line stroke="green" stroke-width="1" x1="861.462704750826" x2="890" y1="193.5" y2="220" />
	<line stroke="grey" stroke-width="1" x1="861.462704750826" x2="861.462704750826" y1="157.5" y2="193.5" />
	<line stroke="green" stroke-width="1" x1="940" x2="940" y1="193.5" y2="220" />
	<line stroke="grey" stroke-width="1" x1="940" x2="940" y1="157.5" y2="193.5" />
	<polygon points="240,270 265,295 290,270 " style="fill: none; fill-opacity: 1; stroke: black; stroke-opacity: 1; stroke-width: 1" />
	<line stroke="rgb(231,138,195)" stroke-width="1" x1="438.847439109266" x2="438.847439109266" y1="157.5" y2="193.5" />
	<line stroke="rgb(231,138,195)" stroke-width="1" x1="438.847881304191" x2="438.847881304191" y1="157.5" y2="193.5" />
	<polygon points="340,270 365,295 390,270 " style="fill: none; fill-opacity: 1; stroke: black; stroke-opacity: 1; stroke-width: 1" />
	<line stroke="rgb(231,138,195)" stroke-width="1" x1="438.867780075816" x2="438.867780075816" y1="157.5" y2="193.5" />
	<line stroke="rgb(231,138,195)" stroke-width="1" x1="438.868146030237" x2="438.868146030237" y1="157.5" y2="193.5" />
	<!-- 
	Generated using the Perl SVG Module V2.78
	by Ronan Oger
	Info: http://www.roitsystems.com/
 -->
</svg>