<?xml version="1.0" encoding="UTF-8" standalone="yes"?>
<!DOCTYPE svg PUBLIC "-//W3C//DTD SVG 1.0//EN" "http://www.w3.org/TR/2001/REC-SVG-20010904/DTD/svg10.dtd">
<svg height="1062.5" width="1437.5" xmlns="http://www.w3.org/2000/svg" xmlns:svg="http://www.w3.org/2000/svg" xmlns:xlink="http://www.w3.org/1999/xlink">
	<polygon points="958.333333333333,968.75 958.333333333333,1000 1379.16666666667,1000 1379.16666666667,968.75 " style="fill: none; fill-opacity: 1; stroke: black; stroke-opacity: 1; stroke-width: 1.953125" />
	<text font-family="Arial" font-size="31.25" text-anchor="middle" x="958" y="1031.25">0.0</text>
	<text font-family="Arial" font-size="31.25" text-anchor="middle" x="1375" y="1031.25">1.0</text>
	<polygon points="125,218.75 125,268.75 1325,268.75 1325,218.75 " style="fill: #a6cee3; fill-opacity: 1; stroke: black; stroke-opacity: 1; stroke-width: 0" />
	<text font-family="Arial" font-size="15.625" text-anchor="middle" x="725" y="203.125">NC_000017.11 Region:78.04 (Mb)</text>
	<text font-family="Arial" font-size="15.625" text-anchor="middle" x="1325" y="203.125">End:80.228 (Mb)</text>
	<text font-family="Arial" font-size="15.625" text-anchor="middle" x="125" y="203.125">Start:2.186 </text>
	<text font-family="Arial" font-size="31.25" text-anchor="middle" x="1166" y="937.5">R^2 Color Key</text>
	<polygon points="958.333333333333,968.75 958.333333333333,1000 962.5,1000 962.5,968.75 " style="fill: rgb(255,255,255); fill-opacity: 1; stroke: black; stroke-opacity: 1; stroke-width: 0" />
	<polygon points="962.5,968.75 962.5,1000 966.666666666667,1000 966.666666666667,968.75 " style="fill: rgb(254,254,251); fill-opacity: 1; stroke: black; stroke-opacity: 1; stroke-width: 0" />
	<polygon points="966.666666666667,968.75 966.666666666667,1000 970.833333333333,1000 970.833333333333,968.75 " style="fill: rgb(254,254,247); fill-opacity: 1; stroke: black; stroke-opacity: 1; stroke-width: 0" />
	<polygon points="970.833333333333,968.75 970.833333333333,1000 975,1000 975,968.75 " style="fill: rgb(254,253,244); fill-opacity: 1; stroke: black; stroke-opacity: 1; stroke-width: 0" />
	<polygon points="975,968.75 975,1000 979.166666666667,1000 979.166666666667,968.75 " style="fill: rgb(253,253,240); fill-opacity: 1; stroke: black; stroke-opacity: 1; stroke-width: 0" />
	<polygon points="979.166666666667,968.75 979.166666666667,1000 983.333333333333,1000 983.333333333333,968.75 " style="fill: rgb(253,253,237); fill-opacity: 1; stroke: black; stroke-opacity: 1; stroke-width: 0" />
	<polygon points="983.333333333333,968.75 983.333333333333,1000 987.5,1000 987.5,968.75 " style="fill: rgb(253,252,233); fill-opacity: 1; stroke: black; stroke-opacity: 1; stroke-width: 0" />
	<polygon points="987.5,968.75 987.5,1000 991.666666666667,1000 991.666666666667,968.75 " style="fill: rgb(252,252,229); fill-opacity: 1; stroke: black; stroke-opacity: 1; stroke-width: 0" />
	<polygon points="991.666666666667,968.75 991.666666666667,1000 995.833333333333,1000 995.833333333333,968.75 " style="fill: rgb(252,251,226); fill-opacity: 1; stroke: black; stroke-opacity: 1; stroke-width: 0" />
	<polygon points="995.833333333333,968.75 995.833333333333,1000 1000,1000 1000,968.75 " style="fill: rgb(252,251,222); fill-opacity: 1; stroke: black; stroke-opacity: 1; stroke-width: 0" />
	<polygon points="1000,968.75 1000,1000 1004.16666666667,1000 1004.16666666667,968.75 " style="fill: rgb(252,251,219); fill-opacity: 1; stroke: black; stroke-opacity: 1; stroke-width: 0" />
	<polygon points="1004.16666666667,968.75 1004.16666666667,1000 1008.33333333333,1000 1008.33333333333,968.75 " style="fill: rgb(251,250,215); fill-opacity: 1; stroke: black; stroke-opacity: 1; stroke-width: 0" />
	<polygon points="1008.33333333333,968.75 1008.33333333333,1000 1012.5,1000 1012.5,968.75 " style="fill: rgb(251,250,211); fill-opacity: 1; stroke: black; stroke-opacity: 1; stroke-width: 0" />
	<polygon points="1012.5,968.75 1012.5,1000 1016.66666666667,1000 1016.66666666667,968.75 " style="fill: rgb(251,249,208); fill-opacity: 1; stroke: black; stroke-opacity: 1; stroke-width: 0" />
	<polygon points="1016.66666666667,968.75 1016.66666666667,1000 1020.83333333333,1000 1020.83333333333,968.75 " style="fill: rgb(250,249,204); fill-opacity: 1; stroke: black; stroke-opacity: 1; stroke-width: 0" />
	<polygon points="1020.83333333333,968.75 1020.83333333333,1000 1025,1000 1025,968.75 " style="fill: rgb(250,249,201); fill-opacity: 1; stroke: black; stroke-opacity: 1; stroke-width: 0" />
	<polygon points="1025,968.75 1025,1000 1029.16666666667,1000 1029.16666666667,968.75 " style="fill: rgb(250,248,197); fill-opacity: 1; stroke: black; stroke-opacity: 1; stroke-width: 0" />
	<polygon points="1029.16666666667,968.75 1029.16666666667,1000 1033.33333333333,1000 1033.33333333333,968.75 " style="fill: rgb(249,248,193); fill-opacity: 1; stroke: black; stroke-opacity: 1; stroke-width: 0" />
	<polygon points="1033.33333333333,968.75 1033.33333333333,1000 1037.5,1000 1037.5,968.75 " style="fill: rgb(249,247,190); fill-opacity: 1; stroke: black; stroke-opacity: 1; stroke-width: 0" />
	<polygon points="1037.5,968.75 1037.5,1000 1041.66666666667,1000 1041.66666666667,968.75 " style="fill: rgb(249,247,186); fill-opacity: 1; stroke: black; stroke-opacity: 1; stroke-width: 0" />
	<polygon points="1041.66666666667,968.75 1041.66666666667,1000 1045.83333333333,1000 1045.83333333333,968.75 " style="fill: rgb(249,247,183); fill-opacity: 1; stroke: black; stroke-opacity: 1; stroke-width: 0" />
	<polygon points="1045.83333333333,968.75 1045.83333333333,1000 1050,1000 1050,968.75 " style="fill: rgb(248,246,179); fill-opacity: 1; stroke: black; stroke-opacity: 1; stroke-width: 0" />
	<polygon points="1050,968.75 1050,1000 1054.16666666667,1000 1054.16666666667,968.75 " style="fill: rgb(248,246,175); fill-opacity: 1; stroke: black; stroke-opacity: 1; stroke-width: 0" />
	<polygon points="1054.16666666667,968.75 1054.16666666667,1000 1058.33333333333,1000 1058.33333333333,968.75 " style="fill: rgb(248,245,172); fill-opacity: 1; stroke: black; stroke-opacity: 1; stroke-width: 0" />
	<polygon points="1058.33333333333,968.75 1058.33333333333,1000 1062.5,1000 1062.5,968.75 " style="fill: rgb(247,245,168); fill-opacity: 1; stroke: black; stroke-opacity: 1; stroke-width: 0" />
	<polygon points="1062.5,968.75 1062.5,1000 1066.66666666667,1000 1066.66666666667,968.75 " style="fill: rgb(247,245,165); fill-opacity: 1; stroke: black; stroke-opacity: 1; stroke-width: 0" />
	<polygon points="1066.66666666667,968.75 1066.66666666667,1000 1070.83333333333,1000 1070.83333333333,968.75 " style="fill: rgb(247,244,161); fill-opacity: 1; stroke: black; stroke-opacity: 1; stroke-width: 0" />
	<polygon points="1070.83333333333,968.75 1070.83333333333,1000 1075,1000 1075,968.75 " style="fill: rgb(246,244,157); fill-opacity: 1; stroke: black; stroke-opacity: 1; stroke-width: 0" />
	<polygon points="1075,968.75 1075,1000 1079.16666666667,1000 1079.16666666667,968.75 " style="fill: rgb(246,243,154); fill-opacity: 1; stroke: black; stroke-opacity: 1; stroke-width: 0" />
	<polygon points="1079.16666666667,968.75 1079.16666666667,1000 1083.33333333333,1000 1083.33333333333,968.75 " style="fill: rgb(246,243,150); fill-opacity: 1; stroke: black; stroke-opacity: 1; stroke-width: 0" />
	<polygon points="1083.33333333333,968.75 1083.33333333333,1000 1087.5,1000 1087.5,968.75 " style="fill: rgb(246,243,147); fill-opacity: 1; stroke: black; stroke-opacity: 1; stroke-width: 0" />
	<polygon points="1087.5,968.75 1087.5,1000 1091.66666666667,1000 1091.66666666667,968.75 " style="fill: rgb(245,242,143); fill-opacity: 1; stroke: black; stroke-opacity: 1; stroke-width: 0" />
	<polygon points="1091.66666666667,968.75 1091.66666666667,1000 1095.83333333333,1000 1095.83333333333,968.75 " style="fill: rgb(245,242,139); fill-opacity: 1; stroke: black; stroke-opacity: 1; stroke-width: 0" />
	<polygon points="1095.83333333333,968.75 1095.83333333333,1000 1100,1000 1100,968.75 " style="fill: rgb(245,241,136); fill-opacity: 1; stroke: black; stroke-opacity: 1; stroke-width: 0" />
	<polygon points="1100,968.75 1100,1000 1104.16666666667,1000 1104.16666666667,968.75 " style="fill: rgb(244,241,132); fill-opacity: 1; stroke: black; stroke-opacity: 1; stroke-width: 0" />
	<polygon points="1104.16666666667,968.75 1104.16666666667,1000 1108.33333333333,1000 1108.33333333333,968.75 " style="fill: rgb(244,241,129); fill-opacity: 1; stroke: black; stroke-opacity: 1; stroke-width: 0" />
	<polygon points="1108.33333333333,968.75 1108.33333333333,1000 1112.5,1000 1112.5,968.75 " style="fill: rgb(244,240,125); fill-opacity: 1; stroke: black; stroke-opacity: 1; stroke-width: 0" />
	<polygon points="1112.5,968.75 1112.5,1000 1116.66666666667,1000 1116.66666666667,968.75 " style="fill: rgb(243,240,121); fill-opacity: 1; stroke: black; stroke-opacity: 1; stroke-width: 0" />
	<polygon points="1116.66666666667,968.75 1116.66666666667,1000 1120.83333333333,1000 1120.83333333333,968.75 " style="fill: rgb(243,239,118); fill-opacity: 1; stroke: black; stroke-opacity: 1; stroke-width: 0" />
	<polygon points="1120.83333333333,968.75 1120.83333333333,1000 1125,1000 1125,968.75 " style="fill: rgb(243,239,114); fill-opacity: 1; stroke: black; stroke-opacity: 1; stroke-width: 0" />
	<polygon points="1125,968.75 1125,1000 1129.16666666667,1000 1129.16666666667,968.75 " style="fill: rgb(243,239,111); fill-opacity: 1; stroke: black; stroke-opacity: 1; stroke-width: 0" />
	<polygon points="1129.16666666667,968.75 1129.16666666667,1000 1133.33333333333,1000 1133.33333333333,968.75 " style="fill: rgb(242,238,107); fill-opacity: 1; stroke: black; stroke-opacity: 1; stroke-width: 0" />
	<polygon points="1133.33333333333,968.75 1133.33333333333,1000 1137.5,1000 1137.5,968.75 " style="fill: rgb(242,238,103); fill-opacity: 1; stroke: black; stroke-opacity: 1; stroke-width: 0" />
	<polygon points="1137.5,968.75 1137.5,1000 1141.66666666667,1000 1141.66666666667,968.75 " style="fill: rgb(242,237,100); fill-opacity: 1; stroke: black; stroke-opacity: 1; stroke-width: 0" />
	<polygon points="1141.66666666667,968.75 1141.66666666667,1000 1145.83333333333,1000 1145.83333333333,968.75 " style="fill: rgb(241,237,96); fill-opacity: 1; stroke: black; stroke-opacity: 1; stroke-width: 0" />
	<polygon points="1145.83333333333,968.75 1145.83333333333,1000 1150,1000 1150,968.75 " style="fill: rgb(241,237,93); fill-opacity: 1; stroke: black; stroke-opacity: 1; stroke-width: 0" />
	<polygon points="1150,968.75 1150,1000 1154.16666666667,1000 1154.16666666667,968.75 " style="fill: rgb(241,236,89); fill-opacity: 1; stroke: black; stroke-opacity: 1; stroke-width: 0" />
	<polygon points="1154.16666666667,968.75 1154.16666666667,1000 1158.33333333333,1000 1158.33333333333,968.75 " style="fill: rgb(240,236,85); fill-opacity: 1; stroke: black; stroke-opacity: 1; stroke-width: 0" />
	<polygon points="1158.33333333333,968.75 1158.33333333333,1000 1162.5,1000 1162.5,968.75 " style="fill: rgb(240,235,82); fill-opacity: 1; stroke: black; stroke-opacity: 1; stroke-width: 0" />
	<polygon points="1162.5,968.75 1162.5,1000 1166.66666666667,1000 1166.66666666667,968.75 " style="fill: rgb(240,235,78); fill-opacity: 1; stroke: black; stroke-opacity: 1; stroke-width: 0" />
	<polygon points="1166.66666666667,968.75 1166.66666666667,1000 1170.83333333333,1000 1170.83333333333,968.75 " style="fill: rgb(240,235,75); fill-opacity: 1; stroke: black; stroke-opacity: 1; stroke-width: 0" />
	<polygon points="1170.83333333333,968.75 1170.83333333333,1000 1175,1000 1175,968.75 " style="fill: rgb(240,230,73); fill-opacity: 1; stroke: black; stroke-opacity: 1; stroke-width: 0" />
	<polygon points="1175,968.75 1175,1000 1179.16666666667,1000 1179.16666666667,968.75 " style="fill: rgb(240,225,72); fill-opacity: 1; stroke: black; stroke-opacity: 1; stroke-width: 0" />
	<polygon points="1179.16666666667,968.75 1179.16666666667,1000 1183.33333333333,1000 1183.33333333333,968.75 " style="fill: rgb(240,220,70); fill-opacity: 1; stroke: black; stroke-opacity: 1; stroke-width: 0" />
	<polygon points="1183.33333333333,968.75 1183.33333333333,1000 1187.5,1000 1187.5,968.75 " style="fill: rgb(241,216,69); fill-opacity: 1; stroke: black; stroke-opacity: 1; stroke-width: 0" />
	<polygon points="1187.5,968.75 1187.5,1000 1191.66666666667,1000 1191.66666666667,968.75 " style="fill: rgb(241,211,67); fill-opacity: 1; stroke: black; stroke-opacity: 1; stroke-width: 0" />
	<polygon points="1191.66666666667,968.75 1191.66666666667,1000 1195.83333333333,1000 1195.83333333333,968.75 " style="fill: rgb(241,206,66); fill-opacity: 1; stroke: black; stroke-opacity: 1; stroke-width: 0" />
	<polygon points="1195.83333333333,968.75 1195.83333333333,1000 1200,1000 1200,968.75 " style="fill: rgb(242,202,64); fill-opacity: 1; stroke: black; stroke-opacity: 1; stroke-width: 0" />
	<polygon points="1200,968.75 1200,1000 1204.16666666667,1000 1204.16666666667,968.75 " style="fill: rgb(242,197,63); fill-opacity: 1; stroke: black; stroke-opacity: 1; stroke-width: 0" />
	<polygon points="1204.16666666667,968.75 1204.16666666667,1000 1208.33333333333,1000 1208.33333333333,968.75 " style="fill: rgb(242,192,61); fill-opacity: 1; stroke: black; stroke-opacity: 1; stroke-width: 0" />
	<polygon points="1208.33333333333,968.75 1208.33333333333,1000 1212.5,1000 1212.5,968.75 " style="fill: rgb(243,188,60); fill-opacity: 1; stroke: black; stroke-opacity: 1; stroke-width: 0" />
	<polygon points="1212.5,968.75 1212.5,1000 1216.66666666667,1000 1216.66666666667,968.75 " style="fill: rgb(243,183,58); fill-opacity: 1; stroke: black; stroke-opacity: 1; stroke-width: 0" />
	<polygon points="1216.66666666667,968.75 1216.66666666667,1000 1220.83333333333,1000 1220.83333333333,968.75 " style="fill: rgb(243,178,57); fill-opacity: 1; stroke: black; stroke-opacity: 1; stroke-width: 0" />
	<polygon points="1220.83333333333,968.75 1220.83333333333,1000 1225,1000 1225,968.75 " style="fill: rgb(243,173,55); fill-opacity: 1; stroke: black; stroke-opacity: 1; stroke-width: 0" />
	<polygon points="1225,968.75 1225,1000 1229.16666666667,1000 1229.16666666667,968.75 " style="fill: rgb(244,169,54); fill-opacity: 1; stroke: black; stroke-opacity: 1; stroke-width: 0" />
	<polygon points="1229.16666666667,968.75 1229.16666666667,1000 1233.33333333333,1000 1233.33333333333,968.75 " style="fill: rgb(244,164,52); fill-opacity: 1; stroke: black; stroke-opacity: 1; stroke-width: 0" />
	<polygon points="1233.33333333333,968.75 1233.33333333333,1000 1237.5,1000 1237.5,968.75 " style="fill: rgb(244,159,51); fill-opacity: 1; stroke: black; stroke-opacity: 1; stroke-width: 0" />
	<polygon points="1237.5,968.75 1237.5,1000 1241.66666666667,1000 1241.66666666667,968.75 " style="fill: rgb(245,155,49); fill-opacity: 1; stroke: black; stroke-opacity: 1; stroke-width: 0" />
	<polygon points="1241.66666666667,968.75 1241.66666666667,1000 1245.83333333333,1000 1245.83333333333,968.75 " style="fill: rgb(245,150,48); fill-opacity: 1; stroke: black; stroke-opacity: 1; stroke-width: 0" />
	<polygon points="1245.83333333333,968.75 1245.83333333333,1000 1250,1000 1250,968.75 " style="fill: rgb(245,145,46); fill-opacity: 1; stroke: black; stroke-opacity: 1; stroke-width: 0" />
	<polygon points="1250,968.75 1250,1000 1254.16666666667,1000 1254.16666666667,968.75 " style="fill: rgb(246,141,45); fill-opacity: 1; stroke: black; stroke-opacity: 1; stroke-width: 0" />
	<polygon points="1254.16666666667,968.75 1254.16666666667,1000 1258.33333333333,1000 1258.33333333333,968.75 " style="fill: rgb(246,136,43); fill-opacity: 1; stroke: black; stroke-opacity: 1; stroke-width: 0" />
	<polygon points="1258.33333333333,968.75 1258.33333333333,1000 1262.5,1000 1262.5,968.75 " style="fill: rgb(246,131,42); fill-opacity: 1; stroke: black; stroke-opacity: 1; stroke-width: 0" />
	<polygon points="1262.5,968.75 1262.5,1000 1266.66666666667,1000 1266.66666666667,968.75 " style="fill: rgb(246,126,40); fill-opacity: 1; stroke: black; stroke-opacity: 1; stroke-width: 0" />
	<polygon points="1266.66666666667,968.75 1266.66666666667,1000 1270.83333333333,1000 1270.83333333333,968.75 " style="fill: rgb(247,122,39); fill-opacity: 1; stroke: black; stroke-opacity: 1; stroke-width: 0" />
	<polygon points="1270.83333333333,968.75 1270.83333333333,1000 1275,1000 1275,968.75 " style="fill: rgb(247,117,37); fill-opacity: 1; stroke: black; stroke-opacity: 1; stroke-width: 0" />
	<polygon points="1275,968.75 1275,1000 1279.16666666667,1000 1279.16666666667,968.75 " style="fill: rgb(247,112,36); fill-opacity: 1; stroke: black; stroke-opacity: 1; stroke-width: 0" />
	<polygon points="1279.16666666667,968.75 1279.16666666667,1000 1283.33333333333,1000 1283.33333333333,968.75 " style="fill: rgb(248,108,34); fill-opacity: 1; stroke: black; stroke-opacity: 1; stroke-width: 0" />
	<polygon points="1283.33333333333,968.75 1283.33333333333,1000 1287.5,1000 1287.5,968.75 " style="fill: rgb(248,103,33); fill-opacity: 1; stroke: black; stroke-opacity: 1; stroke-width: 0" />
	<polygon points="1287.5,968.75 1287.5,1000 1291.66666666667,1000 1291.66666666667,968.75 " style="fill: rgb(248,98,31); fill-opacity: 1; stroke: black; stroke-opacity: 1; stroke-width: 0" />
	<polygon points="1291.66666666667,968.75 1291.66666666667,1000 1295.83333333333,1000 1295.83333333333,968.75 " style="fill: rgb(249,94,30); fill-opacity: 1; stroke: black; stroke-opacity: 1; stroke-width: 0" />
	<polygon points="1295.83333333333,968.75 1295.83333333333,1000 1300,1000 1300,968.75 " style="fill: rgb(249,89,28); fill-opacity: 1; stroke: black; stroke-opacity: 1; stroke-width: 0" />
	<polygon points="1300,968.75 1300,1000 1304.16666666667,1000 1304.16666666667,968.75 " style="fill: rgb(249,84,27); fill-opacity: 1; stroke: black; stroke-opacity: 1; stroke-width: 0" />
	<polygon points="1304.16666666667,968.75 1304.16666666667,1000 1308.33333333333,1000 1308.33333333333,968.75 " style="fill: rgb(249,79,25); fill-opacity: 1; stroke: black; stroke-opacity: 1; stroke-width: 0" />
	<polygon points="1308.33333333333,968.75 1308.33333333333,1000 1312.5,1000 1312.5,968.75 " style="fill: rgb(250,75,24); fill-opacity: 1; stroke: black; stroke-opacity: 1; stroke-width: 0" />
	<polygon points="1312.5,968.75 1312.5,1000 1316.66666666667,1000 1316.66666666667,968.75 " style="fill: rgb(250,70,22); fill-opacity: 1; stroke: black; stroke-opacity: 1; stroke-width: 0" />
	<polygon points="1316.66666666667,968.75 1316.66666666667,1000 1320.83333333333,1000 1320.83333333333,968.75 " style="fill: rgb(250,65,21); fill-opacity: 1; stroke: black; stroke-opacity: 1; stroke-width: 0" />
	<polygon points="1320.83333333333,968.75 1320.83333333333,1000 1325,1000 1325,968.75 " style="fill: rgb(251,61,19); fill-opacity: 1; stroke: black; stroke-opacity: 1; stroke-width: 0" />
	<polygon points="1325,968.75 1325,1000 1329.16666666667,1000 1329.16666666667,968.75 " style="fill: rgb(251,56,18); fill-opacity: 1; stroke: black; stroke-opacity: 1; stroke-width: 0" />
	<polygon points="1329.16666666667,968.75 1329.16666666667,1000 1333.33333333333,1000 1333.33333333333,968.75 " style="fill: rgb(251,51,16); fill-opacity: 1; stroke: black; stroke-opacity: 1; stroke-width: 0" />
	<polygon points="1333.33333333333,968.75 1333.33333333333,1000 1337.5,1000 1337.5,968.75 " style="fill: rgb(252,47,15); fill-opacity: 1; stroke: black; stroke-opacity: 1; stroke-width: 0" />
	<polygon points="1337.5,968.75 1337.5,1000 1341.66666666667,1000 1341.66666666667,968.75 " style="fill: rgb(252,42,13); fill-opacity: 1; stroke: black; stroke-opacity: 1; stroke-width: 0" />
	<polygon points="1341.66666666667,968.75 1341.66666666667,1000 1345.83333333333,1000 1345.83333333333,968.75 " style="fill: rgb(252,37,12); fill-opacity: 1; stroke: black; stroke-opacity: 1; stroke-width: 0" />
	<polygon points="1345.83333333333,968.75 1345.83333333333,1000 1350,1000 1350,968.75 " style="fill: rgb(252,32,10); fill-opacity: 1; stroke: black; stroke-opacity: 1; stroke-width: 0" />
	<polygon points="1350,968.75 1350,1000 1354.16666666667,1000 1354.16666666667,968.75 " style="fill: rgb(253,28,9); fill-opacity: 1; stroke: black; stroke-opacity: 1; stroke-width: 0" />
	<polygon points="1354.16666666667,968.75 1354.16666666667,1000 1358.33333333333,1000 1358.33333333333,968.75 " style="fill: rgb(253,23,7); fill-opacity: 1; stroke: black; stroke-opacity: 1; stroke-width: 0" />
	<polygon points="1358.33333333333,968.75 1358.33333333333,1000 1362.5,1000 1362.5,968.75 " style="fill: rgb(253,18,6); fill-opacity: 1; stroke: black; stroke-opacity: 1; stroke-width: 0" />
	<polygon points="1362.5,968.75 1362.5,1000 1366.66666666667,1000 1366.66666666667,968.75 " style="fill: rgb(254,14,4); fill-opacity: 1; stroke: black; stroke-opacity: 1; stroke-width: 0" />
	<polygon points="1366.66666666667,968.75 1366.66666666667,1000 1370.83333333333,1000 1370.83333333333,968.75 " style="fill: rgb(254,9,3); fill-opacity: 1; stroke: black; stroke-opacity: 1; stroke-width: 0" />
	<polygon points="1370.83333333333,968.75 1370.83333333333,1000 1375,1000 1375,968.75 " style="fill: rgb(254,4,1); fill-opacity: 1; stroke: black; stroke-opacity: 1; stroke-width: 0" />
	<polygon points="1375,968.75 1375,1000 1379.16666666667,1000 1379.16666666667,968.75 " style="fill: rgb(255,0,0); fill-opacity: 1; stroke: black; stroke-opacity: 1; stroke-width: 0" />
	<line stroke="green" stroke-width="1" x1="125" x2="125" y1="268.75" y2="325" />
	<line stroke="grey" stroke-width="1" x1="125" x2="125" y1="218.75" y2="268.75" />
	<polygon points="150,350 125,375 150,400 175,375 " style="fill: rgb(241,236,89); fill-opacity: 1; stroke: white; stroke-opacity: 1; stroke-width: 1" />
	<polygon points="175,375 150,400 175,425 200,400 " style="fill: rgb(253,253,240); fill-opacity: 1; stroke: white; stroke-opacity: 1; stroke-width: 1" />
	<polygon points="225,425 200,450 225,475 250,450 " style="fill: rgb(254,254,251); fill-opacity: 1; stroke: white; stroke-opacity: 1; stroke-width: 1" />
	<polygon points="250,450 225,475 250,500 275,475 " style="fill: rgb(254,254,251); fill-opacity: 1; stroke: white; stroke-opacity: 1; stroke-width: 1" />
	<polygon points="300,500 275,525 300,550 325,525 " style="fill: rgb(254,254,247); fill-opacity: 1; stroke: white; stroke-opacity: 1; stroke-width: 1" />
	<polygon points="350,550 325,575 350,600 375,575 " style="fill: rgb(254,254,251); fill-opacity: 1; stroke: white; stroke-opacity: 1; stroke-width: 1" />
	<polygon points="375,575 350,600 375,625 400,600 " style="fill: rgb(254,254,251); fill-opacity: 1; stroke: white; stroke-opacity: 1; stroke-width: 1" />
	<polygon points="400,600 375,625 400,650 425,625 " style="fill: rgb(254,254,251); fill-opacity: 1; stroke: white; stroke-opacity: 1; stroke-width: 1" />
	<polygon points="500,700 475,725 500,750 525,725 " style="fill: rgb(254,253,244); fill-opacity: 1; stroke: white; stroke-opacity: 1; stroke-width: 1" />
	<polygon points="550,750 525,775 550,800 575,775 " style="fill: rgb(254,254,247); fill-opacity: 1; stroke: white; stroke-opacity: 1; stroke-width: 1" />
	<polygon points="625,825 600,850 625,875 650,850 " style="fill: rgb(253,252,233); fill-opacity: 1; stroke: white; stroke-opacity: 1; stroke-width: 1" />
	<polygon points="675,875 650,900 675,925 700,900 " style="fill: rgb(254,254,251); fill-opacity: 1; stroke: white; stroke-opacity: 1; stroke-width: 1" />
	<polygon points="725,925 700,950 725,975 750,950 " style="fill: rgb(254,254,247); fill-opacity: 1; stroke: white; stroke-opacity: 1; stroke-width: 1" />
	<line stroke="green" stroke-width="1" x1="125.44755648337" x2="175" y1="268.75" y2="325" />
	<line stroke="grey" stroke-width="1" x1="125.44755648337" x2="125.44755648337" y1="218.75" y2="268.75" />
	<polygon points="200,350 175,375 200,400 225,375 " style="fill: rgb(254,254,251); fill-opacity: 1; stroke: white; stroke-opacity: 1; stroke-width: 1" />
	<polygon points="275,425 250,450 275,475 300,450 " style="fill: rgb(254,254,251); fill-opacity: 1; stroke: white; stroke-opacity: 1; stroke-width: 1" />
	<polygon points="300,450 275,475 300,500 325,475 " style="fill: rgb(254,254,251); fill-opacity: 1; stroke: white; stroke-opacity: 1; stroke-width: 1" />
	<polygon points="325,475 300,500 325,525 350,500 " style="fill: rgb(253,253,240); fill-opacity: 1; stroke: white; stroke-opacity: 1; stroke-width: 1" />
	<polygon points="375,525 350,550 375,575 400,550 " style="fill: rgb(254,254,251); fill-opacity: 1; stroke: white; stroke-opacity: 1; stroke-width: 1" />
	<polygon points="400,550 375,575 400,600 425,575 " style="fill: rgb(254,254,251); fill-opacity: 1; stroke: white; stroke-opacity: 1; stroke-width: 1" />
	<polygon points="425,575 400,600 425,625 450,600 " style="fill: rgb(254,254,247); fill-opacity: 1; stroke: white; stroke-opacity: 1; stroke-width: 1" />
	<polygon points="500,650 475,675 500,700 525,675 " style="fill: rgb(254,254,247); fill-opacity: 1; stroke: white; stroke-opacity: 1; stroke-width: 1" />
	<polygon points="525,675 500,700 525,725 550,700 " style="fill: rgb(253,253,240); fill-opacity: 1; stroke: white; stroke-opacity: 1; stroke-width: 1" />
	<polygon points="575,725 550,750 575,775 600,750 " style="fill: rgb(254,254,247); fill-opacity: 1; stroke: white; stroke-opacity: 1; stroke-width: 1" />
	<polygon points="625,775 600,800 625,825 650,800 " style="fill: rgb(254,254,247); fill-opacity: 1; stroke: white; stroke-opacity: 1; stroke-width: 1" />
	<polygon points="650,800 625,825 650,850 675,825 " style="fill: rgb(253,253,240); fill-opacity: 1; stroke: white; stroke-opacity: 1; stroke-width: 1" />
	<polygon points="725,875 700,900 725,925 750,900 " style="fill: rgb(254,254,247); fill-opacity: 1; stroke: white; stroke-opacity: 1; stroke-width: 1" />
	<polygon points="750,900 725,925 750,950 775,925 " style="fill: rgb(252,252,229); fill-opacity: 1; stroke: white; stroke-opacity: 1; stroke-width: 1" />
	<line stroke="green" stroke-width="1" x1="267.953434054599" x2="225" y1="268.75" y2="325" />
	<line stroke="grey" stroke-width="1" x1="267.953434054599" x2="267.953434054599" y1="218.75" y2="268.75" />
	<polygon points="250,350 225,375 250,400 275,375 " style="fill: rgb(254,254,251); fill-opacity: 1; stroke: white; stroke-opacity: 1; stroke-width: 1" />
	<polygon points="275,375 250,400 275,425 300,400 " style="fill: rgb(254,254,251); fill-opacity: 1; stroke: white; stroke-opacity: 1; stroke-width: 1" />
	<polygon points="300,400 275,425 300,450 325,425 " style="fill: rgb(254,254,251); fill-opacity: 1; stroke: white; stroke-opacity: 1; stroke-width: 1" />
	<polygon points="325,425 300,450 325,475 350,450 " style="fill: rgb(254,254,251); fill-opacity: 1; stroke: white; stroke-opacity: 1; stroke-width: 1" />
	<polygon points="350,450 325,475 350,500 375,475 " style="fill: rgb(254,254,251); fill-opacity: 1; stroke: white; stroke-opacity: 1; stroke-width: 1" />
	<polygon points="450,550 425,575 450,600 475,575 " style="fill: rgb(254,254,247); fill-opacity: 1; stroke: white; stroke-opacity: 1; stroke-width: 1" />
	<polygon points="500,600 475,625 500,650 525,625 " style="fill: rgb(254,254,251); fill-opacity: 1; stroke: white; stroke-opacity: 1; stroke-width: 1" />
	<polygon points="525,625 500,650 525,675 550,650 " style="fill: rgb(254,254,247); fill-opacity: 1; stroke: white; stroke-opacity: 1; stroke-width: 1" />
	<polygon points="575,675 550,700 575,725 600,700 " style="fill: rgb(253,253,237); fill-opacity: 1; stroke: white; stroke-opacity: 1; stroke-width: 1" />
	<polygon points="625,725 600,750 625,775 650,750 " style="fill: rgb(254,254,251); fill-opacity: 1; stroke: white; stroke-opacity: 1; stroke-width: 1" />
	<polygon points="750,850 725,875 750,900 775,875 " style="fill: rgb(254,254,247); fill-opacity: 1; stroke: white; stroke-opacity: 1; stroke-width: 1" />
	<line stroke="green" stroke-width="1" x1="362.637839103954" x2="275" y1="268.75" y2="325" />
	<line stroke="grey" stroke-width="1" x1="362.637839103954" x2="362.637839103954" y1="218.75" y2="268.75" />
	<polygon points="325,375 300,400 325,425 350,400 " style="fill: rgb(251,250,211); fill-opacity: 1; stroke: white; stroke-opacity: 1; stroke-width: 1" />
	<polygon points="675,725 650,750 675,775 700,750 " style="fill: rgb(253,253,237); fill-opacity: 1; stroke: white; stroke-opacity: 1; stroke-width: 1" />
	<polygon points="750,800 725,825 750,850 775,825 " style="fill: rgb(254,254,251); fill-opacity: 1; stroke: white; stroke-opacity: 1; stroke-width: 1" />
	<polygon points="800,850 775,875 800,900 825,875 " style="fill: rgb(254,254,251); fill-opacity: 1; stroke: white; stroke-opacity: 1; stroke-width: 1" />
	<line stroke="green" stroke-width="1" x1="363.399378594519" x2="325" y1="268.75" y2="325" />
	<line stroke="grey" stroke-width="1" x1="363.399378594519" x2="363.399378594519" y1="218.75" y2="268.75" />
	<polygon points="575,575 550,600 575,625 600,600 " style="fill: rgb(254,254,247); fill-opacity: 1; stroke: white; stroke-opacity: 1; stroke-width: 1" />
	<polygon points="625,625 600,650 625,675 650,650 " style="fill: rgb(254,254,251); fill-opacity: 1; stroke: white; stroke-opacity: 1; stroke-width: 1" />
	<polygon points="700,700 675,725 700,750 725,725 " style="fill: rgb(254,254,251); fill-opacity: 1; stroke: white; stroke-opacity: 1; stroke-width: 1" />
	<polygon points="775,775 750,800 775,825 800,800 " style="fill: rgb(254,254,251); fill-opacity: 1; stroke: white; stroke-opacity: 1; stroke-width: 1" />
	<polygon points="825,825 800,850 825,875 850,850 " style="fill: rgb(254,254,251); fill-opacity: 1; stroke: white; stroke-opacity: 1; stroke-width: 1" />
	<line stroke="green" stroke-width="1" x1="363.402515349341" x2="375" y1="268.75" y2="325" />
	<line stroke="grey" stroke-width="1" x1="363.402515349341" x2="363.402515349341" y1="218.75" y2="268.75" />
	<polygon points="450,400 425,425 450,450 475,425 " style="fill: rgb(254,254,251); fill-opacity: 1; stroke: white; stroke-opacity: 1; stroke-width: 1" />
	<polygon points="525,475 500,500 525,525 550,500 " style="fill: rgb(254,254,247); fill-opacity: 1; stroke: white; stroke-opacity: 1; stroke-width: 1" />
	<polygon points="550,500 525,525 550,550 575,525 " style="fill: rgb(254,253,244); fill-opacity: 1; stroke: white; stroke-opacity: 1; stroke-width: 1" />
	<polygon points="575,525 550,550 575,575 600,550 " style="fill: rgb(254,253,244); fill-opacity: 1; stroke: white; stroke-opacity: 1; stroke-width: 1" />
	<polygon points="600,550 575,575 600,600 625,575 " style="fill: rgb(254,254,251); fill-opacity: 1; stroke: white; stroke-opacity: 1; stroke-width: 1" />
	<polygon points="650,600 625,625 650,650 675,625 " style="fill: rgb(254,254,247); fill-opacity: 1; stroke: white; stroke-opacity: 1; stroke-width: 1" />
	<polygon points="725,675 700,700 725,725 750,700 " style="fill: rgb(252,251,226); fill-opacity: 1; stroke: white; stroke-opacity: 1; stroke-width: 1" />
	<polygon points="800,750 775,775 800,800 825,775 " style="fill: rgb(254,254,247); fill-opacity: 1; stroke: white; stroke-opacity: 1; stroke-width: 1" />
	<polygon points="825,775 800,800 825,825 850,800 " style="fill: rgb(254,254,251); fill-opacity: 1; stroke: white; stroke-opacity: 1; stroke-width: 1" />
	<polygon points="850,800 825,825 850,850 875,825 " style="fill: rgb(254,254,251); fill-opacity: 1; stroke: white; stroke-opacity: 1; stroke-width: 1" />
	<line stroke="green" stroke-width="1" x1="617.061375836019" x2="425" y1="268.75" y2="325" />
	<line stroke="grey" stroke-width="1" x1="617.061375836019" x2="617.061375836019" y1="218.75" y2="268.75" />
	<polygon points="450,350 425,375 450,400 475,375 " style="fill: rgb(254,254,251); fill-opacity: 1; stroke: white; stroke-opacity: 1; stroke-width: 1" />
	<polygon points="475,375 450,400 475,425 500,400 " style="fill: rgb(254,253,244); fill-opacity: 1; stroke: white; stroke-opacity: 1; stroke-width: 1" />
	<polygon points="725,625 700,650 725,675 750,650 " style="fill: rgb(254,254,251); fill-opacity: 1; stroke: white; stroke-opacity: 1; stroke-width: 1" />
	<polygon points="875,775 850,800 875,825 900,800 " style="fill: rgb(254,254,251); fill-opacity: 1; stroke: white; stroke-opacity: 1; stroke-width: 1" />
	<line stroke="green" stroke-width="1" x1="617.063267114662" x2="475" y1="268.75" y2="325" />
	<line stroke="grey" stroke-width="1" x1="617.063267114662" x2="617.063267114662" y1="218.75" y2="268.75" />
	<polygon points="575,425 550,450 575,475 600,450 " style="fill: rgb(254,253,244); fill-opacity: 1; stroke: white; stroke-opacity: 1; stroke-width: 1" />
	<polygon points="625,475 600,500 625,525 650,500 " style="fill: rgb(254,254,251); fill-opacity: 1; stroke: white; stroke-opacity: 1; stroke-width: 1" />
	<polygon points="675,525 650,550 675,575 700,550 " style="fill: rgb(254,253,244); fill-opacity: 1; stroke: white; stroke-opacity: 1; stroke-width: 1" />
	<polygon points="775,625 750,650 775,675 800,650 " style="fill: rgb(254,254,251); fill-opacity: 1; stroke: white; stroke-opacity: 1; stroke-width: 1" />
	<polygon points="875,725 850,750 875,775 900,750 " style="fill: rgb(254,253,244); fill-opacity: 1; stroke: white; stroke-opacity: 1; stroke-width: 1" />
	<line stroke="green" stroke-width="1" x1="701.179714524559" x2="525" y1="268.75" y2="325" />
	<line stroke="grey" stroke-width="1" x1="701.179714524559" x2="701.179714524559" y1="218.75" y2="268.75" />
	<polygon points="550,350 525,375 550,400 575,375 " style="fill: rgb(254,254,251); fill-opacity: 1; stroke: white; stroke-opacity: 1; stroke-width: 1" />
	<polygon points="575,375 550,400 575,425 600,400 " style="fill: rgb(254,254,251); fill-opacity: 1; stroke: white; stroke-opacity: 1; stroke-width: 1" />
	<polygon points="625,425 600,450 625,475 650,450 " style="fill: rgb(254,254,251); fill-opacity: 1; stroke: white; stroke-opacity: 1; stroke-width: 1" />
	<polygon points="650,450 625,475 650,500 675,475 " style="fill: rgb(254,254,247); fill-opacity: 1; stroke: white; stroke-opacity: 1; stroke-width: 1" />
	<polygon points="675,475 650,500 675,525 700,500 " style="fill: rgb(254,254,251); fill-opacity: 1; stroke: white; stroke-opacity: 1; stroke-width: 1" />
	<polygon points="700,500 675,525 700,550 725,525 " style="fill: rgb(254,254,251); fill-opacity: 1; stroke: white; stroke-opacity: 1; stroke-width: 1" />
	<polygon points="750,550 725,575 750,600 775,575 " style="fill: rgb(253,253,240); fill-opacity: 1; stroke: white; stroke-opacity: 1; stroke-width: 1" />
	<polygon points="800,600 775,625 800,650 825,625 " style="fill: rgb(254,254,251); fill-opacity: 1; stroke: white; stroke-opacity: 1; stroke-width: 1" />
	<polygon points="850,650 825,675 850,700 875,675 " style="fill: rgb(254,254,251); fill-opacity: 1; stroke: white; stroke-opacity: 1; stroke-width: 1" />
	<polygon points="900,700 875,725 900,750 925,725 " style="fill: rgb(254,254,251); fill-opacity: 1; stroke: white; stroke-opacity: 1; stroke-width: 1" />
	<line stroke="green" stroke-width="1" x1="767.69214032775" x2="575" y1="268.75" y2="325" />
	<line stroke="grey" stroke-width="1" x1="767.69214032775" x2="767.69214032775" y1="218.75" y2="268.75" />
	<polygon points="650,400 625,425 650,450 675,425 " style="fill: rgb(254,254,251); fill-opacity: 1; stroke: white; stroke-opacity: 1; stroke-width: 1" />
	<polygon points="700,450 675,475 700,500 725,475 " style="fill: rgb(254,254,251); fill-opacity: 1; stroke: white; stroke-opacity: 1; stroke-width: 1" />
	<polygon points="725,475 700,500 725,525 750,500 " style="fill: rgb(253,253,240); fill-opacity: 1; stroke: white; stroke-opacity: 1; stroke-width: 1" />
	<polygon points="775,525 750,550 775,575 800,550 " style="fill: rgb(254,254,247); fill-opacity: 1; stroke: white; stroke-opacity: 1; stroke-width: 1" />
	<polygon points="925,675 900,700 925,725 950,700 " style="fill: rgb(254,254,247); fill-opacity: 1; stroke: white; stroke-opacity: 1; stroke-width: 1" />
	<polygon points="950,700 925,725 950,750 975,725 " style="fill: rgb(254,254,247); fill-opacity: 1; stroke: white; stroke-opacity: 1; stroke-width: 1" />
	<line stroke="green" stroke-width="1" x1="813.09269930566" x2="625" y1="268.75" y2="325" />
	<line stroke="grey" stroke-width="1" x1="813.09269930566" x2="813.09269930566" y1="218.75" y2="268.75" />
	<polygon points="650,350 625,375 650,400 675,375 " style="fill: rgb(254,254,251); fill-opacity: 1; stroke: white; stroke-opacity: 1; stroke-width: 1" />
	<polygon points="700,400 675,425 700,450 725,425 " style="fill: rgb(254,254,251); fill-opacity: 1; stroke: white; stroke-opacity: 1; stroke-width: 1" />
	<polygon points="850,550 825,575 850,600 875,575 " style="fill: rgb(254,254,251); fill-opacity: 1; stroke: white; stroke-opacity: 1; stroke-width: 1" />
	<polygon points="900,600 875,625 900,650 925,625 " style="fill: rgb(254,253,244); fill-opacity: 1; stroke: white; stroke-opacity: 1; stroke-width: 1" />
	<line stroke="green" stroke-width="1" x1="819.425315251548" x2="675" y1="268.75" y2="325" />
	<line stroke="grey" stroke-width="1" x1="819.425315251548" x2="819.425315251548" y1="218.75" y2="268.75" />
	<polygon points="700,350 675,375 700,400 725,375 " style="fill: rgb(254,253,244); fill-opacity: 1; stroke: white; stroke-opacity: 1; stroke-width: 1" />
	<polygon points="725,375 700,400 725,425 750,400 " style="fill: rgb(241,237,93); fill-opacity: 1; stroke: white; stroke-opacity: 1; stroke-width: 1" />
	<polygon points="750,400 725,425 750,450 775,425 " style="fill: rgb(254,253,244); fill-opacity: 1; stroke: white; stroke-opacity: 1; stroke-width: 1" />
	<polygon points="800,450 775,475 800,500 825,475 " style="fill: rgb(254,254,251); fill-opacity: 1; stroke: white; stroke-opacity: 1; stroke-width: 1" />
	<polygon points="850,500 825,525 850,550 875,525 " style="fill: rgb(254,254,247); fill-opacity: 1; stroke: white; stroke-opacity: 1; stroke-width: 1" />
	<polygon points="900,550 875,575 900,600 925,575 " style="fill: rgb(254,254,247); fill-opacity: 1; stroke: white; stroke-opacity: 1; stroke-width: 1" />
	<polygon points="975,625 950,650 975,675 1000,650 " style="fill: rgb(254,254,251); fill-opacity: 1; stroke: white; stroke-opacity: 1; stroke-width: 1" />
	<polygon points="1000,650 975,675 1000,700 1025,675 " style="fill: rgb(254,254,247); fill-opacity: 1; stroke: white; stroke-opacity: 1; stroke-width: 1" />
	<line stroke="green" stroke-width="1" x1="819.425761162772" x2="725" y1="268.75" y2="325" />
	<line stroke="grey" stroke-width="1" x1="819.425761162772" x2="819.425761162772" y1="218.75" y2="268.75" />
	<polygon points="750,350 725,375 750,400 775,375 " style="fill: rgb(254,253,244); fill-opacity: 1; stroke: white; stroke-opacity: 1; stroke-width: 1" />
	<polygon points="775,375 750,400 775,425 800,400 " style="fill: rgb(254,254,251); fill-opacity: 1; stroke: white; stroke-opacity: 1; stroke-width: 1" />
	<polygon points="800,400 775,425 800,450 825,425 " style="fill: rgb(254,254,247); fill-opacity: 1; stroke: white; stroke-opacity: 1; stroke-width: 1" />
	<polygon points="825,425 800,450 825,475 850,450 " style="fill: rgb(254,254,251); fill-opacity: 1; stroke: white; stroke-opacity: 1; stroke-width: 1" />
	<polygon points="850,450 825,475 850,500 875,475 " style="fill: rgb(254,253,244); fill-opacity: 1; stroke: white; stroke-opacity: 1; stroke-width: 1" />
	<polygon points="900,500 875,525 900,550 925,525 " style="fill: rgb(254,253,244); fill-opacity: 1; stroke: white; stroke-opacity: 1; stroke-width: 1" />
	<line stroke="green" stroke-width="1" x1="824.036360216313" x2="775" y1="268.75" y2="325" />
	<line stroke="grey" stroke-width="1" x1="824.036360216313" x2="824.036360216313" y1="218.75" y2="268.75" />
	<polygon points="800,350 775,375 800,400 825,375 " style="fill: rgb(254,254,251); fill-opacity: 1; stroke: white; stroke-opacity: 1; stroke-width: 1" />
	<polygon points="850,400 825,425 850,450 875,425 " style="fill: rgb(254,254,251); fill-opacity: 1; stroke: white; stroke-opacity: 1; stroke-width: 1" />
	<polygon points="900,450 875,475 900,500 925,475 " style="fill: rgb(254,254,251); fill-opacity: 1; stroke: white; stroke-opacity: 1; stroke-width: 1" />
	<polygon points="950,500 925,525 950,550 975,525 " style="fill: rgb(254,254,251); fill-opacity: 1; stroke: white; stroke-opacity: 1; stroke-width: 1" />
	<polygon points="975,525 950,550 975,575 1000,550 " style="fill: rgb(254,254,251); fill-opacity: 1; stroke: white; stroke-opacity: 1; stroke-width: 1" />
	<polygon points="1025,575 1000,600 1025,625 1050,600 " style="fill: rgb(254,254,251); fill-opacity: 1; stroke: white; stroke-opacity: 1; stroke-width: 1" />
	<polygon points="1050,600 1025,625 1050,650 1075,625 " style="fill: rgb(254,254,247); fill-opacity: 1; stroke: white; stroke-opacity: 1; stroke-width: 1" />
	<line stroke="green" stroke-width="1" x1="845.538983660685" x2="825" y1="268.75" y2="325" />
	<line stroke="grey" stroke-width="1" x1="845.538983660685" x2="845.538983660685" y1="218.75" y2="268.75" />
	<polygon points="850,350 825,375 850,400 875,375 " style="fill: rgb(254,254,247); fill-opacity: 1; stroke: white; stroke-opacity: 1; stroke-width: 1" />
	<polygon points="900,400 875,425 900,450 925,425 " style="fill: rgb(254,253,244); fill-opacity: 1; stroke: white; stroke-opacity: 1; stroke-width: 1" />
	<polygon points="925,425 900,450 925,475 950,450 " style="fill: rgb(254,254,247); fill-opacity: 1; stroke: white; stroke-opacity: 1; stroke-width: 1" />
	<polygon points="950,450 925,475 950,500 975,475 " style="fill: rgb(254,254,251); fill-opacity: 1; stroke: white; stroke-opacity: 1; stroke-width: 1" />
	<polygon points="975,475 950,500 975,525 1000,500 " style="fill: rgb(254,254,247); fill-opacity: 1; stroke: white; stroke-opacity: 1; stroke-width: 1" />
	<polygon points="1050,550 1025,575 1050,600 1075,575 " style="fill: rgb(254,254,251); fill-opacity: 1; stroke: white; stroke-opacity: 1; stroke-width: 1" />
	<polygon points="1075,575 1050,600 1075,625 1100,600 " style="fill: rgb(254,254,251); fill-opacity: 1; stroke: white; stroke-opacity: 1; stroke-width: 1" />
	<line stroke="green" stroke-width="1" x1="849.833462408402" x2="875" y1="268.75" y2="325" />
	<line stroke="grey" stroke-width="1" x1="849.833462408402" x2="849.833462408402" y1="218.75" y2="268.75" />
	<polygon points="925,375 900,400 925,425 950,400 " style="fill: rgb(254,254,247); fill-opacity: 1; stroke: white; stroke-opacity: 1; stroke-width: 1" />
	<polygon points="1025,475 1000,500 1025,525 1050,500 " style="fill: rgb(254,254,251); fill-opacity: 1; stroke: white; stroke-opacity: 1; stroke-width: 1" />
	<polygon points="1075,525 1050,550 1075,575 1100,550 " style="fill: rgb(254,254,251); fill-opacity: 1; stroke: white; stroke-opacity: 1; stroke-width: 1" />
	<line stroke="green" stroke-width="1" x1="849.834861647073" x2="925" y1="268.75" y2="325" />
	<line stroke="grey" stroke-width="1" x1="849.834861647073" x2="849.834861647073" y1="218.75" y2="268.75" />
	<polygon points="950,350 925,375 950,400 975,375 " style="fill: rgb(254,254,251); fill-opacity: 1; stroke: white; stroke-opacity: 1; stroke-width: 1" />
	<polygon points="975,375 950,400 975,425 1000,400 " style="fill: rgb(253,253,237); fill-opacity: 1; stroke: white; stroke-opacity: 1; stroke-width: 1" />
	<polygon points="1100,500 1075,525 1100,550 1125,525 " style="fill: rgb(254,254,251); fill-opacity: 1; stroke: white; stroke-opacity: 1; stroke-width: 1" />
	<line stroke="green" stroke-width="1" x1="1032.56371533232" x2="975" y1="268.75" y2="325" />
	<line stroke="grey" stroke-width="1" x1="1032.56371533232" x2="1032.56371533232" y1="218.75" y2="268.75" />
	<polygon points="1000,350 975,375 1000,400 1025,375 " style="fill: rgb(254,254,251); fill-opacity: 1; stroke: white; stroke-opacity: 1; stroke-width: 1" />
	<polygon points="1025,375 1000,400 1025,425 1050,400 " style="fill: rgb(254,254,251); fill-opacity: 1; stroke: white; stroke-opacity: 1; stroke-width: 1" />
	<polygon points="1050,400 1025,425 1050,450 1075,425 " style="fill: rgb(253,253,240); fill-opacity: 1; stroke: white; stroke-opacity: 1; stroke-width: 1" />
	<polygon points="1125,475 1100,500 1125,525 1150,500 " style="fill: rgb(254,253,244); fill-opacity: 1; stroke: white; stroke-opacity: 1; stroke-width: 1" />
	<polygon points="1150,500 1125,525 1150,550 1175,525 " style="fill: rgb(254,254,247); fill-opacity: 1; stroke: white; stroke-opacity: 1; stroke-width: 1" />
	<line stroke="green" stroke-width="1" x1="1150.49717820201" x2="1025" y1="268.75" y2="325" />
	<line stroke="grey" stroke-width="1" x1="1150.49717820201" x2="1150.49717820201" y1="218.75" y2="268.75" />
	<polygon points="1075,375 1050,400 1075,425 1100,400 " style="fill: rgb(254,253,244); fill-opacity: 1; stroke: white; stroke-opacity: 1; stroke-width: 1" />
	<polygon points="1150,450 1125,475 1150,500 1175,475 " style="fill: rgb(254,254,251); fill-opacity: 1; stroke: white; stroke-opacity: 1; stroke-width: 1" />
	<polygon points="1175,475 1150,500 1175,525 1200,500 " style="fill: rgb(254,254,251); fill-opacity: 1; stroke: white; stroke-opacity: 1; stroke-width: 1" />
	<line stroke="green" stroke-width="1" x1="1150.49754723199" x2="1075" y1="268.75" y2="325" />
	<line stroke="grey" stroke-width="1" x1="1150.49754723199" x2="1150.49754723199" y1="218.75" y2="268.75" />
	<polygon points="1100,350 1075,375 1100,400 1125,375 " style="fill: rgb(254,254,247); fill-opacity: 1; stroke: white; stroke-opacity: 1; stroke-width: 1" />
	<polygon points="1150,400 1125,425 1150,450 1175,425 " style="fill: rgb(254,253,244); fill-opacity: 1; stroke: white; stroke-opacity: 1; stroke-width: 1" />
	<polygon points="1175,425 1150,450 1175,475 1200,450 " style="fill: rgb(254,254,247); fill-opacity: 1; stroke: white; stroke-opacity: 1; stroke-width: 1" />
	<line stroke="green" stroke-width="1" x1="1280.3029351722" x2="1125" y1="268.75" y2="325" />
	<line stroke="grey" stroke-width="1" x1="1280.3029351722" x2="1280.3029351722" y1="218.75" y2="268.75" />
	<line stroke="green" stroke-width="1" x1="1280.30484182709" x2="1175" y1="268.75" y2="325" />
	<line stroke="grey" stroke-width="1" x1="1280.30484182709" x2="1280.30484182709" y1="218.75" y2="268.75" />
	<polygon points="1250,400 1225,425 1250,450 1275,425 " style="fill: rgb(254,254,251); fill-opacity: 1; stroke: white; stroke-opacity: 1; stroke-width: 1" />
	<line stroke="green" stroke-width="1" x1="1280.30619493701" x2="1225" y1="268.75" y2="325" />
	<line stroke="grey" stroke-width="1" x1="1280.30619493701" x2="1280.30619493701" y1="218.75" y2="268.75" />
	<line stroke="green" stroke-width="1" x1="1297.01398111079" x2="1275" y1="268.75" y2="325" />
	<line stroke="grey" stroke-width="1" x1="1297.01398111079" x2="1297.01398111079" y1="218.75" y2="268.75" />
	<line stroke="green" stroke-width="1" x1="1325" x2="1325" y1="268.75" y2="325" />
	<line stroke="grey" stroke-width="1" x1="1325" x2="1325" y1="218.75" y2="268.75" />
	<!-- 
	Generated using the Perl SVG Module V2.78
	by Ronan Oger
	Info: http://www.roitsystems.com/
 -->
</svg>