<?xml version="1.0" encoding="UTF-8" standalone="yes"?>
<!DOCTYPE svg PUBLIC "-//W3C//DTD SVG 1.0//EN" "http://www.w3.org/TR/2001/REC-SVG-20010904/DTD/svg10.dtd">
<svg height="892.5" width="1207.5" xmlns="http://www.w3.org/2000/svg" xmlns:svg="http://www.w3.org/2000/svg" xmlns:xlink="http://www.w3.org/1999/xlink">
	<polygon points="805,813.75 805,840 1158.5,840 1158.5,813.75 " style="fill: none; fill-opacity: 1; stroke: black; stroke-opacity: 1; stroke-width: 1.640625" />
	<text font-family="Arial" font-size="26.25" text-anchor="middle" x="805" y="866.25">0.0</text>
	<text font-family="Arial" font-size="26.25" text-anchor="middle" x="1155" y="866.25">1.0</text>
	<polygon points="105,183.75 105,225.75 1105,225.75 1105,183.75 " style="fill: #a6cee3; fill-opacity: 1; stroke: black; stroke-opacity: 1; stroke-width: 0" />
	<text font-family="Arial" font-size="13.125" text-anchor="middle" x="605" y="170.625">NC_000005.10 Region:156.92 (Mb)</text>
	<text font-family="Arial" font-size="13.125" text-anchor="middle" x="1105" y="170.625">End:158.793 (Mb)</text>
	<text font-family="Arial" font-size="13.125" text-anchor="middle" x="105" y="170.625">Start:1.877 </text>
	<text font-family="Arial" font-size="26.25" text-anchor="middle" x="980" y="787.5">R^2 Color Key</text>
	<polygon points="805,813.75 805,840 808.5,840 808.5,813.75 " style="fill: rgb(255,255,255); fill-opacity: 1; stroke: black; stroke-opacity: 1; stroke-width: 0" />
	<polygon points="808.5,813.75 808.5,840 812,840 812,813.75 " style="fill: rgb(254,254,251); fill-opacity: 1; stroke: black; stroke-opacity: 1; stroke-width: 0" />
	<polygon points="812,813.75 812,840 815.5,840 815.5,813.75 " style="fill: rgb(254,254,247); fill-opacity: 1; stroke: black; stroke-opacity: 1; stroke-width: 0" />
	<polygon points="815.5,813.75 815.5,840 819,840 819,813.75 " style="fill: rgb(254,253,244); fill-opacity: 1; stroke: black; stroke-opacity: 1; stroke-width: 0" />
	<polygon points="819,813.75 819,840 822.5,840 822.5,813.75 " style="fill: rgb(253,253,240); fill-opacity: 1; stroke: black; stroke-opacity: 1; stroke-width: 0" />
	<polygon points="822.5,813.75 822.5,840 826,840 826,813.75 " style="fill: rgb(253,253,237); fill-opacity: 1; stroke: black; stroke-opacity: 1; stroke-width: 0" />
	<polygon points="826,813.75 826,840 829.5,840 829.5,813.75 " style="fill: rgb(253,252,233); fill-opacity: 1; stroke: black; stroke-opacity: 1; stroke-width: 0" />
	<polygon points="829.5,813.75 829.5,840 833,840 833,813.75 " style="fill: rgb(252,252,229); fill-opacity: 1; stroke: black; stroke-opacity: 1; stroke-width: 0" />
	<polygon points="833,813.75 833,840 836.5,840 836.5,813.75 " style="fill: rgb(252,251,226); fill-opacity: 1; stroke: black; stroke-opacity: 1; stroke-width: 0" />
	<polygon points="836.5,813.75 836.5,840 840,840 840,813.75 " style="fill: rgb(252,251,222); fill-opacity: 1; stroke: black; stroke-opacity: 1; stroke-width: 0" />
	<polygon points="840,813.75 840,840 843.5,840 843.5,813.75 " style="fill: rgb(252,251,219); fill-opacity: 1; stroke: black; stroke-opacity: 1; stroke-width: 0" />
	<polygon points="843.5,813.75 843.5,840 847,840 847,813.75 " style="fill: rgb(251,250,215); fill-opacity: 1; stroke: black; stroke-opacity: 1; stroke-width: 0" />
	<polygon points="847,813.75 847,840 850.5,840 850.5,813.75 " style="fill: rgb(251,250,211); fill-opacity: 1; stroke: black; stroke-opacity: 1; stroke-width: 0" />
	<polygon points="850.5,813.75 850.5,840 854,840 854,813.75 " style="fill: rgb(251,249,208); fill-opacity: 1; stroke: black; stroke-opacity: 1; stroke-width: 0" />
	<polygon points="854,813.75 854,840 857.5,840 857.5,813.75 " style="fill: rgb(250,249,204); fill-opacity: 1; stroke: black; stroke-opacity: 1; stroke-width: 0" />
	<polygon points="857.5,813.75 857.5,840 861,840 861,813.75 " style="fill: rgb(250,249,201); fill-opacity: 1; stroke: black; stroke-opacity: 1; stroke-width: 0" />
	<polygon points="861,813.75 861,840 864.5,840 864.5,813.75 " style="fill: rgb(250,248,197); fill-opacity: 1; stroke: black; stroke-opacity: 1; stroke-width: 0" />
	<polygon points="864.5,813.75 864.5,840 868,840 868,813.75 " style="fill: rgb(249,248,193); fill-opacity: 1; stroke: black; stroke-opacity: 1; stroke-width: 0" />
	<polygon points="868,813.75 868,840 871.5,840 871.5,813.75 " style="fill: rgb(249,247,190); fill-opacity: 1; stroke: black; stroke-opacity: 1; stroke-width: 0" />
	<polygon points="871.5,813.75 871.5,840 875,840 875,813.75 " style="fill: rgb(249,247,186); fill-opacity: 1; stroke: black; stroke-opacity: 1; stroke-width: 0" />
	<polygon points="875,813.75 875,840 878.5,840 878.5,813.75 " style="fill: rgb(249,247,183); fill-opacity: 1; stroke: black; stroke-opacity: 1; stroke-width: 0" />
	<polygon points="878.5,813.75 878.5,840 882,840 882,813.75 " style="fill: rgb(248,246,179); fill-opacity: 1; stroke: black; stroke-opacity: 1; stroke-width: 0" />
	<polygon points="882,813.75 882,840 885.5,840 885.5,813.75 " style="fill: rgb(248,246,175); fill-opacity: 1; stroke: black; stroke-opacity: 1; stroke-width: 0" />
	<polygon points="885.5,813.75 885.5,840 889,840 889,813.75 " style="fill: rgb(248,245,172); fill-opacity: 1; stroke: black; stroke-opacity: 1; stroke-width: 0" />
	<polygon points="889,813.75 889,840 892.5,840 892.5,813.75 " style="fill: rgb(247,245,168); fill-opacity: 1; stroke: black; stroke-opacity: 1; stroke-width: 0" />
	<polygon points="892.5,813.75 892.5,840 896,840 896,813.75 " style="fill: rgb(247,245,165); fill-opacity: 1; stroke: black; stroke-opacity: 1; stroke-width: 0" />
	<polygon points="896,813.75 896,840 899.5,840 899.5,813.75 " style="fill: rgb(247,244,161); fill-opacity: 1; stroke: black; stroke-opacity: 1; stroke-width: 0" />
	<polygon points="899.5,813.75 899.5,840 903,840 903,813.75 " style="fill: rgb(246,244,157); fill-opacity: 1; stroke: black; stroke-opacity: 1; stroke-width: 0" />
	<polygon points="903,813.75 903,840 906.5,840 906.5,813.75 " style="fill: rgb(246,243,154); fill-opacity: 1; stroke: black; stroke-opacity: 1; stroke-width: 0" />
	<polygon points="906.5,813.75 906.5,840 910,840 910,813.75 " style="fill: rgb(246,243,150); fill-opacity: 1; stroke: black; stroke-opacity: 1; stroke-width: 0" />
	<polygon points="910,813.75 910,840 913.5,840 913.5,813.75 " style="fill: rgb(246,243,147); fill-opacity: 1; stroke: black; stroke-opacity: 1; stroke-width: 0" />
	<polygon points="913.5,813.75 913.5,840 917,840 917,813.75 " style="fill: rgb(245,242,143); fill-opacity: 1; stroke: black; stroke-opacity: 1; stroke-width: 0" />
	<polygon points="917,813.75 917,840 920.5,840 920.5,813.75 " style="fill: rgb(245,242,139); fill-opacity: 1; stroke: black; stroke-opacity: 1; stroke-width: 0" />
	<polygon points="920.5,813.75 920.5,840 924,840 924,813.75 " style="fill: rgb(245,241,136); fill-opacity: 1; stroke: black; stroke-opacity: 1; stroke-width: 0" />
	<polygon points="924,813.75 924,840 927.5,840 927.5,813.75 " style="fill: rgb(244,241,132); fill-opacity: 1; stroke: black; stroke-opacity: 1; stroke-width: 0" />
	<polygon points="927.5,813.75 927.5,840 931,840 931,813.75 " style="fill: rgb(244,241,129); fill-opacity: 1; stroke: black; stroke-opacity: 1; stroke-width: 0" />
	<polygon points="931,813.75 931,840 934.5,840 934.5,813.75 " style="fill: rgb(244,240,125); fill-opacity: 1; stroke: black; stroke-opacity: 1; stroke-width: 0" />
	<polygon points="934.5,813.75 934.5,840 938,840 938,813.75 " style="fill: rgb(243,240,121); fill-opacity: 1; stroke: black; stroke-opacity: 1; stroke-width: 0" />
	<polygon points="938,813.75 938,840 941.5,840 941.5,813.75 " style="fill: rgb(243,239,118); fill-opacity: 1; stroke: black; stroke-opacity: 1; stroke-width: 0" />
	<polygon points="941.5,813.75 941.5,840 945,840 945,813.75 " style="fill: rgb(243,239,114); fill-opacity: 1; stroke: black; stroke-opacity: 1; stroke-width: 0" />
	<polygon points="945,813.75 945,840 948.5,840 948.5,813.75 " style="fill: rgb(243,239,111); fill-opacity: 1; stroke: black; stroke-opacity: 1; stroke-width: 0" />
	<polygon points="948.5,813.75 948.5,840 952,840 952,813.75 " style="fill: rgb(242,238,107); fill-opacity: 1; stroke: black; stroke-opacity: 1; stroke-width: 0" />
	<polygon points="952,813.75 952,840 955.5,840 955.5,813.75 " style="fill: rgb(242,238,103); fill-opacity: 1; stroke: black; stroke-opacity: 1; stroke-width: 0" />
	<polygon points="955.5,813.75 955.5,840 959,840 959,813.75 " style="fill: rgb(242,237,100); fill-opacity: 1; stroke: black; stroke-opacity: 1; stroke-width: 0" />
	<polygon points="959,813.75 959,840 962.5,840 962.5,813.75 " style="fill: rgb(241,237,96); fill-opacity: 1; stroke: black; stroke-opacity: 1; stroke-width: 0" />
	<polygon points="962.5,813.75 962.5,840 966,840 966,813.75 " style="fill: rgb(241,237,93); fill-opacity: 1; stroke: black; stroke-opacity: 1; stroke-width: 0" />
	<polygon points="966,813.75 966,840 969.5,840 969.5,813.75 " style="fill: rgb(241,236,89); fill-opacity: 1; stroke: black; stroke-opacity: 1; stroke-width: 0" />
	<polygon points="969.5,813.75 969.5,840 973,840 973,813.75 " style="fill: rgb(240,236,85); fill-opacity: 1; stroke: black; stroke-opacity: 1; stroke-width: 0" />
	<polygon points="973,813.75 973,840 976.5,840 976.5,813.75 " style="fill: rgb(240,235,82); fill-opacity: 1; stroke: black; stroke-opacity: 1; stroke-width: 0" />
	<polygon points="976.5,813.75 976.5,840 980,840 980,813.75 " style="fill: rgb(240,235,78); fill-opacity: 1; stroke: black; stroke-opacity: 1; stroke-width: 0" />
	<polygon points="980,813.75 980,840 983.5,840 983.5,813.75 " style="fill: rgb(240,235,75); fill-opacity: 1; stroke: black; stroke-opacity: 1; stroke-width: 0" />
	<polygon points="983.5,813.75 983.5,840 987,840 987,813.75 " style="fill: rgb(240,230,73); fill-opacity: 1; stroke: black; stroke-opacity: 1; stroke-width: 0" />
	<polygon points="987,813.75 987,840 990.5,840 990.5,813.75 " style="fill: rgb(240,225,72); fill-opacity: 1; stroke: black; stroke-opacity: 1; stroke-width: 0" />
	<polygon points="990.5,813.75 990.5,840 994,840 994,813.75 " style="fill: rgb(240,220,70); fill-opacity: 1; stroke: black; stroke-opacity: 1; stroke-width: 0" />
	<polygon points="994,813.75 994,840 997.5,840 997.5,813.75 " style="fill: rgb(241,216,69); fill-opacity: 1; stroke: black; stroke-opacity: 1; stroke-width: 0" />
	<polygon points="997.5,813.75 997.5,840 1001,840 1001,813.75 " style="fill: rgb(241,211,67); fill-opacity: 1; stroke: black; stroke-opacity: 1; stroke-width: 0" />
	<polygon points="1001,813.75 1001,840 1004.5,840 1004.5,813.75 " style="fill: rgb(241,206,66); fill-opacity: 1; stroke: black; stroke-opacity: 1; stroke-width: 0" />
	<polygon points="1004.5,813.75 1004.5,840 1008,840 1008,813.75 " style="fill: rgb(242,202,64); fill-opacity: 1; stroke: black; stroke-opacity: 1; stroke-width: 0" />
	<polygon points="1008,813.75 1008,840 1011.5,840 1011.5,813.75 " style="fill: rgb(242,197,63); fill-opacity: 1; stroke: black; stroke-opacity: 1; stroke-width: 0" />
	<polygon points="1011.5,813.75 1011.5,840 1015,840 1015,813.75 " style="fill: rgb(242,192,61); fill-opacity: 1; stroke: black; stroke-opacity: 1; stroke-width: 0" />
	<polygon points="1015,813.75 1015,840 1018.5,840 1018.5,813.75 " style="fill: rgb(243,188,60); fill-opacity: 1; stroke: black; stroke-opacity: 1; stroke-width: 0" />
	<polygon points="1018.5,813.75 1018.5,840 1022,840 1022,813.75 " style="fill: rgb(243,183,58); fill-opacity: 1; stroke: black; stroke-opacity: 1; stroke-width: 0" />
	<polygon points="1022,813.75 1022,840 1025.5,840 1025.5,813.75 " style="fill: rgb(243,178,57); fill-opacity: 1; stroke: black; stroke-opacity: 1; stroke-width: 0" />
	<polygon points="1025.5,813.75 1025.5,840 1029,840 1029,813.75 " style="fill: rgb(243,173,55); fill-opacity: 1; stroke: black; stroke-opacity: 1; stroke-width: 0" />
	<polygon points="1029,813.75 1029,840 1032.5,840 1032.5,813.75 " style="fill: rgb(244,169,54); fill-opacity: 1; stroke: black; stroke-opacity: 1; stroke-width: 0" />
	<polygon points="1032.5,813.75 1032.5,840 1036,840 1036,813.75 " style="fill: rgb(244,164,52); fill-opacity: 1; stroke: black; stroke-opacity: 1; stroke-width: 0" />
	<polygon points="1036,813.75 1036,840 1039.5,840 1039.5,813.75 " style="fill: rgb(244,159,51); fill-opacity: 1; stroke: black; stroke-opacity: 1; stroke-width: 0" />
	<polygon points="1039.5,813.75 1039.5,840 1043,840 1043,813.75 " style="fill: rgb(245,155,49); fill-opacity: 1; stroke: black; stroke-opacity: 1; stroke-width: 0" />
	<polygon points="1043,813.75 1043,840 1046.5,840 1046.5,813.75 " style="fill: rgb(245,150,48); fill-opacity: 1; stroke: black; stroke-opacity: 1; stroke-width: 0" />
	<polygon points="1046.5,813.75 1046.5,840 1050,840 1050,813.75 " style="fill: rgb(245,145,46); fill-opacity: 1; stroke: black; stroke-opacity: 1; stroke-width: 0" />
	<polygon points="1050,813.75 1050,840 1053.5,840 1053.5,813.75 " style="fill: rgb(246,141,45); fill-opacity: 1; stroke: black; stroke-opacity: 1; stroke-width: 0" />
	<polygon points="1053.5,813.75 1053.5,840 1057,840 1057,813.75 " style="fill: rgb(246,136,43); fill-opacity: 1; stroke: black; stroke-opacity: 1; stroke-width: 0" />
	<polygon points="1057,813.75 1057,840 1060.5,840 1060.5,813.75 " style="fill: rgb(246,131,42); fill-opacity: 1; stroke: black; stroke-opacity: 1; stroke-width: 0" />
	<polygon points="1060.5,813.75 1060.5,840 1064,840 1064,813.75 " style="fill: rgb(246,126,40); fill-opacity: 1; stroke: black; stroke-opacity: 1; stroke-width: 0" />
	<polygon points="1064,813.75 1064,840 1067.5,840 1067.5,813.75 " style="fill: rgb(247,122,39); fill-opacity: 1; stroke: black; stroke-opacity: 1; stroke-width: 0" />
	<polygon points="1067.5,813.75 1067.5,840 1071,840 1071,813.75 " style="fill: rgb(247,117,37); fill-opacity: 1; stroke: black; stroke-opacity: 1; stroke-width: 0" />
	<polygon points="1071,813.75 1071,840 1074.5,840 1074.5,813.75 " style="fill: rgb(247,112,36); fill-opacity: 1; stroke: black; stroke-opacity: 1; stroke-width: 0" />
	<polygon points="1074.5,813.75 1074.5,840 1078,840 1078,813.75 " style="fill: rgb(248,108,34); fill-opacity: 1; stroke: black; stroke-opacity: 1; stroke-width: 0" />
	<polygon points="1078,813.75 1078,840 1081.5,840 1081.5,813.75 " style="fill: rgb(248,103,33); fill-opacity: 1; stroke: black; stroke-opacity: 1; stroke-width: 0" />
	<polygon points="1081.5,813.75 1081.5,840 1085,840 1085,813.75 " style="fill: rgb(248,98,31); fill-opacity: 1; stroke: black; stroke-opacity: 1; stroke-width: 0" />
	<polygon points="1085,813.75 1085,840 1088.5,840 1088.5,813.75 " style="fill: rgb(249,94,30); fill-opacity: 1; stroke: black; stroke-opacity: 1; stroke-width: 0" />
	<polygon points="1088.5,813.75 1088.5,840 1092,840 1092,813.75 " style="fill: rgb(249,89,28); fill-opacity: 1; stroke: black; stroke-opacity: 1; stroke-width: 0" />
	<polygon points="1092,813.75 1092,840 1095.5,840 1095.5,813.75 " style="fill: rgb(249,84,27); fill-opacity: 1; stroke: black; stroke-opacity: 1; stroke-width: 0" />
	<polygon points="1095.5,813.75 1095.5,840 1099,840 1099,813.75 " style="fill: rgb(249,79,25); fill-opacity: 1; stroke: black; stroke-opacity: 1; stroke-width: 0" />
	<polygon points="1099,813.75 1099,840 1102.5,840 1102.5,813.75 " style="fill: rgb(250,75,24); fill-opacity: 1; stroke: black; stroke-opacity: 1; stroke-width: 0" />
	<polygon points="1102.5,813.75 1102.5,840 1106,840 1106,813.75 " style="fill: rgb(250,70,22); fill-opacity: 1; stroke: black; stroke-opacity: 1; stroke-width: 0" />
	<polygon points="1106,813.75 1106,840 1109.5,840 1109.5,813.75 " style="fill: rgb(250,65,21); fill-opacity: 1; stroke: black; stroke-opacity: 1; stroke-width: 0" />
	<polygon points="1109.5,813.75 1109.5,840 1113,840 1113,813.75 " style="fill: rgb(251,61,19); fill-opacity: 1; stroke: black; stroke-opacity: 1; stroke-width: 0" />
	<polygon points="1113,813.75 1113,840 1116.5,840 1116.5,813.75 " style="fill: rgb(251,56,18); fill-opacity: 1; stroke: black; stroke-opacity: 1; stroke-width: 0" />
	<polygon points="1116.5,813.75 1116.5,840 1120,840 1120,813.75 " style="fill: rgb(251,51,16); fill-opacity: 1; stroke: black; stroke-opacity: 1; stroke-width: 0" />
	<polygon points="1120,813.75 1120,840 1123.5,840 1123.5,813.75 " style="fill: rgb(252,47,15); fill-opacity: 1; stroke: black; stroke-opacity: 1; stroke-width: 0" />
	<polygon points="1123.5,813.75 1123.5,840 1127,840 1127,813.75 " style="fill: rgb(252,42,13); fill-opacity: 1; stroke: black; stroke-opacity: 1; stroke-width: 0" />
	<polygon points="1127,813.75 1127,840 1130.5,840 1130.5,813.75 " style="fill: rgb(252,37,12); fill-opacity: 1; stroke: black; stroke-opacity: 1; stroke-width: 0" />
	<polygon points="1130.5,813.75 1130.5,840 1134,840 1134,813.75 " style="fill: rgb(252,32,10); fill-opacity: 1; stroke: black; stroke-opacity: 1; stroke-width: 0" />
	<polygon points="1134,813.75 1134,840 1137.5,840 1137.5,813.75 " style="fill: rgb(253,28,9); fill-opacity: 1; stroke: black; stroke-opacity: 1; stroke-width: 0" />
	<polygon points="1137.5,813.75 1137.5,840 1141,840 1141,813.75 " style="fill: rgb(253,23,7); fill-opacity: 1; stroke: black; stroke-opacity: 1; stroke-width: 0" />
	<polygon points="1141,813.75 1141,840 1144.5,840 1144.5,813.75 " style="fill: rgb(253,18,6); fill-opacity: 1; stroke: black; stroke-opacity: 1; stroke-width: 0" />
	<polygon points="1144.5,813.75 1144.5,840 1148,840 1148,813.75 " style="fill: rgb(254,14,4); fill-opacity: 1; stroke: black; stroke-opacity: 1; stroke-width: 0" />
	<polygon points="1148,813.75 1148,840 1151.5,840 1151.5,813.75 " style="fill: rgb(254,9,3); fill-opacity: 1; stroke: black; stroke-opacity: 1; stroke-width: 0" />
	<polygon points="1151.5,813.75 1151.5,840 1155,840 1155,813.75 " style="fill: rgb(254,4,1); fill-opacity: 1; stroke: black; stroke-opacity: 1; stroke-width: 0" />
	<polygon points="1155,813.75 1155,840 1158.5,840 1158.5,813.75 " style="fill: rgb(255,0,0); fill-opacity: 1; stroke: black; stroke-opacity: 1; stroke-width: 0" />
	<line stroke="green" stroke-width="1" x1="105" x2="105" y1="225.75" y2="265" />
	<line stroke="grey" stroke-width="1" x1="105" x2="105" y1="183.75" y2="225.75" />
	<polygon points="330,490 305,515 330,540 355,515 " style="fill: rgb(254,254,251); fill-opacity: 1; stroke: white; stroke-opacity: 1; stroke-width: 1" />
	<polygon points="355,515 330,540 355,565 380,540 " style="fill: rgb(253,252,233); fill-opacity: 1; stroke: white; stroke-opacity: 1; stroke-width: 1" />
	<polygon points="380,540 355,565 380,590 405,565 " style="fill: rgb(253,252,233); fill-opacity: 1; stroke: white; stroke-opacity: 1; stroke-width: 1" />
	<polygon points="430,590 405,615 430,640 455,615 " style="fill: rgb(253,252,233); fill-opacity: 1; stroke: white; stroke-opacity: 1; stroke-width: 1" />
	<polygon points="555,715 530,740 555,765 580,740 " style="fill: rgb(254,254,251); fill-opacity: 1; stroke: white; stroke-opacity: 1; stroke-width: 1" />
	<polygon points="580,740 555,765 580,790 605,765 " style="fill: rgb(254,253,244); fill-opacity: 1; stroke: white; stroke-opacity: 1; stroke-width: 1" />
	<line stroke="green" stroke-width="1" x1="302.161551593938" x2="155" y1="225.75" y2="265" />
	<line stroke="grey" stroke-width="1" x1="302.161551593938" x2="302.161551593938" y1="183.75" y2="225.75" />
	<polygon points="180,290 155,315 180,340 205,315 " style="fill: rgb(253,253,237); fill-opacity: 1; stroke: white; stroke-opacity: 1; stroke-width: 1" />
	<polygon points="205,315 180,340 205,365 230,340 " style="fill: rgb(254,254,251); fill-opacity: 1; stroke: white; stroke-opacity: 1; stroke-width: 1" />
	<polygon points="255,365 230,390 255,415 280,390 " style="fill: rgb(254,254,247); fill-opacity: 1; stroke: white; stroke-opacity: 1; stroke-width: 1" />
	<polygon points="280,390 255,415 280,440 305,415 " style="fill: rgb(254,254,251); fill-opacity: 1; stroke: white; stroke-opacity: 1; stroke-width: 1" />
	<polygon points="355,465 330,490 355,515 380,490 " style="fill: rgb(254,254,247); fill-opacity: 1; stroke: white; stroke-opacity: 1; stroke-width: 1" />
	<polygon points="580,690 555,715 580,740 605,715 " style="fill: rgb(254,254,251); fill-opacity: 1; stroke: white; stroke-opacity: 1; stroke-width: 1" />
	<line stroke="green" stroke-width="1" x1="437.184506953115" x2="205" y1="225.75" y2="265" />
	<line stroke="grey" stroke-width="1" x1="437.184506953115" x2="437.184506953115" y1="183.75" y2="225.75" />
	<polygon points="230,290 205,315 230,340 255,315 " style="fill: rgb(254,254,251); fill-opacity: 1; stroke: white; stroke-opacity: 1; stroke-width: 1" />
	<polygon points="255,315 230,340 255,365 280,340 " style="fill: rgb(254,254,251); fill-opacity: 1; stroke: white; stroke-opacity: 1; stroke-width: 1" />
	<polygon points="280,340 255,365 280,390 305,365 " style="fill: rgb(254,254,251); fill-opacity: 1; stroke: white; stroke-opacity: 1; stroke-width: 1" />
	<polygon points="305,365 280,390 305,415 330,390 " style="fill: rgb(254,254,251); fill-opacity: 1; stroke: white; stroke-opacity: 1; stroke-width: 1" />
	<polygon points="355,415 330,440 355,465 380,440 " style="fill: rgb(254,254,251); fill-opacity: 1; stroke: white; stroke-opacity: 1; stroke-width: 1" />
	<polygon points="380,440 355,465 380,490 405,465 " style="fill: rgb(254,254,251); fill-opacity: 1; stroke: white; stroke-opacity: 1; stroke-width: 1" />
	<polygon points="405,465 380,490 405,515 430,490 " style="fill: rgb(254,254,247); fill-opacity: 1; stroke: white; stroke-opacity: 1; stroke-width: 1" />
	<polygon points="430,490 405,515 430,540 455,515 " style="fill: rgb(254,254,247); fill-opacity: 1; stroke: white; stroke-opacity: 1; stroke-width: 1" />
	<polygon points="455,515 430,540 455,565 480,540 " style="fill: rgb(254,254,251); fill-opacity: 1; stroke: white; stroke-opacity: 1; stroke-width: 1" />
	<polygon points="480,540 455,565 480,590 505,565 " style="fill: rgb(254,254,247); fill-opacity: 1; stroke: white; stroke-opacity: 1; stroke-width: 1" />
	<polygon points="505,565 480,590 505,615 530,590 " style="fill: rgb(254,254,251); fill-opacity: 1; stroke: white; stroke-opacity: 1; stroke-width: 1" />
	<polygon points="655,715 630,740 655,765 680,740 " style="fill: rgb(253,253,240); fill-opacity: 1; stroke: white; stroke-opacity: 1; stroke-width: 1" />
	<line stroke="green" stroke-width="1" x1="453.522947115917" x2="255" y1="225.75" y2="265" />
	<line stroke="grey" stroke-width="1" x1="453.522947115917" x2="453.522947115917" y1="183.75" y2="225.75" />
	<polygon points="280,290 255,315 280,340 305,315 " style="fill: rgb(254,254,251); fill-opacity: 1; stroke: white; stroke-opacity: 1; stroke-width: 1" />
	<polygon points="305,315 280,340 305,365 330,340 " style="fill: rgb(254,254,251); fill-opacity: 1; stroke: white; stroke-opacity: 1; stroke-width: 1" />
	<polygon points="330,340 305,365 330,390 355,365 " style="fill: rgb(254,254,251); fill-opacity: 1; stroke: white; stroke-opacity: 1; stroke-width: 1" />
	<polygon points="480,490 455,515 480,540 505,515 " style="fill: rgb(254,254,251); fill-opacity: 1; stroke: white; stroke-opacity: 1; stroke-width: 1" />
	<polygon points="630,640 605,665 630,690 655,665 " style="fill: rgb(254,254,251); fill-opacity: 1; stroke: white; stroke-opacity: 1; stroke-width: 1" />
	<line stroke="green" stroke-width="1" x1="456.410630756194" x2="305" y1="225.75" y2="265" />
	<line stroke="grey" stroke-width="1" x1="456.410630756194" x2="456.410630756194" y1="183.75" y2="225.75" />
	<polygon points="405,365 380,390 405,415 430,390 " style="fill: rgb(254,254,251); fill-opacity: 1; stroke: white; stroke-opacity: 1; stroke-width: 1" />
	<polygon points="430,390 405,415 430,440 455,415 " style="fill: rgb(254,254,251); fill-opacity: 1; stroke: white; stroke-opacity: 1; stroke-width: 1" />
	<polygon points="455,415 430,440 455,465 480,440 " style="fill: rgb(254,254,251); fill-opacity: 1; stroke: white; stroke-opacity: 1; stroke-width: 1" />
	<polygon points="480,440 455,465 480,490 505,465 " style="fill: rgb(254,254,251); fill-opacity: 1; stroke: white; stroke-opacity: 1; stroke-width: 1" />
	<polygon points="530,490 505,515 530,540 555,515 " style="fill: rgb(254,254,251); fill-opacity: 1; stroke: white; stroke-opacity: 1; stroke-width: 1" />
	<polygon points="555,515 530,540 555,565 580,540 " style="fill: rgb(254,254,251); fill-opacity: 1; stroke: white; stroke-opacity: 1; stroke-width: 1" />
	<polygon points="580,540 555,565 580,590 605,565 " style="fill: rgb(254,254,251); fill-opacity: 1; stroke: white; stroke-opacity: 1; stroke-width: 1" />
	<polygon points="705,665 680,690 705,715 730,690 " style="fill: rgb(254,254,247); fill-opacity: 1; stroke: white; stroke-opacity: 1; stroke-width: 1" />
	<line stroke="green" stroke-width="1" x1="573.264020690142" x2="355" y1="225.75" y2="265" />
	<line stroke="grey" stroke-width="1" x1="573.264020690142" x2="573.264020690142" y1="183.75" y2="225.75" />
	<polygon points="380,290 355,315 380,340 405,315 " style="fill: rgb(242,197,63); fill-opacity: 1; stroke: white; stroke-opacity: 1; stroke-width: 1" />
	<polygon points="455,365 430,390 455,415 480,390 " style="fill: rgb(254,254,251); fill-opacity: 1; stroke: white; stroke-opacity: 1; stroke-width: 1" />
	<polygon points="480,390 455,415 480,440 505,415 " style="fill: rgb(254,253,244); fill-opacity: 1; stroke: white; stroke-opacity: 1; stroke-width: 1" />
	<polygon points="505,415 480,440 505,465 530,440 " style="fill: rgb(254,253,244); fill-opacity: 1; stroke: white; stroke-opacity: 1; stroke-width: 1" />
	<polygon points="555,465 530,490 555,515 580,490 " style="fill: rgb(254,253,244); fill-opacity: 1; stroke: white; stroke-opacity: 1; stroke-width: 1" />
	<polygon points="655,565 630,590 655,615 680,590 " style="fill: rgb(254,254,247); fill-opacity: 1; stroke: white; stroke-opacity: 1; stroke-width: 1" />
	<polygon points="680,590 655,615 680,640 705,615 " style="fill: rgb(252,252,229); fill-opacity: 1; stroke: white; stroke-opacity: 1; stroke-width: 1" />
	<polygon points="705,615 680,640 705,665 730,640 " style="fill: rgb(254,254,247); fill-opacity: 1; stroke: white; stroke-opacity: 1; stroke-width: 1" />
	<polygon points="730,640 705,665 730,690 755,665 " style="fill: rgb(254,254,247); fill-opacity: 1; stroke: white; stroke-opacity: 1; stroke-width: 1" />
	<line stroke="green" stroke-width="1" x1="573.298784494879" x2="405" y1="225.75" y2="265" />
	<line stroke="grey" stroke-width="1" x1="573.298784494879" x2="573.298784494879" y1="183.75" y2="225.75" />
	<polygon points="430,290 405,315 430,340 455,315 " style="fill: rgb(254,254,251); fill-opacity: 1; stroke: white; stroke-opacity: 1; stroke-width: 1" />
	<polygon points="455,315 430,340 455,365 480,340 " style="fill: rgb(254,254,251); fill-opacity: 1; stroke: white; stroke-opacity: 1; stroke-width: 1" />
	<polygon points="480,340 455,365 480,390 505,365 " style="fill: rgb(254,254,251); fill-opacity: 1; stroke: white; stroke-opacity: 1; stroke-width: 1" />
	<polygon points="505,365 480,390 505,415 530,390 " style="fill: rgb(253,253,240); fill-opacity: 1; stroke: white; stroke-opacity: 1; stroke-width: 1" />
	<polygon points="530,390 505,415 530,440 555,415 " style="fill: rgb(253,253,240); fill-opacity: 1; stroke: white; stroke-opacity: 1; stroke-width: 1" />
	<polygon points="580,440 555,465 580,490 605,465 " style="fill: rgb(253,253,240); fill-opacity: 1; stroke: white; stroke-opacity: 1; stroke-width: 1" />
	<polygon points="605,465 580,490 605,515 630,490 " style="fill: rgb(254,254,251); fill-opacity: 1; stroke: white; stroke-opacity: 1; stroke-width: 1" />
	<polygon points="705,565 680,590 705,615 730,590 " style="fill: rgb(253,253,237); fill-opacity: 1; stroke: white; stroke-opacity: 1; stroke-width: 1" />
	<polygon points="730,590 705,615 730,640 755,615 " style="fill: rgb(253,253,237); fill-opacity: 1; stroke: white; stroke-opacity: 1; stroke-width: 1" />
	<polygon points="755,615 730,640 755,665 780,640 " style="fill: rgb(254,254,247); fill-opacity: 1; stroke: white; stroke-opacity: 1; stroke-width: 1" />
	<line stroke="green" stroke-width="1" x1="584.568566334511" x2="455" y1="225.75" y2="265" />
	<line stroke="grey" stroke-width="1" x1="584.568566334511" x2="584.568566334511" y1="183.75" y2="225.75" />
	<polygon points="505,315 480,340 505,365 530,340 " style="fill: rgb(254,254,251); fill-opacity: 1; stroke: white; stroke-opacity: 1; stroke-width: 1" />
	<polygon points="630,440 605,465 630,490 655,465 " style="fill: rgb(254,254,251); fill-opacity: 1; stroke: white; stroke-opacity: 1; stroke-width: 1" />
	<polygon points="680,490 655,515 680,540 705,515 " style="fill: rgb(254,253,244); fill-opacity: 1; stroke: white; stroke-opacity: 1; stroke-width: 1" />
	<polygon points="730,540 705,565 730,590 755,565 " style="fill: rgb(254,254,247); fill-opacity: 1; stroke: white; stroke-opacity: 1; stroke-width: 1" />
	<polygon points="755,565 730,590 755,615 780,590 " style="fill: rgb(254,254,251); fill-opacity: 1; stroke: white; stroke-opacity: 1; stroke-width: 1" />
	<line stroke="green" stroke-width="1" x1="593.572372642929" x2="505" y1="225.75" y2="265" />
	<line stroke="grey" stroke-width="1" x1="593.572372642929" x2="593.572372642929" y1="183.75" y2="225.75" />
	<polygon points="530,290 505,315 530,340 555,315 " style="fill: rgb(254,254,251); fill-opacity: 1; stroke: white; stroke-opacity: 1; stroke-width: 1" />
	<polygon points="655,415 630,440 655,465 680,440 " style="fill: rgb(254,254,247); fill-opacity: 1; stroke: white; stroke-opacity: 1; stroke-width: 1" />
	<polygon points="680,440 655,465 680,490 705,465 " style="fill: rgb(254,254,247); fill-opacity: 1; stroke: white; stroke-opacity: 1; stroke-width: 1" />
	<polygon points="705,465 680,490 705,515 730,490 " style="fill: rgb(254,253,244); fill-opacity: 1; stroke: white; stroke-opacity: 1; stroke-width: 1" />
	<polygon points="755,515 730,540 755,565 780,540 " style="fill: rgb(254,253,244); fill-opacity: 1; stroke: white; stroke-opacity: 1; stroke-width: 1" />
	<polygon points="780,540 755,565 780,590 805,565 " style="fill: rgb(254,254,251); fill-opacity: 1; stroke: white; stroke-opacity: 1; stroke-width: 1" />
	<polygon points="805,565 780,590 805,615 830,590 " style="fill: rgb(254,254,251); fill-opacity: 1; stroke: white; stroke-opacity: 1; stroke-width: 1" />
	<line stroke="green" stroke-width="1" x1="784.827658963774" x2="555" y1="225.75" y2="265" />
	<line stroke="grey" stroke-width="1" x1="784.827658963774" x2="784.827658963774" y1="183.75" y2="225.75" />
	<polygon points="630,340 605,365 630,390 655,365 " style="fill: rgb(252,251,222); fill-opacity: 1; stroke: white; stroke-opacity: 1; stroke-width: 1" />
	<polygon points="830,540 805,565 830,590 855,565 " style="fill: rgb(254,254,251); fill-opacity: 1; stroke: white; stroke-opacity: 1; stroke-width: 1" />
	<line stroke="green" stroke-width="1" x1="784.938762936604" x2="605" y1="225.75" y2="265" />
	<line stroke="grey" stroke-width="1" x1="784.938762936604" x2="784.938762936604" y1="183.75" y2="225.75" />
	<polygon points="630,290 605,315 630,340 655,315 " style="fill: rgb(255,0,0); fill-opacity: 1; stroke: white; stroke-opacity: 1; stroke-width: 1" />
	<polygon points="680,340 655,365 680,390 705,365 " style="fill: rgb(255,0,0); fill-opacity: 1; stroke: white; stroke-opacity: 1; stroke-width: 1" />
	<polygon points="805,465 780,490 805,515 830,490 " style="fill: rgb(254,254,251); fill-opacity: 1; stroke: white; stroke-opacity: 1; stroke-width: 1" />
	<polygon points="855,515 830,540 855,565 880,540 " style="fill: rgb(254,254,251); fill-opacity: 1; stroke: white; stroke-opacity: 1; stroke-width: 1" />
	<line stroke="green" stroke-width="1" x1="784.938788427937" x2="655" y1="225.75" y2="265" />
	<line stroke="grey" stroke-width="1" x1="784.938788427937" x2="784.938788427937" y1="183.75" y2="225.75" />
	<polygon points="705,315 680,340 705,365 730,340 " style="fill: rgb(255,0,0); fill-opacity: 1; stroke: white; stroke-opacity: 1; stroke-width: 1" />
	<polygon points="830,440 805,465 830,490 855,465 " style="fill: rgb(254,254,251); fill-opacity: 1; stroke: white; stroke-opacity: 1; stroke-width: 1" />
	<polygon points="880,490 855,515 880,540 905,515 " style="fill: rgb(254,254,251); fill-opacity: 1; stroke: white; stroke-opacity: 1; stroke-width: 1" />
	<line stroke="green" stroke-width="1" x1="784.938864901934" x2="705" y1="225.75" y2="265" />
	<line stroke="grey" stroke-width="1" x1="784.938864901934" x2="784.938864901934" y1="183.75" y2="225.75" />
	<polygon points="830,390 805,415 830,440 855,415 " style="fill: rgb(254,254,251); fill-opacity: 1; stroke: white; stroke-opacity: 1; stroke-width: 1" />
	<polygon points="855,415 830,440 855,465 880,440 " style="fill: rgb(254,254,251); fill-opacity: 1; stroke: white; stroke-opacity: 1; stroke-width: 1" />
	<line stroke="green" stroke-width="1" x1="784.9388967661" x2="755" y1="225.75" y2="265" />
	<line stroke="grey" stroke-width="1" x1="784.9388967661" x2="784.9388967661" y1="183.75" y2="225.75" />
	<polygon points="780,290 755,315 780,340 805,315 " style="fill: rgb(254,254,251); fill-opacity: 1; stroke: white; stroke-opacity: 1; stroke-width: 1" />
	<polygon points="880,390 855,415 880,440 905,415 " style="fill: rgb(254,254,251); fill-opacity: 1; stroke: white; stroke-opacity: 1; stroke-width: 1" />
	<polygon points="930,440 905,465 930,490 955,465 " style="fill: rgb(254,254,251); fill-opacity: 1; stroke: white; stroke-opacity: 1; stroke-width: 1" />
	<line stroke="green" stroke-width="1" x1="822.177349082533" x2="805" y1="225.75" y2="265" />
	<line stroke="grey" stroke-width="1" x1="822.177349082533" x2="822.177349082533" y1="183.75" y2="225.75" />
	<polygon points="905,365 880,390 905,415 930,390 " style="fill: rgb(254,254,247); fill-opacity: 1; stroke: white; stroke-opacity: 1; stroke-width: 1" />
	<line stroke="green" stroke-width="1" x1="987.265699714996" x2="855" y1="225.75" y2="265" />
	<line stroke="grey" stroke-width="1" x1="987.265699714996" x2="987.265699714996" y1="183.75" y2="225.75" />
	<polygon points="880,290 855,315 880,340 905,315 " style="fill: rgb(254,253,244); fill-opacity: 1; stroke: white; stroke-opacity: 1; stroke-width: 1" />
	<polygon points="930,340 905,365 930,390 955,365 " style="fill: rgb(253,253,240); fill-opacity: 1; stroke: white; stroke-opacity: 1; stroke-width: 1" />
	<polygon points="980,390 955,415 980,440 1005,415 " style="fill: rgb(254,253,244); fill-opacity: 1; stroke: white; stroke-opacity: 1; stroke-width: 1" />
	<line stroke="green" stroke-width="1" x1="1035.39403016954" x2="905" y1="225.75" y2="265" />
	<line stroke="grey" stroke-width="1" x1="1035.39403016954" x2="1035.39403016954" y1="183.75" y2="225.75" />
	<line stroke="green" stroke-width="1" x1="1035.39420223603" x2="955" y1="225.75" y2="265" />
	<line stroke="grey" stroke-width="1" x1="1035.39420223603" x2="1035.39420223603" y1="183.75" y2="225.75" />
	<polygon points="980,290 955,315 980,340 1005,315 " style="fill: rgb(254,254,251); fill-opacity: 1; stroke: white; stroke-opacity: 1; stroke-width: 1" />
	<polygon points="1030,340 1005,365 1030,390 1055,365 " style="fill: rgb(254,254,251); fill-opacity: 1; stroke: white; stroke-opacity: 1; stroke-width: 1" />
	<line stroke="green" stroke-width="1" x1="1093.33835902389" x2="1005" y1="225.75" y2="265" />
	<line stroke="grey" stroke-width="1" x1="1093.33835902389" x2="1093.33835902389" y1="183.75" y2="225.75" />
	<polygon points="1030,290 1005,315 1030,340 1055,315 " style="fill: rgb(253,253,237); fill-opacity: 1; stroke: white; stroke-opacity: 1; stroke-width: 1" />
	<polygon points="1055,315 1030,340 1055,365 1080,340 " style="fill: rgb(253,253,240); fill-opacity: 1; stroke: white; stroke-opacity: 1; stroke-width: 1" />
	<line stroke="green" stroke-width="1" x1="1093.33877325804" x2="1055" y1="225.75" y2="265" />
	<line stroke="grey" stroke-width="1" x1="1093.33877325804" x2="1093.33877325804" y1="183.75" y2="225.75" />
	<polygon points="1080,290 1055,315 1080,340 1105,315 " style="fill: rgb(254,254,247); fill-opacity: 1; stroke: white; stroke-opacity: 1; stroke-width: 1" />
	<line stroke="green" stroke-width="1" x1="1105" x2="1105" y1="225.75" y2="265" />
	<line stroke="grey" stroke-width="1" x1="1105" x2="1105" y1="183.75" y2="225.75" />
	<polygon points="605,315 630,340 655,315 " style="fill: none; fill-opacity: 1; stroke: black; stroke-opacity: 1; stroke-width: 1" />
	<line stroke="rgb(231,138,195)" stroke-width="1" x1="784.938762936604" x2="784.938762936604" y1="183.75" y2="225.75" />
	<line stroke="rgb(231,138,195)" stroke-width="1" x1="784.938788427937" x2="784.938788427937" y1="183.75" y2="225.75" />
	<!-- 
	Generated using the Perl SVG Module V2.78
	by Ronan Oger
	Info: http://www.roitsystems.com/
 -->
</svg>