<?xml version="1.0" encoding="UTF-8" standalone="yes"?>
<!DOCTYPE svg PUBLIC "-//W3C//DTD SVG 1.0//EN" "http://www.w3.org/TR/2001/REC-SVG-20010904/DTD/svg10.dtd">
<svg height="595" width="805" xmlns="http://www.w3.org/2000/svg" xmlns:svg="http://www.w3.org/2000/svg" xmlns:xlink="http://www.w3.org/1999/xlink">
	<polygon points="536.666666666667,542.5 536.666666666667,560 772.333333333333,560 772.333333333333,542.5 " style="fill: none; fill-opacity: 1; stroke: black; stroke-opacity: 1; stroke-width: 1.25" />
	<text font-family="Arial" font-size="17.5" text-anchor="middle" x="536" y="577.5">0.0</text>
	<text font-family="Arial" font-size="17.5" text-anchor="middle" x="770" y="577.5">1.0</text>
	<polygon points="70,110 70,138 720,138 720,110 " style="fill: #a6cee3; fill-opacity: 1; stroke: black; stroke-opacity: 1; stroke-width: 0" />
	<text font-family="Arial" font-size="10" text-anchor="middle" x="395" y="100">NC_000013.11 Region:76.36 (Mb)</text>
	<text font-family="Arial" font-size="10" text-anchor="middle" x="720" y="100">End:112.678 (Mb)</text>
	<text font-family="Arial" font-size="10" text-anchor="middle" x="70" y="100">Start:36.320 </text>
	<text font-family="Arial" font-size="17.5" text-anchor="middle" x="653" y="525">R^2 Color Key</text>
	<polygon points="536.666666666667,542.5 536.666666666667,560 539,560 539,542.5 " style="fill: rgb(255,255,255); fill-opacity: 1; stroke: black; stroke-opacity: 1; stroke-width: 0" />
	<polygon points="539,542.5 539,560 541.333333333333,560 541.333333333333,542.5 " style="fill: rgb(254,254,251); fill-opacity: 1; stroke: black; stroke-opacity: 1; stroke-width: 0" />
	<polygon points="541.333333333333,542.5 541.333333333333,560 543.666666666667,560 543.666666666667,542.5 " style="fill: rgb(254,254,247); fill-opacity: 1; stroke: black; stroke-opacity: 1; stroke-width: 0" />
	<polygon points="543.666666666667,542.5 543.666666666667,560 546,560 546,542.5 " style="fill: rgb(254,253,244); fill-opacity: 1; stroke: black; stroke-opacity: 1; stroke-width: 0" />
	<polygon points="546,542.5 546,560 548.333333333333,560 548.333333333333,542.5 " style="fill: rgb(253,253,240); fill-opacity: 1; stroke: black; stroke-opacity: 1; stroke-width: 0" />
	<polygon points="548.333333333333,542.5 548.333333333333,560 550.666666666667,560 550.666666666667,542.5 " style="fill: rgb(253,253,237); fill-opacity: 1; stroke: black; stroke-opacity: 1; stroke-width: 0" />
	<polygon points="550.666666666667,542.5 550.666666666667,560 553,560 553,542.5 " style="fill: rgb(253,252,233); fill-opacity: 1; stroke: black; stroke-opacity: 1; stroke-width: 0" />
	<polygon points="553,542.5 553,560 555.333333333333,560 555.333333333333,542.5 " style="fill: rgb(252,252,229); fill-opacity: 1; stroke: black; stroke-opacity: 1; stroke-width: 0" />
	<polygon points="555.333333333333,542.5 555.333333333333,560 557.666666666667,560 557.666666666667,542.5 " style="fill: rgb(252,251,226); fill-opacity: 1; stroke: black; stroke-opacity: 1; stroke-width: 0" />
	<polygon points="557.666666666667,542.5 557.666666666667,560 560,560 560,542.5 " style="fill: rgb(252,251,222); fill-opacity: 1; stroke: black; stroke-opacity: 1; stroke-width: 0" />
	<polygon points="560,542.5 560,560 562.333333333333,560 562.333333333333,542.5 " style="fill: rgb(252,251,219); fill-opacity: 1; stroke: black; stroke-opacity: 1; stroke-width: 0" />
	<polygon points="562.333333333333,542.5 562.333333333333,560 564.666666666667,560 564.666666666667,542.5 " style="fill: rgb(251,250,215); fill-opacity: 1; stroke: black; stroke-opacity: 1; stroke-width: 0" />
	<polygon points="564.666666666667,542.5 564.666666666667,560 567,560 567,542.5 " style="fill: rgb(251,250,211); fill-opacity: 1; stroke: black; stroke-opacity: 1; stroke-width: 0" />
	<polygon points="567,542.5 567,560 569.333333333333,560 569.333333333333,542.5 " style="fill: rgb(251,249,208); fill-opacity: 1; stroke: black; stroke-opacity: 1; stroke-width: 0" />
	<polygon points="569.333333333333,542.5 569.333333333333,560 571.666666666667,560 571.666666666667,542.5 " style="fill: rgb(250,249,204); fill-opacity: 1; stroke: black; stroke-opacity: 1; stroke-width: 0" />
	<polygon points="571.666666666667,542.5 571.666666666667,560 574,560 574,542.5 " style="fill: rgb(250,249,201); fill-opacity: 1; stroke: black; stroke-opacity: 1; stroke-width: 0" />
	<polygon points="574,542.5 574,560 576.333333333333,560 576.333333333333,542.5 " style="fill: rgb(250,248,197); fill-opacity: 1; stroke: black; stroke-opacity: 1; stroke-width: 0" />
	<polygon points="576.333333333333,542.5 576.333333333333,560 578.666666666667,560 578.666666666667,542.5 " style="fill: rgb(249,248,193); fill-opacity: 1; stroke: black; stroke-opacity: 1; stroke-width: 0" />
	<polygon points="578.666666666667,542.5 578.666666666667,560 581,560 581,542.5 " style="fill: rgb(249,247,190); fill-opacity: 1; stroke: black; stroke-opacity: 1; stroke-width: 0" />
	<polygon points="581,542.5 581,560 583.333333333333,560 583.333333333333,542.5 " style="fill: rgb(249,247,186); fill-opacity: 1; stroke: black; stroke-opacity: 1; stroke-width: 0" />
	<polygon points="583.333333333333,542.5 583.333333333333,560 585.666666666667,560 585.666666666667,542.5 " style="fill: rgb(249,247,183); fill-opacity: 1; stroke: black; stroke-opacity: 1; stroke-width: 0" />
	<polygon points="585.666666666667,542.5 585.666666666667,560 588,560 588,542.5 " style="fill: rgb(248,246,179); fill-opacity: 1; stroke: black; stroke-opacity: 1; stroke-width: 0" />
	<polygon points="588,542.5 588,560 590.333333333333,560 590.333333333333,542.5 " style="fill: rgb(248,246,175); fill-opacity: 1; stroke: black; stroke-opacity: 1; stroke-width: 0" />
	<polygon points="590.333333333333,542.5 590.333333333333,560 592.666666666667,560 592.666666666667,542.5 " style="fill: rgb(248,245,172); fill-opacity: 1; stroke: black; stroke-opacity: 1; stroke-width: 0" />
	<polygon points="592.666666666667,542.5 592.666666666667,560 595,560 595,542.5 " style="fill: rgb(247,245,168); fill-opacity: 1; stroke: black; stroke-opacity: 1; stroke-width: 0" />
	<polygon points="595,542.5 595,560 597.333333333333,560 597.333333333333,542.5 " style="fill: rgb(247,245,165); fill-opacity: 1; stroke: black; stroke-opacity: 1; stroke-width: 0" />
	<polygon points="597.333333333333,542.5 597.333333333333,560 599.666666666667,560 599.666666666667,542.5 " style="fill: rgb(247,244,161); fill-opacity: 1; stroke: black; stroke-opacity: 1; stroke-width: 0" />
	<polygon points="599.666666666667,542.5 599.666666666667,560 602,560 602,542.5 " style="fill: rgb(246,244,157); fill-opacity: 1; stroke: black; stroke-opacity: 1; stroke-width: 0" />
	<polygon points="602,542.5 602,560 604.333333333333,560 604.333333333333,542.5 " style="fill: rgb(246,243,154); fill-opacity: 1; stroke: black; stroke-opacity: 1; stroke-width: 0" />
	<polygon points="604.333333333333,542.5 604.333333333333,560 606.666666666667,560 606.666666666667,542.5 " style="fill: rgb(246,243,150); fill-opacity: 1; stroke: black; stroke-opacity: 1; stroke-width: 0" />
	<polygon points="606.666666666667,542.5 606.666666666667,560 609,560 609,542.5 " style="fill: rgb(246,243,147); fill-opacity: 1; stroke: black; stroke-opacity: 1; stroke-width: 0" />
	<polygon points="609,542.5 609,560 611.333333333333,560 611.333333333333,542.5 " style="fill: rgb(245,242,143); fill-opacity: 1; stroke: black; stroke-opacity: 1; stroke-width: 0" />
	<polygon points="611.333333333333,542.5 611.333333333333,560 613.666666666667,560 613.666666666667,542.5 " style="fill: rgb(245,242,139); fill-opacity: 1; stroke: black; stroke-opacity: 1; stroke-width: 0" />
	<polygon points="613.666666666667,542.5 613.666666666667,560 616,560 616,542.5 " style="fill: rgb(245,241,136); fill-opacity: 1; stroke: black; stroke-opacity: 1; stroke-width: 0" />
	<polygon points="616,542.5 616,560 618.333333333333,560 618.333333333333,542.5 " style="fill: rgb(244,241,132); fill-opacity: 1; stroke: black; stroke-opacity: 1; stroke-width: 0" />
	<polygon points="618.333333333333,542.5 618.333333333333,560 620.666666666667,560 620.666666666667,542.5 " style="fill: rgb(244,241,129); fill-opacity: 1; stroke: black; stroke-opacity: 1; stroke-width: 0" />
	<polygon points="620.666666666667,542.5 620.666666666667,560 623,560 623,542.5 " style="fill: rgb(244,240,125); fill-opacity: 1; stroke: black; stroke-opacity: 1; stroke-width: 0" />
	<polygon points="623,542.5 623,560 625.333333333333,560 625.333333333333,542.5 " style="fill: rgb(243,240,121); fill-opacity: 1; stroke: black; stroke-opacity: 1; stroke-width: 0" />
	<polygon points="625.333333333333,542.5 625.333333333333,560 627.666666666667,560 627.666666666667,542.5 " style="fill: rgb(243,239,118); fill-opacity: 1; stroke: black; stroke-opacity: 1; stroke-width: 0" />
	<polygon points="627.666666666667,542.5 627.666666666667,560 630,560 630,542.5 " style="fill: rgb(243,239,114); fill-opacity: 1; stroke: black; stroke-opacity: 1; stroke-width: 0" />
	<polygon points="630,542.5 630,560 632.333333333333,560 632.333333333333,542.5 " style="fill: rgb(243,239,111); fill-opacity: 1; stroke: black; stroke-opacity: 1; stroke-width: 0" />
	<polygon points="632.333333333333,542.5 632.333333333333,560 634.666666666667,560 634.666666666667,542.5 " style="fill: rgb(242,238,107); fill-opacity: 1; stroke: black; stroke-opacity: 1; stroke-width: 0" />
	<polygon points="634.666666666667,542.5 634.666666666667,560 637,560 637,542.5 " style="fill: rgb(242,238,103); fill-opacity: 1; stroke: black; stroke-opacity: 1; stroke-width: 0" />
	<polygon points="637,542.5 637,560 639.333333333333,560 639.333333333333,542.5 " style="fill: rgb(242,237,100); fill-opacity: 1; stroke: black; stroke-opacity: 1; stroke-width: 0" />
	<polygon points="639.333333333333,542.5 639.333333333333,560 641.666666666667,560 641.666666666667,542.5 " style="fill: rgb(241,237,96); fill-opacity: 1; stroke: black; stroke-opacity: 1; stroke-width: 0" />
	<polygon points="641.666666666667,542.5 641.666666666667,560 644,560 644,542.5 " style="fill: rgb(241,237,93); fill-opacity: 1; stroke: black; stroke-opacity: 1; stroke-width: 0" />
	<polygon points="644,542.5 644,560 646.333333333333,560 646.333333333333,542.5 " style="fill: rgb(241,236,89); fill-opacity: 1; stroke: black; stroke-opacity: 1; stroke-width: 0" />
	<polygon points="646.333333333333,542.5 646.333333333333,560 648.666666666667,560 648.666666666667,542.5 " style="fill: rgb(240,236,85); fill-opacity: 1; stroke: black; stroke-opacity: 1; stroke-width: 0" />
	<polygon points="648.666666666667,542.5 648.666666666667,560 651,560 651,542.5 " style="fill: rgb(240,235,82); fill-opacity: 1; stroke: black; stroke-opacity: 1; stroke-width: 0" />
	<polygon points="651,542.5 651,560 653.333333333333,560 653.333333333333,542.5 " style="fill: rgb(240,235,78); fill-opacity: 1; stroke: black; stroke-opacity: 1; stroke-width: 0" />
	<polygon points="653.333333333333,542.5 653.333333333333,560 655.666666666667,560 655.666666666667,542.5 " style="fill: rgb(240,235,75); fill-opacity: 1; stroke: black; stroke-opacity: 1; stroke-width: 0" />
	<polygon points="655.666666666667,542.5 655.666666666667,560 658,560 658,542.5 " style="fill: rgb(240,230,73); fill-opacity: 1; stroke: black; stroke-opacity: 1; stroke-width: 0" />
	<polygon points="658,542.5 658,560 660.333333333333,560 660.333333333333,542.5 " style="fill: rgb(240,225,72); fill-opacity: 1; stroke: black; stroke-opacity: 1; stroke-width: 0" />
	<polygon points="660.333333333333,542.5 660.333333333333,560 662.666666666667,560 662.666666666667,542.5 " style="fill: rgb(240,220,70); fill-opacity: 1; stroke: black; stroke-opacity: 1; stroke-width: 0" />
	<polygon points="662.666666666667,542.5 662.666666666667,560 665,560 665,542.5 " style="fill: rgb(241,216,69); fill-opacity: 1; stroke: black; stroke-opacity: 1; stroke-width: 0" />
	<polygon points="665,542.5 665,560 667.333333333333,560 667.333333333333,542.5 " style="fill: rgb(241,211,67); fill-opacity: 1; stroke: black; stroke-opacity: 1; stroke-width: 0" />
	<polygon points="667.333333333333,542.5 667.333333333333,560 669.666666666667,560 669.666666666667,542.5 " style="fill: rgb(241,206,66); fill-opacity: 1; stroke: black; stroke-opacity: 1; stroke-width: 0" />
	<polygon points="669.666666666667,542.5 669.666666666667,560 672,560 672,542.5 " style="fill: rgb(242,202,64); fill-opacity: 1; stroke: black; stroke-opacity: 1; stroke-width: 0" />
	<polygon points="672,542.5 672,560 674.333333333333,560 674.333333333333,542.5 " style="fill: rgb(242,197,63); fill-opacity: 1; stroke: black; stroke-opacity: 1; stroke-width: 0" />
	<polygon points="674.333333333333,542.5 674.333333333333,560 676.666666666667,560 676.666666666667,542.5 " style="fill: rgb(242,192,61); fill-opacity: 1; stroke: black; stroke-opacity: 1; stroke-width: 0" />
	<polygon points="676.666666666667,542.5 676.666666666667,560 679,560 679,542.5 " style="fill: rgb(243,188,60); fill-opacity: 1; stroke: black; stroke-opacity: 1; stroke-width: 0" />
	<polygon points="679,542.5 679,560 681.333333333333,560 681.333333333333,542.5 " style="fill: rgb(243,183,58); fill-opacity: 1; stroke: black; stroke-opacity: 1; stroke-width: 0" />
	<polygon points="681.333333333333,542.5 681.333333333333,560 683.666666666667,560 683.666666666667,542.5 " style="fill: rgb(243,178,57); fill-opacity: 1; stroke: black; stroke-opacity: 1; stroke-width: 0" />
	<polygon points="683.666666666667,542.5 683.666666666667,560 686,560 686,542.5 " style="fill: rgb(243,173,55); fill-opacity: 1; stroke: black; stroke-opacity: 1; stroke-width: 0" />
	<polygon points="686,542.5 686,560 688.333333333333,560 688.333333333333,542.5 " style="fill: rgb(244,169,54); fill-opacity: 1; stroke: black; stroke-opacity: 1; stroke-width: 0" />
	<polygon points="688.333333333333,542.5 688.333333333333,560 690.666666666667,560 690.666666666667,542.5 " style="fill: rgb(244,164,52); fill-opacity: 1; stroke: black; stroke-opacity: 1; stroke-width: 0" />
	<polygon points="690.666666666667,542.5 690.666666666667,560 693,560 693,542.5 " style="fill: rgb(244,159,51); fill-opacity: 1; stroke: black; stroke-opacity: 1; stroke-width: 0" />
	<polygon points="693,542.5 693,560 695.333333333333,560 695.333333333333,542.5 " style="fill: rgb(245,155,49); fill-opacity: 1; stroke: black; stroke-opacity: 1; stroke-width: 0" />
	<polygon points="695.333333333333,542.5 695.333333333333,560 697.666666666667,560 697.666666666667,542.5 " style="fill: rgb(245,150,48); fill-opacity: 1; stroke: black; stroke-opacity: 1; stroke-width: 0" />
	<polygon points="697.666666666667,542.5 697.666666666667,560 700,560 700,542.5 " style="fill: rgb(245,145,46); fill-opacity: 1; stroke: black; stroke-opacity: 1; stroke-width: 0" />
	<polygon points="700,542.5 700,560 702.333333333333,560 702.333333333333,542.5 " style="fill: rgb(246,141,45); fill-opacity: 1; stroke: black; stroke-opacity: 1; stroke-width: 0" />
	<polygon points="702.333333333333,542.5 702.333333333333,560 704.666666666667,560 704.666666666667,542.5 " style="fill: rgb(246,136,43); fill-opacity: 1; stroke: black; stroke-opacity: 1; stroke-width: 0" />
	<polygon points="704.666666666667,542.5 704.666666666667,560 707,560 707,542.5 " style="fill: rgb(246,131,42); fill-opacity: 1; stroke: black; stroke-opacity: 1; stroke-width: 0" />
	<polygon points="707,542.5 707,560 709.333333333333,560 709.333333333333,542.5 " style="fill: rgb(246,126,40); fill-opacity: 1; stroke: black; stroke-opacity: 1; stroke-width: 0" />
	<polygon points="709.333333333333,542.5 709.333333333333,560 711.666666666667,560 711.666666666667,542.5 " style="fill: rgb(247,122,39); fill-opacity: 1; stroke: black; stroke-opacity: 1; stroke-width: 0" />
	<polygon points="711.666666666667,542.5 711.666666666667,560 714,560 714,542.5 " style="fill: rgb(247,117,37); fill-opacity: 1; stroke: black; stroke-opacity: 1; stroke-width: 0" />
	<polygon points="714,542.5 714,560 716.333333333333,560 716.333333333333,542.5 " style="fill: rgb(247,112,36); fill-opacity: 1; stroke: black; stroke-opacity: 1; stroke-width: 0" />
	<polygon points="716.333333333333,542.5 716.333333333333,560 718.666666666667,560 718.666666666667,542.5 " style="fill: rgb(248,108,34); fill-opacity: 1; stroke: black; stroke-opacity: 1; stroke-width: 0" />
	<polygon points="718.666666666667,542.5 718.666666666667,560 721,560 721,542.5 " style="fill: rgb(248,103,33); fill-opacity: 1; stroke: black; stroke-opacity: 1; stroke-width: 0" />
	<polygon points="721,542.5 721,560 723.333333333333,560 723.333333333333,542.5 " style="fill: rgb(248,98,31); fill-opacity: 1; stroke: black; stroke-opacity: 1; stroke-width: 0" />
	<polygon points="723.333333333333,542.5 723.333333333333,560 725.666666666667,560 725.666666666667,542.5 " style="fill: rgb(249,94,30); fill-opacity: 1; stroke: black; stroke-opacity: 1; stroke-width: 0" />
	<polygon points="725.666666666667,542.5 725.666666666667,560 728,560 728,542.5 " style="fill: rgb(249,89,28); fill-opacity: 1; stroke: black; stroke-opacity: 1; stroke-width: 0" />
	<polygon points="728,542.5 728,560 730.333333333333,560 730.333333333333,542.5 " style="fill: rgb(249,84,27); fill-opacity: 1; stroke: black; stroke-opacity: 1; stroke-width: 0" />
	<polygon points="730.333333333333,542.5 730.333333333333,560 732.666666666667,560 732.666666666667,542.5 " style="fill: rgb(249,79,25); fill-opacity: 1; stroke: black; stroke-opacity: 1; stroke-width: 0" />
	<polygon points="732.666666666667,542.5 732.666666666667,560 735,560 735,542.5 " style="fill: rgb(250,75,24); fill-opacity: 1; stroke: black; stroke-opacity: 1; stroke-width: 0" />
	<polygon points="735,542.5 735,560 737.333333333333,560 737.333333333333,542.5 " style="fill: rgb(250,70,22); fill-opacity: 1; stroke: black; stroke-opacity: 1; stroke-width: 0" />
	<polygon points="737.333333333333,542.5 737.333333333333,560 739.666666666667,560 739.666666666667,542.5 " style="fill: rgb(250,65,21); fill-opacity: 1; stroke: black; stroke-opacity: 1; stroke-width: 0" />
	<polygon points="739.666666666667,542.5 739.666666666667,560 742,560 742,542.5 " style="fill: rgb(251,61,19); fill-opacity: 1; stroke: black; stroke-opacity: 1; stroke-width: 0" />
	<polygon points="742,542.5 742,560 744.333333333333,560 744.333333333333,542.5 " style="fill: rgb(251,56,18); fill-opacity: 1; stroke: black; stroke-opacity: 1; stroke-width: 0" />
	<polygon points="744.333333333333,542.5 744.333333333333,560 746.666666666667,560 746.666666666667,542.5 " style="fill: rgb(251,51,16); fill-opacity: 1; stroke: black; stroke-opacity: 1; stroke-width: 0" />
	<polygon points="746.666666666667,542.5 746.666666666667,560 749,560 749,542.5 " style="fill: rgb(252,47,15); fill-opacity: 1; stroke: black; stroke-opacity: 1; stroke-width: 0" />
	<polygon points="749,542.5 749,560 751.333333333333,560 751.333333333333,542.5 " style="fill: rgb(252,42,13); fill-opacity: 1; stroke: black; stroke-opacity: 1; stroke-width: 0" />
	<polygon points="751.333333333333,542.5 751.333333333333,560 753.666666666667,560 753.666666666667,542.5 " style="fill: rgb(252,37,12); fill-opacity: 1; stroke: black; stroke-opacity: 1; stroke-width: 0" />
	<polygon points="753.666666666667,542.5 753.666666666667,560 756,560 756,542.5 " style="fill: rgb(252,32,10); fill-opacity: 1; stroke: black; stroke-opacity: 1; stroke-width: 0" />
	<polygon points="756,542.5 756,560 758.333333333333,560 758.333333333333,542.5 " style="fill: rgb(253,28,9); fill-opacity: 1; stroke: black; stroke-opacity: 1; stroke-width: 0" />
	<polygon points="758.333333333333,542.5 758.333333333333,560 760.666666666667,560 760.666666666667,542.5 " style="fill: rgb(253,23,7); fill-opacity: 1; stroke: black; stroke-opacity: 1; stroke-width: 0" />
	<polygon points="760.666666666667,542.5 760.666666666667,560 763,560 763,542.5 " style="fill: rgb(253,18,6); fill-opacity: 1; stroke: black; stroke-opacity: 1; stroke-width: 0" />
	<polygon points="763,542.5 763,560 765.333333333333,560 765.333333333333,542.5 " style="fill: rgb(254,14,4); fill-opacity: 1; stroke: black; stroke-opacity: 1; stroke-width: 0" />
	<polygon points="765.333333333333,542.5 765.333333333333,560 767.666666666667,560 767.666666666667,542.5 " style="fill: rgb(254,9,3); fill-opacity: 1; stroke: black; stroke-opacity: 1; stroke-width: 0" />
	<polygon points="767.666666666667,542.5 767.666666666667,560 770,560 770,542.5 " style="fill: rgb(254,4,1); fill-opacity: 1; stroke: black; stroke-opacity: 1; stroke-width: 0" />
	<polygon points="770,542.5 770,560 772.333333333333,560 772.333333333333,542.5 " style="fill: rgb(255,0,0); fill-opacity: 1; stroke: black; stroke-opacity: 1; stroke-width: 0" />
	<line stroke="green" stroke-width="1" x1="70" x2="70" y1="138" y2="160" />
	<line stroke="grey" stroke-width="1" x1="70" x2="70" y1="110" y2="138" />
	<polygon points="95,185 70,210 95,235 120,210 " style="fill: rgb(242,192,61); fill-opacity: 1; stroke: white; stroke-opacity: 1; stroke-width: 1" />
	<polygon points="145,235 120,260 145,285 170,260 " style="fill: rgb(254,254,251); fill-opacity: 1; stroke: white; stroke-opacity: 1; stroke-width: 1" />
	<line stroke="green" stroke-width="1" x1="70.0003490167994" x2="120" y1="138" y2="160" />
	<line stroke="grey" stroke-width="1" x1="70.0003490167994" x2="70.0003490167994" y1="110" y2="138" />
	<line stroke="green" stroke-width="1" x1="84.0518845361801" x2="170" y1="138" y2="160" />
	<line stroke="grey" stroke-width="1" x1="84.0518845361801" x2="84.0518845361801" y1="110" y2="138" />
	<polygon points="245,235 220,260 245,285 270,260 " style="fill: rgb(254,254,251); fill-opacity: 1; stroke: white; stroke-opacity: 1; stroke-width: 1" />
	<polygon points="270,260 245,285 270,310 295,285 " style="fill: rgb(254,254,251); fill-opacity: 1; stroke: white; stroke-opacity: 1; stroke-width: 1" />
	<line stroke="green" stroke-width="1" x1="237.903605777026" x2="220" y1="138" y2="160" />
	<line stroke="grey" stroke-width="1" x1="237.903605777026" x2="237.903605777026" y1="110" y2="138" />
	<polygon points="245,185 220,210 245,235 270,210 " style="fill: rgb(254,254,251); fill-opacity: 1; stroke: white; stroke-opacity: 1; stroke-width: 1" />
	<polygon points="270,210 245,235 270,260 295,235 " style="fill: rgb(254,253,244); fill-opacity: 1; stroke: white; stroke-opacity: 1; stroke-width: 1" />
	<polygon points="295,235 270,260 295,285 320,260 " style="fill: rgb(254,254,247); fill-opacity: 1; stroke: white; stroke-opacity: 1; stroke-width: 1" />
	<polygon points="345,285 320,310 345,335 370,310 " style="fill: rgb(254,254,251); fill-opacity: 1; stroke: white; stroke-opacity: 1; stroke-width: 1" />
	<polygon points="445,385 420,410 445,435 470,410 " style="fill: rgb(254,254,247); fill-opacity: 1; stroke: white; stroke-opacity: 1; stroke-width: 1" />
	<polygon points="470,410 445,435 470,460 495,435 " style="fill: rgb(254,254,251); fill-opacity: 1; stroke: white; stroke-opacity: 1; stroke-width: 1" />
	<line stroke="green" stroke-width="1" x1="280.876801443989" x2="270" y1="138" y2="160" />
	<line stroke="grey" stroke-width="1" x1="280.876801443989" x2="280.876801443989" y1="110" y2="138" />
	<polygon points="320,210 295,235 320,260 345,235 " style="fill: rgb(254,254,247); fill-opacity: 1; stroke: white; stroke-opacity: 1; stroke-width: 1" />
	<line stroke="green" stroke-width="1" x1="430.462779774617" x2="320" y1="138" y2="160" />
	<line stroke="grey" stroke-width="1" x1="430.462779774617" x2="430.462779774617" y1="110" y2="138" />
	<polygon points="345,185 320,210 345,235 370,210 " style="fill: rgb(254,254,251); fill-opacity: 1; stroke: white; stroke-opacity: 1; stroke-width: 1" />
	<polygon points="495,335 470,360 495,385 520,360 " style="fill: rgb(254,254,247); fill-opacity: 1; stroke: white; stroke-opacity: 1; stroke-width: 1" />
	<polygon points="520,360 495,385 520,410 545,385 " style="fill: rgb(254,254,251); fill-opacity: 1; stroke: white; stroke-opacity: 1; stroke-width: 1" />
	<line stroke="green" stroke-width="1" x1="514.311580144289" x2="370" y1="138" y2="160" />
	<line stroke="grey" stroke-width="1" x1="514.311580144289" x2="514.311580144289" y1="110" y2="138" />
	<polygon points="470,260 445,285 470,310 495,285 " style="fill: rgb(254,254,251); fill-opacity: 1; stroke: white; stroke-opacity: 1; stroke-width: 1" />
	<line stroke="green" stroke-width="1" x1="690.969387022777" x2="420" y1="138" y2="160" />
	<line stroke="grey" stroke-width="1" x1="690.969387022777" x2="690.969387022777" y1="110" y2="138" />
	<polygon points="445,185 420,210 445,235 470,210 " style="fill: rgb(254,254,251); fill-opacity: 1; stroke: white; stroke-opacity: 1; stroke-width: 1" />
	<polygon points="495,235 470,260 495,285 520,260 " style="fill: rgb(254,253,244); fill-opacity: 1; stroke: white; stroke-opacity: 1; stroke-width: 1" />
	<polygon points="520,260 495,285 520,310 545,285 " style="fill: rgb(254,254,251); fill-opacity: 1; stroke: white; stroke-opacity: 1; stroke-width: 1" />
	<polygon points="545,285 520,310 545,335 570,310 " style="fill: rgb(254,254,251); fill-opacity: 1; stroke: white; stroke-opacity: 1; stroke-width: 1" />
	<polygon points="570,310 545,335 570,360 595,335 " style="fill: rgb(254,254,251); fill-opacity: 1; stroke: white; stroke-opacity: 1; stroke-width: 1" />
	<line stroke="green" stroke-width="1" x1="690.969855216045" x2="470" y1="138" y2="160" />
	<line stroke="grey" stroke-width="1" x1="690.969855216045" x2="690.969855216045" y1="110" y2="138" />
	<line stroke="green" stroke-width="1" x1="698.618047618097" x2="520" y1="138" y2="160" />
	<line stroke="grey" stroke-width="1" x1="698.618047618097" x2="698.618047618097" y1="110" y2="138" />
	<line stroke="green" stroke-width="1" x1="700.535145821445" x2="570" y1="138" y2="160" />
	<line stroke="grey" stroke-width="1" x1="700.535145821445" x2="700.535145821445" y1="110" y2="138" />
	<polygon points="620,210 595,235 620,260 645,235 " style="fill: rgb(254,253,244); fill-opacity: 1; stroke: white; stroke-opacity: 1; stroke-width: 1" />
	<polygon points="645,235 620,260 645,285 670,260 " style="fill: rgb(254,254,247); fill-opacity: 1; stroke: white; stroke-opacity: 1; stroke-width: 1" />
	<line stroke="green" stroke-width="1" x1="719.99814425214" x2="620" y1="138" y2="160" />
	<line stroke="grey" stroke-width="1" x1="719.99814425214" x2="719.99814425214" y1="110" y2="138" />
	<polygon points="645,185 620,210 645,235 670,210 " style="fill: rgb(243,183,58); fill-opacity: 1; stroke: white; stroke-opacity: 1; stroke-width: 1" />
	<polygon points="670,210 645,235 670,260 695,235 " style="fill: rgb(241,211,67); fill-opacity: 1; stroke: white; stroke-opacity: 1; stroke-width: 1" />
	<line stroke="green" stroke-width="1" x1="719.999804210088" x2="670" y1="138" y2="160" />
	<line stroke="grey" stroke-width="1" x1="719.999804210088" x2="719.999804210088" y1="110" y2="138" />
	<polygon points="695,185 670,210 695,235 720,210 " style="fill: rgb(249,84,27); fill-opacity: 1; stroke: white; stroke-opacity: 1; stroke-width: 1" />
	<line stroke="green" stroke-width="1" x1="720" x2="720" y1="138" y2="160" />
	<line stroke="grey" stroke-width="1" x1="720" x2="720" y1="110" y2="138" />
	<polygon points="670,210 695,235 720,210 " style="fill: none; fill-opacity: 1; stroke: black; stroke-opacity: 1; stroke-width: 1" />
	<line stroke="rgb(231,138,195)" stroke-width="1" x1="719.999804210088" x2="719.999804210088" y1="110" y2="138" />
	<line stroke="rgb(231,138,195)" stroke-width="1" x1="720" x2="720" y1="110" y2="138" />
	<!-- 
	Generated using the Perl SVG Module V2.78
	by Ronan Oger
	Info: http://www.roitsystems.com/
 -->
</svg>