<?xml version="1.0" encoding="UTF-8" standalone="yes"?>
<!DOCTYPE svg PUBLIC "-//W3C//DTD SVG 1.0//EN" "http://www.w3.org/TR/2001/REC-SVG-20010904/DTD/svg10.dtd">
<svg height="440" width="520" xmlns="http://www.w3.org/2000/svg" xmlns:svg="http://www.w3.org/2000/svg" xmlns:xlink="http://www.w3.org/1999/xlink">
	<polygon points="326.666666666667,410 326.666666666667,420 461.333333333333,420 461.333333333333,410 " style="fill: none; fill-opacity: 1; stroke: black; stroke-opacity: 1; stroke-width: 1.25" />
	<text font-family="Arial" font-size="10" text-anchor="middle" x="326" y="430">0.0</text>
	<text font-family="Arial" font-size="10" text-anchor="middle" x="460" y="430">1.0</text>
	<polygon points="60,120 60,136 410,136 410,120 " style="fill: #a6cee3; fill-opacity: 1; stroke: black; stroke-opacity: 1; stroke-width: 0" />
	<text font-family="Arial" font-size="10" text-anchor="middle" x="235" y="110">NT_187420.1 Region:107.00 (bp)</text>
	<text font-family="Arial" font-size="10" text-anchor="middle" x="410" y="110">End:381.95 (kb)</text>
	<text font-family="Arial" font-size="10" text-anchor="middle" x="60" y="110">Start:381.85 </text>
	<text font-family="Arial" font-size="10" text-anchor="middle" x="393" y="400">R^2 Color Key</text>
	<polygon points="326.666666666667,410 326.666666666667,420 328,420 328,410 " style="fill: rgb(255,255,255); fill-opacity: 1; stroke: black; stroke-opacity: 1; stroke-width: 0" />
	<polygon points="328,410 328,420 329.333333333333,420 329.333333333333,410 " style="fill: rgb(254,254,251); fill-opacity: 1; stroke: black; stroke-opacity: 1; stroke-width: 0" />
	<polygon points="329.333333333333,410 329.333333333333,420 330.666666666667,420 330.666666666667,410 " style="fill: rgb(254,254,247); fill-opacity: 1; stroke: black; stroke-opacity: 1; stroke-width: 0" />
	<polygon points="330.666666666667,410 330.666666666667,420 332,420 332,410 " style="fill: rgb(254,253,244); fill-opacity: 1; stroke: black; stroke-opacity: 1; stroke-width: 0" />
	<polygon points="332,410 332,420 333.333333333333,420 333.333333333333,410 " style="fill: rgb(253,253,240); fill-opacity: 1; stroke: black; stroke-opacity: 1; stroke-width: 0" />
	<polygon points="333.333333333333,410 333.333333333333,420 334.666666666667,420 334.666666666667,410 " style="fill: rgb(253,253,237); fill-opacity: 1; stroke: black; stroke-opacity: 1; stroke-width: 0" />
	<polygon points="334.666666666667,410 334.666666666667,420 336,420 336,410 " style="fill: rgb(253,252,233); fill-opacity: 1; stroke: black; stroke-opacity: 1; stroke-width: 0" />
	<polygon points="336,410 336,420 337.333333333333,420 337.333333333333,410 " style="fill: rgb(252,252,229); fill-opacity: 1; stroke: black; stroke-opacity: 1; stroke-width: 0" />
	<polygon points="337.333333333333,410 337.333333333333,420 338.666666666667,420 338.666666666667,410 " style="fill: rgb(252,251,226); fill-opacity: 1; stroke: black; stroke-opacity: 1; stroke-width: 0" />
	<polygon points="338.666666666667,410 338.666666666667,420 340,420 340,410 " style="fill: rgb(252,251,222); fill-opacity: 1; stroke: black; stroke-opacity: 1; stroke-width: 0" />
	<polygon points="340,410 340,420 341.333333333333,420 341.333333333333,410 " style="fill: rgb(252,251,219); fill-opacity: 1; stroke: black; stroke-opacity: 1; stroke-width: 0" />
	<polygon points="341.333333333333,410 341.333333333333,420 342.666666666667,420 342.666666666667,410 " style="fill: rgb(251,250,215); fill-opacity: 1; stroke: black; stroke-opacity: 1; stroke-width: 0" />
	<polygon points="342.666666666667,410 342.666666666667,420 344,420 344,410 " style="fill: rgb(251,250,211); fill-opacity: 1; stroke: black; stroke-opacity: 1; stroke-width: 0" />
	<polygon points="344,410 344,420 345.333333333333,420 345.333333333333,410 " style="fill: rgb(251,249,208); fill-opacity: 1; stroke: black; stroke-opacity: 1; stroke-width: 0" />
	<polygon points="345.333333333333,410 345.333333333333,420 346.666666666667,420 346.666666666667,410 " style="fill: rgb(250,249,204); fill-opacity: 1; stroke: black; stroke-opacity: 1; stroke-width: 0" />
	<polygon points="346.666666666667,410 346.666666666667,420 348,420 348,410 " style="fill: rgb(250,249,201); fill-opacity: 1; stroke: black; stroke-opacity: 1; stroke-width: 0" />
	<polygon points="348,410 348,420 349.333333333333,420 349.333333333333,410 " style="fill: rgb(250,248,197); fill-opacity: 1; stroke: black; stroke-opacity: 1; stroke-width: 0" />
	<polygon points="349.333333333333,410 349.333333333333,420 350.666666666667,420 350.666666666667,410 " style="fill: rgb(249,248,193); fill-opacity: 1; stroke: black; stroke-opacity: 1; stroke-width: 0" />
	<polygon points="350.666666666667,410 350.666666666667,420 352,420 352,410 " style="fill: rgb(249,247,190); fill-opacity: 1; stroke: black; stroke-opacity: 1; stroke-width: 0" />
	<polygon points="352,410 352,420 353.333333333333,420 353.333333333333,410 " style="fill: rgb(249,247,186); fill-opacity: 1; stroke: black; stroke-opacity: 1; stroke-width: 0" />
	<polygon points="353.333333333333,410 353.333333333333,420 354.666666666667,420 354.666666666667,410 " style="fill: rgb(249,247,183); fill-opacity: 1; stroke: black; stroke-opacity: 1; stroke-width: 0" />
	<polygon points="354.666666666667,410 354.666666666667,420 356,420 356,410 " style="fill: rgb(248,246,179); fill-opacity: 1; stroke: black; stroke-opacity: 1; stroke-width: 0" />
	<polygon points="356,410 356,420 357.333333333333,420 357.333333333333,410 " style="fill: rgb(248,246,175); fill-opacity: 1; stroke: black; stroke-opacity: 1; stroke-width: 0" />
	<polygon points="357.333333333333,410 357.333333333333,420 358.666666666667,420 358.666666666667,410 " style="fill: rgb(248,245,172); fill-opacity: 1; stroke: black; stroke-opacity: 1; stroke-width: 0" />
	<polygon points="358.666666666667,410 358.666666666667,420 360,420 360,410 " style="fill: rgb(247,245,168); fill-opacity: 1; stroke: black; stroke-opacity: 1; stroke-width: 0" />
	<polygon points="360,410 360,420 361.333333333333,420 361.333333333333,410 " style="fill: rgb(247,245,165); fill-opacity: 1; stroke: black; stroke-opacity: 1; stroke-width: 0" />
	<polygon points="361.333333333333,410 361.333333333333,420 362.666666666667,420 362.666666666667,410 " style="fill: rgb(247,244,161); fill-opacity: 1; stroke: black; stroke-opacity: 1; stroke-width: 0" />
	<polygon points="362.666666666667,410 362.666666666667,420 364,420 364,410 " style="fill: rgb(246,244,157); fill-opacity: 1; stroke: black; stroke-opacity: 1; stroke-width: 0" />
	<polygon points="364,410 364,420 365.333333333333,420 365.333333333333,410 " style="fill: rgb(246,243,154); fill-opacity: 1; stroke: black; stroke-opacity: 1; stroke-width: 0" />
	<polygon points="365.333333333333,410 365.333333333333,420 366.666666666667,420 366.666666666667,410 " style="fill: rgb(246,243,150); fill-opacity: 1; stroke: black; stroke-opacity: 1; stroke-width: 0" />
	<polygon points="366.666666666667,410 366.666666666667,420 368,420 368,410 " style="fill: rgb(246,243,147); fill-opacity: 1; stroke: black; stroke-opacity: 1; stroke-width: 0" />
	<polygon points="368,410 368,420 369.333333333333,420 369.333333333333,410 " style="fill: rgb(245,242,143); fill-opacity: 1; stroke: black; stroke-opacity: 1; stroke-width: 0" />
	<polygon points="369.333333333333,410 369.333333333333,420 370.666666666667,420 370.666666666667,410 " style="fill: rgb(245,242,139); fill-opacity: 1; stroke: black; stroke-opacity: 1; stroke-width: 0" />
	<polygon points="370.666666666667,410 370.666666666667,420 372,420 372,410 " style="fill: rgb(245,241,136); fill-opacity: 1; stroke: black; stroke-opacity: 1; stroke-width: 0" />
	<polygon points="372,410 372,420 373.333333333333,420 373.333333333333,410 " style="fill: rgb(244,241,132); fill-opacity: 1; stroke: black; stroke-opacity: 1; stroke-width: 0" />
	<polygon points="373.333333333333,410 373.333333333333,420 374.666666666667,420 374.666666666667,410 " style="fill: rgb(244,241,129); fill-opacity: 1; stroke: black; stroke-opacity: 1; stroke-width: 0" />
	<polygon points="374.666666666667,410 374.666666666667,420 376,420 376,410 " style="fill: rgb(244,240,125); fill-opacity: 1; stroke: black; stroke-opacity: 1; stroke-width: 0" />
	<polygon points="376,410 376,420 377.333333333333,420 377.333333333333,410 " style="fill: rgb(243,240,121); fill-opacity: 1; stroke: black; stroke-opacity: 1; stroke-width: 0" />
	<polygon points="377.333333333333,410 377.333333333333,420 378.666666666667,420 378.666666666667,410 " style="fill: rgb(243,239,118); fill-opacity: 1; stroke: black; stroke-opacity: 1; stroke-width: 0" />
	<polygon points="378.666666666667,410 378.666666666667,420 380,420 380,410 " style="fill: rgb(243,239,114); fill-opacity: 1; stroke: black; stroke-opacity: 1; stroke-width: 0" />
	<polygon points="380,410 380,420 381.333333333333,420 381.333333333333,410 " style="fill: rgb(243,239,111); fill-opacity: 1; stroke: black; stroke-opacity: 1; stroke-width: 0" />
	<polygon points="381.333333333333,410 381.333333333333,420 382.666666666667,420 382.666666666667,410 " style="fill: rgb(242,238,107); fill-opacity: 1; stroke: black; stroke-opacity: 1; stroke-width: 0" />
	<polygon points="382.666666666667,410 382.666666666667,420 384,420 384,410 " style="fill: rgb(242,238,103); fill-opacity: 1; stroke: black; stroke-opacity: 1; stroke-width: 0" />
	<polygon points="384,410 384,420 385.333333333333,420 385.333333333333,410 " style="fill: rgb(242,237,100); fill-opacity: 1; stroke: black; stroke-opacity: 1; stroke-width: 0" />
	<polygon points="385.333333333333,410 385.333333333333,420 386.666666666667,420 386.666666666667,410 " style="fill: rgb(241,237,96); fill-opacity: 1; stroke: black; stroke-opacity: 1; stroke-width: 0" />
	<polygon points="386.666666666667,410 386.666666666667,420 388,420 388,410 " style="fill: rgb(241,237,93); fill-opacity: 1; stroke: black; stroke-opacity: 1; stroke-width: 0" />
	<polygon points="388,410 388,420 389.333333333333,420 389.333333333333,410 " style="fill: rgb(241,236,89); fill-opacity: 1; stroke: black; stroke-opacity: 1; stroke-width: 0" />
	<polygon points="389.333333333333,410 389.333333333333,420 390.666666666667,420 390.666666666667,410 " style="fill: rgb(240,236,85); fill-opacity: 1; stroke: black; stroke-opacity: 1; stroke-width: 0" />
	<polygon points="390.666666666667,410 390.666666666667,420 392,420 392,410 " style="fill: rgb(240,235,82); fill-opacity: 1; stroke: black; stroke-opacity: 1; stroke-width: 0" />
	<polygon points="392,410 392,420 393.333333333333,420 393.333333333333,410 " style="fill: rgb(240,235,78); fill-opacity: 1; stroke: black; stroke-opacity: 1; stroke-width: 0" />
	<polygon points="393.333333333333,410 393.333333333333,420 394.666666666667,420 394.666666666667,410 " style="fill: rgb(240,235,75); fill-opacity: 1; stroke: black; stroke-opacity: 1; stroke-width: 0" />
	<polygon points="394.666666666667,410 394.666666666667,420 396,420 396,410 " style="fill: rgb(240,230,73); fill-opacity: 1; stroke: black; stroke-opacity: 1; stroke-width: 0" />
	<polygon points="396,410 396,420 397.333333333333,420 397.333333333333,410 " style="fill: rgb(240,225,72); fill-opacity: 1; stroke: black; stroke-opacity: 1; stroke-width: 0" />
	<polygon points="397.333333333333,410 397.333333333333,420 398.666666666667,420 398.666666666667,410 " style="fill: rgb(240,220,70); fill-opacity: 1; stroke: black; stroke-opacity: 1; stroke-width: 0" />
	<polygon points="398.666666666667,410 398.666666666667,420 400,420 400,410 " style="fill: rgb(241,216,69); fill-opacity: 1; stroke: black; stroke-opacity: 1; stroke-width: 0" />
	<polygon points="400,410 400,420 401.333333333333,420 401.333333333333,410 " style="fill: rgb(241,211,67); fill-opacity: 1; stroke: black; stroke-opacity: 1; stroke-width: 0" />
	<polygon points="401.333333333333,410 401.333333333333,420 402.666666666667,420 402.666666666667,410 " style="fill: rgb(241,206,66); fill-opacity: 1; stroke: black; stroke-opacity: 1; stroke-width: 0" />
	<polygon points="402.666666666667,410 402.666666666667,420 404,420 404,410 " style="fill: rgb(242,202,64); fill-opacity: 1; stroke: black; stroke-opacity: 1; stroke-width: 0" />
	<polygon points="404,410 404,420 405.333333333333,420 405.333333333333,410 " style="fill: rgb(242,197,63); fill-opacity: 1; stroke: black; stroke-opacity: 1; stroke-width: 0" />
	<polygon points="405.333333333333,410 405.333333333333,420 406.666666666667,420 406.666666666667,410 " style="fill: rgb(242,192,61); fill-opacity: 1; stroke: black; stroke-opacity: 1; stroke-width: 0" />
	<polygon points="406.666666666667,410 406.666666666667,420 408,420 408,410 " style="fill: rgb(243,188,60); fill-opacity: 1; stroke: black; stroke-opacity: 1; stroke-width: 0" />
	<polygon points="408,410 408,420 409.333333333333,420 409.333333333333,410 " style="fill: rgb(243,183,58); fill-opacity: 1; stroke: black; stroke-opacity: 1; stroke-width: 0" />
	<polygon points="409.333333333333,410 409.333333333333,420 410.666666666667,420 410.666666666667,410 " style="fill: rgb(243,178,57); fill-opacity: 1; stroke: black; stroke-opacity: 1; stroke-width: 0" />
	<polygon points="410.666666666667,410 410.666666666667,420 412,420 412,410 " style="fill: rgb(243,173,55); fill-opacity: 1; stroke: black; stroke-opacity: 1; stroke-width: 0" />
	<polygon points="412,410 412,420 413.333333333333,420 413.333333333333,410 " style="fill: rgb(244,169,54); fill-opacity: 1; stroke: black; stroke-opacity: 1; stroke-width: 0" />
	<polygon points="413.333333333333,410 413.333333333333,420 414.666666666667,420 414.666666666667,410 " style="fill: rgb(244,164,52); fill-opacity: 1; stroke: black; stroke-opacity: 1; stroke-width: 0" />
	<polygon points="414.666666666667,410 414.666666666667,420 416,420 416,410 " style="fill: rgb(244,159,51); fill-opacity: 1; stroke: black; stroke-opacity: 1; stroke-width: 0" />
	<polygon points="416,410 416,420 417.333333333333,420 417.333333333333,410 " style="fill: rgb(245,155,49); fill-opacity: 1; stroke: black; stroke-opacity: 1; stroke-width: 0" />
	<polygon points="417.333333333333,410 417.333333333333,420 418.666666666667,420 418.666666666667,410 " style="fill: rgb(245,150,48); fill-opacity: 1; stroke: black; stroke-opacity: 1; stroke-width: 0" />
	<polygon points="418.666666666667,410 418.666666666667,420 420,420 420,410 " style="fill: rgb(245,145,46); fill-opacity: 1; stroke: black; stroke-opacity: 1; stroke-width: 0" />
	<polygon points="420,410 420,420 421.333333333333,420 421.333333333333,410 " style="fill: rgb(246,141,45); fill-opacity: 1; stroke: black; stroke-opacity: 1; stroke-width: 0" />
	<polygon points="421.333333333333,410 421.333333333333,420 422.666666666667,420 422.666666666667,410 " style="fill: rgb(246,136,43); fill-opacity: 1; stroke: black; stroke-opacity: 1; stroke-width: 0" />
	<polygon points="422.666666666667,410 422.666666666667,420 424,420 424,410 " style="fill: rgb(246,131,42); fill-opacity: 1; stroke: black; stroke-opacity: 1; stroke-width: 0" />
	<polygon points="424,410 424,420 425.333333333333,420 425.333333333333,410 " style="fill: rgb(246,126,40); fill-opacity: 1; stroke: black; stroke-opacity: 1; stroke-width: 0" />
	<polygon points="425.333333333333,410 425.333333333333,420 426.666666666667,420 426.666666666667,410 " style="fill: rgb(247,122,39); fill-opacity: 1; stroke: black; stroke-opacity: 1; stroke-width: 0" />
	<polygon points="426.666666666667,410 426.666666666667,420 428,420 428,410 " style="fill: rgb(247,117,37); fill-opacity: 1; stroke: black; stroke-opacity: 1; stroke-width: 0" />
	<polygon points="428,410 428,420 429.333333333333,420 429.333333333333,410 " style="fill: rgb(247,112,36); fill-opacity: 1; stroke: black; stroke-opacity: 1; stroke-width: 0" />
	<polygon points="429.333333333333,410 429.333333333333,420 430.666666666667,420 430.666666666667,410 " style="fill: rgb(248,108,34); fill-opacity: 1; stroke: black; stroke-opacity: 1; stroke-width: 0" />
	<polygon points="430.666666666667,410 430.666666666667,420 432,420 432,410 " style="fill: rgb(248,103,33); fill-opacity: 1; stroke: black; stroke-opacity: 1; stroke-width: 0" />
	<polygon points="432,410 432,420 433.333333333333,420 433.333333333333,410 " style="fill: rgb(248,98,31); fill-opacity: 1; stroke: black; stroke-opacity: 1; stroke-width: 0" />
	<polygon points="433.333333333333,410 433.333333333333,420 434.666666666667,420 434.666666666667,410 " style="fill: rgb(249,94,30); fill-opacity: 1; stroke: black; stroke-opacity: 1; stroke-width: 0" />
	<polygon points="434.666666666667,410 434.666666666667,420 436,420 436,410 " style="fill: rgb(249,89,28); fill-opacity: 1; stroke: black; stroke-opacity: 1; stroke-width: 0" />
	<polygon points="436,410 436,420 437.333333333333,420 437.333333333333,410 " style="fill: rgb(249,84,27); fill-opacity: 1; stroke: black; stroke-opacity: 1; stroke-width: 0" />
	<polygon points="437.333333333333,410 437.333333333333,420 438.666666666667,420 438.666666666667,410 " style="fill: rgb(249,79,25); fill-opacity: 1; stroke: black; stroke-opacity: 1; stroke-width: 0" />
	<polygon points="438.666666666667,410 438.666666666667,420 440,420 440,410 " style="fill: rgb(250,75,24); fill-opacity: 1; stroke: black; stroke-opacity: 1; stroke-width: 0" />
	<polygon points="440,410 440,420 441.333333333333,420 441.333333333333,410 " style="fill: rgb(250,70,22); fill-opacity: 1; stroke: black; stroke-opacity: 1; stroke-width: 0" />
	<polygon points="441.333333333333,410 441.333333333333,420 442.666666666667,420 442.666666666667,410 " style="fill: rgb(250,65,21); fill-opacity: 1; stroke: black; stroke-opacity: 1; stroke-width: 0" />
	<polygon points="442.666666666667,410 442.666666666667,420 444,420 444,410 " style="fill: rgb(251,61,19); fill-opacity: 1; stroke: black; stroke-opacity: 1; stroke-width: 0" />
	<polygon points="444,410 444,420 445.333333333333,420 445.333333333333,410 " style="fill: rgb(251,56,18); fill-opacity: 1; stroke: black; stroke-opacity: 1; stroke-width: 0" />
	<polygon points="445.333333333333,410 445.333333333333,420 446.666666666667,420 446.666666666667,410 " style="fill: rgb(251,51,16); fill-opacity: 1; stroke: black; stroke-opacity: 1; stroke-width: 0" />
	<polygon points="446.666666666667,410 446.666666666667,420 448,420 448,410 " style="fill: rgb(252,47,15); fill-opacity: 1; stroke: black; stroke-opacity: 1; stroke-width: 0" />
	<polygon points="448,410 448,420 449.333333333333,420 449.333333333333,410 " style="fill: rgb(252,42,13); fill-opacity: 1; stroke: black; stroke-opacity: 1; stroke-width: 0" />
	<polygon points="449.333333333333,410 449.333333333333,420 450.666666666667,420 450.666666666667,410 " style="fill: rgb(252,37,12); fill-opacity: 1; stroke: black; stroke-opacity: 1; stroke-width: 0" />
	<polygon points="450.666666666667,410 450.666666666667,420 452,420 452,410 " style="fill: rgb(252,32,10); fill-opacity: 1; stroke: black; stroke-opacity: 1; stroke-width: 0" />
	<polygon points="452,410 452,420 453.333333333333,420 453.333333333333,410 " style="fill: rgb(253,28,9); fill-opacity: 1; stroke: black; stroke-opacity: 1; stroke-width: 0" />
	<polygon points="453.333333333333,410 453.333333333333,420 454.666666666667,420 454.666666666667,410 " style="fill: rgb(253,23,7); fill-opacity: 1; stroke: black; stroke-opacity: 1; stroke-width: 0" />
	<polygon points="454.666666666667,410 454.666666666667,420 456,420 456,410 " style="fill: rgb(253,18,6); fill-opacity: 1; stroke: black; stroke-opacity: 1; stroke-width: 0" />
	<polygon points="456,410 456,420 457.333333333333,420 457.333333333333,410 " style="fill: rgb(254,14,4); fill-opacity: 1; stroke: black; stroke-opacity: 1; stroke-width: 0" />
	<polygon points="457.333333333333,410 457.333333333333,420 458.666666666667,420 458.666666666667,410 " style="fill: rgb(254,9,3); fill-opacity: 1; stroke: black; stroke-opacity: 1; stroke-width: 0" />
	<polygon points="458.666666666667,410 458.666666666667,420 460,420 460,410 " style="fill: rgb(254,4,1); fill-opacity: 1; stroke: black; stroke-opacity: 1; stroke-width: 0" />
	<polygon points="460,410 460,420 461.333333333333,420 461.333333333333,410 " style="fill: rgb(255,0,0); fill-opacity: 1; stroke: black; stroke-opacity: 1; stroke-width: 0" />
	<line stroke="green" stroke-width="1" x1="60" x2="60" y1="136" y2="170" />
	<line stroke="grey" stroke-width="1" x1="60" x2="60" y1="120" y2="136" />
	<polygon points="85,195 60,220 85,245 110,220 " style="fill: rgb(253,253,240); fill-opacity: 1; stroke: white; stroke-opacity: 1; stroke-width: 1" />
	<polygon points="110,220 85,245 110,270 135,245 " style="fill: rgb(254,253,244); fill-opacity: 1; stroke: white; stroke-opacity: 1; stroke-width: 1" />
	<polygon points="135,245 110,270 135,295 160,270 " style="fill: rgb(254,253,244); fill-opacity: 1; stroke: white; stroke-opacity: 1; stroke-width: 1" />
	<polygon points="160,270 135,295 160,320 185,295 " style="fill: rgb(254,254,247); fill-opacity: 1; stroke: white; stroke-opacity: 1; stroke-width: 1" />
	<polygon points="185,295 160,320 185,345 210,320 " style="fill: rgb(253,253,237); fill-opacity: 1; stroke: white; stroke-opacity: 1; stroke-width: 1" />
	<polygon points="210,320 185,345 210,370 235,345 " style="fill: rgb(254,253,244); fill-opacity: 1; stroke: white; stroke-opacity: 1; stroke-width: 1" />
	<polygon points="235,345 210,370 235,395 260,370 " style="fill: rgb(254,254,251); fill-opacity: 1; stroke: white; stroke-opacity: 1; stroke-width: 1" />
	<line stroke="green" stroke-width="1" x1="69.8130841121495" x2="110" y1="136" y2="170" />
	<line stroke="grey" stroke-width="1" x1="69.8130841121495" x2="69.8130841121495" y1="120" y2="136" />
	<polygon points="135,195 110,220 135,245 160,220 " style="fill: rgb(254,253,244); fill-opacity: 1; stroke: white; stroke-opacity: 1; stroke-width: 1" />
	<polygon points="160,220 135,245 160,270 185,245 " style="fill: rgb(241,237,96); fill-opacity: 1; stroke: white; stroke-opacity: 1; stroke-width: 1" />
	<polygon points="185,245 160,270 185,295 210,270 " style="fill: rgb(253,253,237); fill-opacity: 1; stroke: white; stroke-opacity: 1; stroke-width: 1" />
	<polygon points="210,270 185,295 210,320 235,295 " style="fill: rgb(248,98,31); fill-opacity: 1; stroke: white; stroke-opacity: 1; stroke-width: 1" />
	<polygon points="235,295 210,320 235,345 260,320 " style="fill: rgb(253,252,233); fill-opacity: 1; stroke: white; stroke-opacity: 1; stroke-width: 1" />
	<polygon points="260,320 235,345 260,370 285,345 " style="fill: rgb(254,253,244); fill-opacity: 1; stroke: white; stroke-opacity: 1; stroke-width: 1" />
	<line stroke="green" stroke-width="1" x1="95.981308411215" x2="160" y1="136" y2="170" />
	<line stroke="grey" stroke-width="1" x1="95.981308411215" x2="95.981308411215" y1="120" y2="136" />
	<polygon points="185,195 160,220 185,245 210,220 " style="fill: rgb(246,243,150); fill-opacity: 1; stroke: white; stroke-opacity: 1; stroke-width: 1" />
	<polygon points="210,220 185,245 210,270 235,245 " style="fill: rgb(252,47,15); fill-opacity: 1; stroke: white; stroke-opacity: 1; stroke-width: 1" />
	<polygon points="235,245 210,270 235,295 260,270 " style="fill: rgb(252,252,229); fill-opacity: 1; stroke: white; stroke-opacity: 1; stroke-width: 1" />
	<polygon points="260,270 235,295 260,320 285,295 " style="fill: rgb(249,94,30); fill-opacity: 1; stroke: white; stroke-opacity: 1; stroke-width: 1" />
	<polygon points="285,295 260,320 285,345 310,320 " style="fill: rgb(242,192,61); fill-opacity: 1; stroke: white; stroke-opacity: 1; stroke-width: 1" />
	<line stroke="green" stroke-width="1" x1="184.299065420561" x2="210" y1="136" y2="170" />
	<line stroke="grey" stroke-width="1" x1="184.299065420561" x2="184.299065420561" y1="120" y2="136" />
	<polygon points="235,195 210,220 235,245 260,220 " style="fill: rgb(245,242,139); fill-opacity: 1; stroke: white; stroke-opacity: 1; stroke-width: 1" />
	<polygon points="260,220 235,245 260,270 285,245 " style="fill: rgb(240,220,70); fill-opacity: 1; stroke: white; stroke-opacity: 1; stroke-width: 1" />
	<polygon points="285,245 260,270 285,295 310,270 " style="fill: rgb(246,244,157); fill-opacity: 1; stroke: white; stroke-opacity: 1; stroke-width: 1" />
	<polygon points="310,270 285,295 310,320 335,295 " style="fill: rgb(248,246,179); fill-opacity: 1; stroke: white; stroke-opacity: 1; stroke-width: 1" />
	<line stroke="green" stroke-width="1" x1="217.009345794393" x2="260" y1="136" y2="170" />
	<line stroke="grey" stroke-width="1" x1="217.009345794393" x2="217.009345794393" y1="120" y2="136" />
	<polygon points="285,195 260,220 285,245 310,220 " style="fill: rgb(252,251,226); fill-opacity: 1; stroke: white; stroke-opacity: 1; stroke-width: 1" />
	<polygon points="310,220 285,245 310,270 335,245 " style="fill: rgb(247,112,36); fill-opacity: 1; stroke: white; stroke-opacity: 1; stroke-width: 1" />
	<polygon points="335,245 310,270 335,295 360,270 " style="fill: rgb(241,211,67); fill-opacity: 1; stroke: white; stroke-opacity: 1; stroke-width: 1" />
	<line stroke="green" stroke-width="1" x1="249.719626168224" x2="310" y1="136" y2="170" />
	<line stroke="grey" stroke-width="1" x1="249.719626168224" x2="249.719626168224" y1="120" y2="136" />
	<polygon points="335,195 310,220 335,245 360,220 " style="fill: rgb(252,251,226); fill-opacity: 1; stroke: white; stroke-opacity: 1; stroke-width: 1" />
	<polygon points="360,220 335,245 360,270 385,245 " style="fill: rgb(253,253,240); fill-opacity: 1; stroke: white; stroke-opacity: 1; stroke-width: 1" />
	<line stroke="green" stroke-width="1" x1="341.308411214953" x2="360" y1="136" y2="170" />
	<line stroke="grey" stroke-width="1" x1="341.308411214953" x2="341.308411214953" y1="120" y2="136" />
	<polygon points="385,195 360,220 385,245 410,220 " style="fill: rgb(245,150,48); fill-opacity: 1; stroke: white; stroke-opacity: 1; stroke-width: 1" />
	<line stroke="green" stroke-width="1" x1="410" x2="410" y1="136" y2="170" />
	<line stroke="grey" stroke-width="1" x1="410" x2="410" y1="120" y2="136" />
	<!-- 
	Generated using the Perl SVG Module V2.78
	by Ronan Oger
	Info: http://www.roitsystems.com/
 -->
</svg>