<?xml version="1.0" encoding="UTF-8" standalone="yes"?>
<!DOCTYPE svg PUBLIC "-//W3C//DTD SVG 1.0//EN" "http://www.w3.org/TR/2001/REC-SVG-20010904/DTD/svg10.dtd">
<svg height="300" width="260" xmlns="http://www.w3.org/2000/svg" xmlns:svg="http://www.w3.org/2000/svg" xmlns:xlink="http://www.w3.org/1999/xlink">
	<polygon points="173.333333333333,285 173.333333333333,290 240.666666666667,290 240.666666666667,285 " style="fill: none; fill-opacity: 1; stroke: black; stroke-opacity: 1; stroke-width: 1.25" />
	<text font-family="Arial" font-size="5" text-anchor="middle" x="173" y="295">0.0</text>
	<text font-family="Arial" font-size="5" text-anchor="middle" x="240" y="295">1.0</text>
	<polygon points="40,90 40,98 190,98 190,90 " style="fill: #a6cee3; fill-opacity: 1; stroke: black; stroke-opacity: 1; stroke-width: 0" />
	<text font-family="Arial" font-size="10" text-anchor="middle" x="115" y="80">NW_014040929.1 Region:72.00 (bp)</text>
	<text font-family="Arial" font-size="10" text-anchor="middle" x="190" y="80">End:162.99 (kb)</text>
	<text font-family="Arial" font-size="10" text-anchor="middle" x="40" y="80">Start:162.92 </text>
	<text font-family="Arial" font-size="5" text-anchor="middle" x="206" y="280">D&apos; Color Key</text>
	<polygon points="173.333333333333,285 173.333333333333,290 174,290 174,285 " style="fill: rgb(255,255,255); fill-opacity: 1; stroke: black; stroke-opacity: 1; stroke-width: 0" />
	<polygon points="174,285 174,290 174.666666666667,290 174.666666666667,285 " style="fill: rgb(254,254,251); fill-opacity: 1; stroke: black; stroke-opacity: 1; stroke-width: 0" />
	<polygon points="174.666666666667,285 174.666666666667,290 175.333333333333,290 175.333333333333,285 " style="fill: rgb(254,254,247); fill-opacity: 1; stroke: black; stroke-opacity: 1; stroke-width: 0" />
	<polygon points="175.333333333333,285 175.333333333333,290 176,290 176,285 " style="fill: rgb(254,253,244); fill-opacity: 1; stroke: black; stroke-opacity: 1; stroke-width: 0" />
	<polygon points="176,285 176,290 176.666666666667,290 176.666666666667,285 " style="fill: rgb(253,253,240); fill-opacity: 1; stroke: black; stroke-opacity: 1; stroke-width: 0" />
	<polygon points="176.666666666667,285 176.666666666667,290 177.333333333333,290 177.333333333333,285 " style="fill: rgb(253,253,237); fill-opacity: 1; stroke: black; stroke-opacity: 1; stroke-width: 0" />
	<polygon points="177.333333333333,285 177.333333333333,290 178,290 178,285 " style="fill: rgb(253,252,233); fill-opacity: 1; stroke: black; stroke-opacity: 1; stroke-width: 0" />
	<polygon points="178,285 178,290 178.666666666667,290 178.666666666667,285 " style="fill: rgb(252,252,229); fill-opacity: 1; stroke: black; stroke-opacity: 1; stroke-width: 0" />
	<polygon points="178.666666666667,285 178.666666666667,290 179.333333333333,290 179.333333333333,285 " style="fill: rgb(252,251,226); fill-opacity: 1; stroke: black; stroke-opacity: 1; stroke-width: 0" />
	<polygon points="179.333333333333,285 179.333333333333,290 180,290 180,285 " style="fill: rgb(252,251,222); fill-opacity: 1; stroke: black; stroke-opacity: 1; stroke-width: 0" />
	<polygon points="180,285 180,290 180.666666666667,290 180.666666666667,285 " style="fill: rgb(252,251,219); fill-opacity: 1; stroke: black; stroke-opacity: 1; stroke-width: 0" />
	<polygon points="180.666666666667,285 180.666666666667,290 181.333333333333,290 181.333333333333,285 " style="fill: rgb(251,250,215); fill-opacity: 1; stroke: black; stroke-opacity: 1; stroke-width: 0" />
	<polygon points="181.333333333333,285 181.333333333333,290 182,290 182,285 " style="fill: rgb(251,250,211); fill-opacity: 1; stroke: black; stroke-opacity: 1; stroke-width: 0" />
	<polygon points="182,285 182,290 182.666666666667,290 182.666666666667,285 " style="fill: rgb(251,249,208); fill-opacity: 1; stroke: black; stroke-opacity: 1; stroke-width: 0" />
	<polygon points="182.666666666667,285 182.666666666667,290 183.333333333333,290 183.333333333333,285 " style="fill: rgb(250,249,204); fill-opacity: 1; stroke: black; stroke-opacity: 1; stroke-width: 0" />
	<polygon points="183.333333333333,285 183.333333333333,290 184,290 184,285 " style="fill: rgb(250,249,201); fill-opacity: 1; stroke: black; stroke-opacity: 1; stroke-width: 0" />
	<polygon points="184,285 184,290 184.666666666667,290 184.666666666667,285 " style="fill: rgb(250,248,197); fill-opacity: 1; stroke: black; stroke-opacity: 1; stroke-width: 0" />
	<polygon points="184.666666666667,285 184.666666666667,290 185.333333333333,290 185.333333333333,285 " style="fill: rgb(249,248,193); fill-opacity: 1; stroke: black; stroke-opacity: 1; stroke-width: 0" />
	<polygon points="185.333333333333,285 185.333333333333,290 186,290 186,285 " style="fill: rgb(249,247,190); fill-opacity: 1; stroke: black; stroke-opacity: 1; stroke-width: 0" />
	<polygon points="186,285 186,290 186.666666666667,290 186.666666666667,285 " style="fill: rgb(249,247,186); fill-opacity: 1; stroke: black; stroke-opacity: 1; stroke-width: 0" />
	<polygon points="186.666666666667,285 186.666666666667,290 187.333333333333,290 187.333333333333,285 " style="fill: rgb(249,247,183); fill-opacity: 1; stroke: black; stroke-opacity: 1; stroke-width: 0" />
	<polygon points="187.333333333333,285 187.333333333333,290 188,290 188,285 " style="fill: rgb(248,246,179); fill-opacity: 1; stroke: black; stroke-opacity: 1; stroke-width: 0" />
	<polygon points="188,285 188,290 188.666666666667,290 188.666666666667,285 " style="fill: rgb(248,246,175); fill-opacity: 1; stroke: black; stroke-opacity: 1; stroke-width: 0" />
	<polygon points="188.666666666667,285 188.666666666667,290 189.333333333333,290 189.333333333333,285 " style="fill: rgb(248,245,172); fill-opacity: 1; stroke: black; stroke-opacity: 1; stroke-width: 0" />
	<polygon points="189.333333333333,285 189.333333333333,290 190,290 190,285 " style="fill: rgb(247,245,168); fill-opacity: 1; stroke: black; stroke-opacity: 1; stroke-width: 0" />
	<polygon points="190,285 190,290 190.666666666667,290 190.666666666667,285 " style="fill: rgb(247,245,165); fill-opacity: 1; stroke: black; stroke-opacity: 1; stroke-width: 0" />
	<polygon points="190.666666666667,285 190.666666666667,290 191.333333333333,290 191.333333333333,285 " style="fill: rgb(247,244,161); fill-opacity: 1; stroke: black; stroke-opacity: 1; stroke-width: 0" />
	<polygon points="191.333333333333,285 191.333333333333,290 192,290 192,285 " style="fill: rgb(246,244,157); fill-opacity: 1; stroke: black; stroke-opacity: 1; stroke-width: 0" />
	<polygon points="192,285 192,290 192.666666666667,290 192.666666666667,285 " style="fill: rgb(246,243,154); fill-opacity: 1; stroke: black; stroke-opacity: 1; stroke-width: 0" />
	<polygon points="192.666666666667,285 192.666666666667,290 193.333333333333,290 193.333333333333,285 " style="fill: rgb(246,243,150); fill-opacity: 1; stroke: black; stroke-opacity: 1; stroke-width: 0" />
	<polygon points="193.333333333333,285 193.333333333333,290 194,290 194,285 " style="fill: rgb(246,243,147); fill-opacity: 1; stroke: black; stroke-opacity: 1; stroke-width: 0" />
	<polygon points="194,285 194,290 194.666666666667,290 194.666666666667,285 " style="fill: rgb(245,242,143); fill-opacity: 1; stroke: black; stroke-opacity: 1; stroke-width: 0" />
	<polygon points="194.666666666667,285 194.666666666667,290 195.333333333333,290 195.333333333333,285 " style="fill: rgb(245,242,139); fill-opacity: 1; stroke: black; stroke-opacity: 1; stroke-width: 0" />
	<polygon points="195.333333333333,285 195.333333333333,290 196,290 196,285 " style="fill: rgb(245,241,136); fill-opacity: 1; stroke: black; stroke-opacity: 1; stroke-width: 0" />
	<polygon points="196,285 196,290 196.666666666667,290 196.666666666667,285 " style="fill: rgb(244,241,132); fill-opacity: 1; stroke: black; stroke-opacity: 1; stroke-width: 0" />
	<polygon points="196.666666666667,285 196.666666666667,290 197.333333333333,290 197.333333333333,285 " style="fill: rgb(244,241,129); fill-opacity: 1; stroke: black; stroke-opacity: 1; stroke-width: 0" />
	<polygon points="197.333333333333,285 197.333333333333,290 198,290 198,285 " style="fill: rgb(244,240,125); fill-opacity: 1; stroke: black; stroke-opacity: 1; stroke-width: 0" />
	<polygon points="198,285 198,290 198.666666666667,290 198.666666666667,285 " style="fill: rgb(243,240,121); fill-opacity: 1; stroke: black; stroke-opacity: 1; stroke-width: 0" />
	<polygon points="198.666666666667,285 198.666666666667,290 199.333333333333,290 199.333333333333,285 " style="fill: rgb(243,239,118); fill-opacity: 1; stroke: black; stroke-opacity: 1; stroke-width: 0" />
	<polygon points="199.333333333333,285 199.333333333333,290 200,290 200,285 " style="fill: rgb(243,239,114); fill-opacity: 1; stroke: black; stroke-opacity: 1; stroke-width: 0" />
	<polygon points="200,285 200,290 200.666666666667,290 200.666666666667,285 " style="fill: rgb(243,239,111); fill-opacity: 1; stroke: black; stroke-opacity: 1; stroke-width: 0" />
	<polygon points="200.666666666667,285 200.666666666667,290 201.333333333333,290 201.333333333333,285 " style="fill: rgb(242,238,107); fill-opacity: 1; stroke: black; stroke-opacity: 1; stroke-width: 0" />
	<polygon points="201.333333333333,285 201.333333333333,290 202,290 202,285 " style="fill: rgb(242,238,103); fill-opacity: 1; stroke: black; stroke-opacity: 1; stroke-width: 0" />
	<polygon points="202,285 202,290 202.666666666667,290 202.666666666667,285 " style="fill: rgb(242,237,100); fill-opacity: 1; stroke: black; stroke-opacity: 1; stroke-width: 0" />
	<polygon points="202.666666666667,285 202.666666666667,290 203.333333333333,290 203.333333333333,285 " style="fill: rgb(241,237,96); fill-opacity: 1; stroke: black; stroke-opacity: 1; stroke-width: 0" />
	<polygon points="203.333333333333,285 203.333333333333,290 204,290 204,285 " style="fill: rgb(241,237,93); fill-opacity: 1; stroke: black; stroke-opacity: 1; stroke-width: 0" />
	<polygon points="204,285 204,290 204.666666666667,290 204.666666666667,285 " style="fill: rgb(241,236,89); fill-opacity: 1; stroke: black; stroke-opacity: 1; stroke-width: 0" />
	<polygon points="204.666666666667,285 204.666666666667,290 205.333333333333,290 205.333333333333,285 " style="fill: rgb(240,236,85); fill-opacity: 1; stroke: black; stroke-opacity: 1; stroke-width: 0" />
	<polygon points="205.333333333333,285 205.333333333333,290 206,290 206,285 " style="fill: rgb(240,235,82); fill-opacity: 1; stroke: black; stroke-opacity: 1; stroke-width: 0" />
	<polygon points="206,285 206,290 206.666666666667,290 206.666666666667,285 " style="fill: rgb(240,235,78); fill-opacity: 1; stroke: black; stroke-opacity: 1; stroke-width: 0" />
	<polygon points="206.666666666667,285 206.666666666667,290 207.333333333333,290 207.333333333333,285 " style="fill: rgb(240,235,75); fill-opacity: 1; stroke: black; stroke-opacity: 1; stroke-width: 0" />
	<polygon points="207.333333333333,285 207.333333333333,290 208,290 208,285 " style="fill: rgb(240,230,73); fill-opacity: 1; stroke: black; stroke-opacity: 1; stroke-width: 0" />
	<polygon points="208,285 208,290 208.666666666667,290 208.666666666667,285 " style="fill: rgb(240,225,72); fill-opacity: 1; stroke: black; stroke-opacity: 1; stroke-width: 0" />
	<polygon points="208.666666666667,285 208.666666666667,290 209.333333333333,290 209.333333333333,285 " style="fill: rgb(240,220,70); fill-opacity: 1; stroke: black; stroke-opacity: 1; stroke-width: 0" />
	<polygon points="209.333333333333,285 209.333333333333,290 210,290 210,285 " style="fill: rgb(241,216,69); fill-opacity: 1; stroke: black; stroke-opacity: 1; stroke-width: 0" />
	<polygon points="210,285 210,290 210.666666666667,290 210.666666666667,285 " style="fill: rgb(241,211,67); fill-opacity: 1; stroke: black; stroke-opacity: 1; stroke-width: 0" />
	<polygon points="210.666666666667,285 210.666666666667,290 211.333333333333,290 211.333333333333,285 " style="fill: rgb(241,206,66); fill-opacity: 1; stroke: black; stroke-opacity: 1; stroke-width: 0" />
	<polygon points="211.333333333333,285 211.333333333333,290 212,290 212,285 " style="fill: rgb(242,202,64); fill-opacity: 1; stroke: black; stroke-opacity: 1; stroke-width: 0" />
	<polygon points="212,285 212,290 212.666666666667,290 212.666666666667,285 " style="fill: rgb(242,197,63); fill-opacity: 1; stroke: black; stroke-opacity: 1; stroke-width: 0" />
	<polygon points="212.666666666667,285 212.666666666667,290 213.333333333333,290 213.333333333333,285 " style="fill: rgb(242,192,61); fill-opacity: 1; stroke: black; stroke-opacity: 1; stroke-width: 0" />
	<polygon points="213.333333333333,285 213.333333333333,290 214,290 214,285 " style="fill: rgb(243,188,60); fill-opacity: 1; stroke: black; stroke-opacity: 1; stroke-width: 0" />
	<polygon points="214,285 214,290 214.666666666667,290 214.666666666667,285 " style="fill: rgb(243,183,58); fill-opacity: 1; stroke: black; stroke-opacity: 1; stroke-width: 0" />
	<polygon points="214.666666666667,285 214.666666666667,290 215.333333333333,290 215.333333333333,285 " style="fill: rgb(243,178,57); fill-opacity: 1; stroke: black; stroke-opacity: 1; stroke-width: 0" />
	<polygon points="215.333333333333,285 215.333333333333,290 216,290 216,285 " style="fill: rgb(243,173,55); fill-opacity: 1; stroke: black; stroke-opacity: 1; stroke-width: 0" />
	<polygon points="216,285 216,290 216.666666666667,290 216.666666666667,285 " style="fill: rgb(244,169,54); fill-opacity: 1; stroke: black; stroke-opacity: 1; stroke-width: 0" />
	<polygon points="216.666666666667,285 216.666666666667,290 217.333333333333,290 217.333333333333,285 " style="fill: rgb(244,164,52); fill-opacity: 1; stroke: black; stroke-opacity: 1; stroke-width: 0" />
	<polygon points="217.333333333333,285 217.333333333333,290 218,290 218,285 " style="fill: rgb(244,159,51); fill-opacity: 1; stroke: black; stroke-opacity: 1; stroke-width: 0" />
	<polygon points="218,285 218,290 218.666666666667,290 218.666666666667,285 " style="fill: rgb(245,155,49); fill-opacity: 1; stroke: black; stroke-opacity: 1; stroke-width: 0" />
	<polygon points="218.666666666667,285 218.666666666667,290 219.333333333333,290 219.333333333333,285 " style="fill: rgb(245,150,48); fill-opacity: 1; stroke: black; stroke-opacity: 1; stroke-width: 0" />
	<polygon points="219.333333333333,285 219.333333333333,290 220,290 220,285 " style="fill: rgb(245,145,46); fill-opacity: 1; stroke: black; stroke-opacity: 1; stroke-width: 0" />
	<polygon points="220,285 220,290 220.666666666667,290 220.666666666667,285 " style="fill: rgb(246,141,45); fill-opacity: 1; stroke: black; stroke-opacity: 1; stroke-width: 0" />
	<polygon points="220.666666666667,285 220.666666666667,290 221.333333333333,290 221.333333333333,285 " style="fill: rgb(246,136,43); fill-opacity: 1; stroke: black; stroke-opacity: 1; stroke-width: 0" />
	<polygon points="221.333333333333,285 221.333333333333,290 222,290 222,285 " style="fill: rgb(246,131,42); fill-opacity: 1; stroke: black; stroke-opacity: 1; stroke-width: 0" />
	<polygon points="222,285 222,290 222.666666666667,290 222.666666666667,285 " style="fill: rgb(246,126,40); fill-opacity: 1; stroke: black; stroke-opacity: 1; stroke-width: 0" />
	<polygon points="222.666666666667,285 222.666666666667,290 223.333333333333,290 223.333333333333,285 " style="fill: rgb(247,122,39); fill-opacity: 1; stroke: black; stroke-opacity: 1; stroke-width: 0" />
	<polygon points="223.333333333333,285 223.333333333333,290 224,290 224,285 " style="fill: rgb(247,117,37); fill-opacity: 1; stroke: black; stroke-opacity: 1; stroke-width: 0" />
	<polygon points="224,285 224,290 224.666666666667,290 224.666666666667,285 " style="fill: rgb(247,112,36); fill-opacity: 1; stroke: black; stroke-opacity: 1; stroke-width: 0" />
	<polygon points="224.666666666667,285 224.666666666667,290 225.333333333333,290 225.333333333333,285 " style="fill: rgb(248,108,34); fill-opacity: 1; stroke: black; stroke-opacity: 1; stroke-width: 0" />
	<polygon points="225.333333333333,285 225.333333333333,290 226,290 226,285 " style="fill: rgb(248,103,33); fill-opacity: 1; stroke: black; stroke-opacity: 1; stroke-width: 0" />
	<polygon points="226,285 226,290 226.666666666667,290 226.666666666667,285 " style="fill: rgb(248,98,31); fill-opacity: 1; stroke: black; stroke-opacity: 1; stroke-width: 0" />
	<polygon points="226.666666666667,285 226.666666666667,290 227.333333333333,290 227.333333333333,285 " style="fill: rgb(249,94,30); fill-opacity: 1; stroke: black; stroke-opacity: 1; stroke-width: 0" />
	<polygon points="227.333333333333,285 227.333333333333,290 228,290 228,285 " style="fill: rgb(249,89,28); fill-opacity: 1; stroke: black; stroke-opacity: 1; stroke-width: 0" />
	<polygon points="228,285 228,290 228.666666666667,290 228.666666666667,285 " style="fill: rgb(249,84,27); fill-opacity: 1; stroke: black; stroke-opacity: 1; stroke-width: 0" />
	<polygon points="228.666666666667,285 228.666666666667,290 229.333333333333,290 229.333333333333,285 " style="fill: rgb(249,79,25); fill-opacity: 1; stroke: black; stroke-opacity: 1; stroke-width: 0" />
	<polygon points="229.333333333333,285 229.333333333333,290 230,290 230,285 " style="fill: rgb(250,75,24); fill-opacity: 1; stroke: black; stroke-opacity: 1; stroke-width: 0" />
	<polygon points="230,285 230,290 230.666666666667,290 230.666666666667,285 " style="fill: rgb(250,70,22); fill-opacity: 1; stroke: black; stroke-opacity: 1; stroke-width: 0" />
	<polygon points="230.666666666667,285 230.666666666667,290 231.333333333333,290 231.333333333333,285 " style="fill: rgb(250,65,21); fill-opacity: 1; stroke: black; stroke-opacity: 1; stroke-width: 0" />
	<polygon points="231.333333333333,285 231.333333333333,290 232,290 232,285 " style="fill: rgb(251,61,19); fill-opacity: 1; stroke: black; stroke-opacity: 1; stroke-width: 0" />
	<polygon points="232,285 232,290 232.666666666667,290 232.666666666667,285 " style="fill: rgb(251,56,18); fill-opacity: 1; stroke: black; stroke-opacity: 1; stroke-width: 0" />
	<polygon points="232.666666666667,285 232.666666666667,290 233.333333333333,290 233.333333333333,285 " style="fill: rgb(251,51,16); fill-opacity: 1; stroke: black; stroke-opacity: 1; stroke-width: 0" />
	<polygon points="233.333333333333,285 233.333333333333,290 234,290 234,285 " style="fill: rgb(252,47,15); fill-opacity: 1; stroke: black; stroke-opacity: 1; stroke-width: 0" />
	<polygon points="234,285 234,290 234.666666666667,290 234.666666666667,285 " style="fill: rgb(252,42,13); fill-opacity: 1; stroke: black; stroke-opacity: 1; stroke-width: 0" />
	<polygon points="234.666666666667,285 234.666666666667,290 235.333333333333,290 235.333333333333,285 " style="fill: rgb(252,37,12); fill-opacity: 1; stroke: black; stroke-opacity: 1; stroke-width: 0" />
	<polygon points="235.333333333333,285 235.333333333333,290 236,290 236,285 " style="fill: rgb(252,32,10); fill-opacity: 1; stroke: black; stroke-opacity: 1; stroke-width: 0" />
	<polygon points="236,285 236,290 236.666666666667,290 236.666666666667,285 " style="fill: rgb(253,28,9); fill-opacity: 1; stroke: black; stroke-opacity: 1; stroke-width: 0" />
	<polygon points="236.666666666667,285 236.666666666667,290 237.333333333333,290 237.333333333333,285 " style="fill: rgb(253,23,7); fill-opacity: 1; stroke: black; stroke-opacity: 1; stroke-width: 0" />
	<polygon points="237.333333333333,285 237.333333333333,290 238,290 238,285 " style="fill: rgb(253,18,6); fill-opacity: 1; stroke: black; stroke-opacity: 1; stroke-width: 0" />
	<polygon points="238,285 238,290 238.666666666667,290 238.666666666667,285 " style="fill: rgb(254,14,4); fill-opacity: 1; stroke: black; stroke-opacity: 1; stroke-width: 0" />
	<polygon points="238.666666666667,285 238.666666666667,290 239.333333333333,290 239.333333333333,285 " style="fill: rgb(254,9,3); fill-opacity: 1; stroke: black; stroke-opacity: 1; stroke-width: 0" />
	<polygon points="239.333333333333,285 239.333333333333,290 240,290 240,285 " style="fill: rgb(254,4,1); fill-opacity: 1; stroke: black; stroke-opacity: 1; stroke-width: 0" />
	<polygon points="240,285 240,290 240.666666666667,290 240.666666666667,285 " style="fill: rgb(255,0,0); fill-opacity: 1; stroke: black; stroke-opacity: 1; stroke-width: 0" />
	<line stroke="green" stroke-width="1" x1="40" x2="40" y1="98" y2="140" />
	<line stroke="grey" stroke-width="1" x1="40" x2="40" y1="90" y2="98" />
	<polygon points="65,165 40,190 65,215 90,190 " style="fill: rgb(243,240,121); fill-opacity: 1; stroke: white; stroke-opacity: 1; stroke-width: 1" />
	<polygon points="90,190 65,215 90,240 115,215 " style="fill: rgb(244,240,125); fill-opacity: 1; stroke: white; stroke-opacity: 1; stroke-width: 1" />
	<polygon points="115,215 90,240 115,265 140,240 " style="fill: rgb(252,37,12); fill-opacity: 1; stroke: white; stroke-opacity: 1; stroke-width: 1" />
	<line stroke="green" stroke-width="1" x1="67.0833333333333" x2="90" y1="98" y2="140" />
	<line stroke="grey" stroke-width="1" x1="67.0833333333333" x2="67.0833333333333" y1="90" y2="98" />
	<polygon points="115,165 90,190 115,215 140,190 " style="fill: rgb(255,0,0); fill-opacity: 1; stroke: white; stroke-opacity: 1; stroke-width: 1" />
	<polygon points="140,190 115,215 140,240 165,215 " style="fill: rgb(244,240,125); fill-opacity: 1; stroke: white; stroke-opacity: 1; stroke-width: 1" />
	<line stroke="green" stroke-width="1" x1="69.1666666666667" x2="140" y1="98" y2="140" />
	<line stroke="grey" stroke-width="1" x1="69.1666666666667" x2="69.1666666666667" y1="90" y2="98" />
	<polygon points="165,165 140,190 165,215 190,190 " style="fill: rgb(244,241,129); fill-opacity: 1; stroke: white; stroke-opacity: 1; stroke-width: 1" />
	<line stroke="green" stroke-width="1" x1="190" x2="190" y1="98" y2="140" />
	<line stroke="grey" stroke-width="1" x1="190" x2="190" y1="90" y2="98" />
	<!-- 
	Generated using the Perl SVG Module V2.78
	by Ronan Oger
	Info: http://www.roitsystems.com/
 -->
</svg>